<svg width="160" height="18" viewBox="0 0 160 18" fill="none" xmlns="http://www.w3.org/2000/svg">
<path d="M16.5363 0V17.1441H14.3017L2.23464 3.39665V17.1441H0V0H2.23464L14.3017 13.7296V0H16.5363ZM28.8179 0V17.1441H44.2637V14.8559H31.0346V9.51061H38.4179V7.2581H31.0346V2.27039H44.2637V0.0178771H28.8179V0ZM63.7676 17.6089C68.5229 17.6089 72.0804 15.6067 72.0804 10.4581V0H69.8458V10.4581C69.8458 14.2838 67.2179 15.3385 63.8391 15.3385C60.3888 15.3385 57.6894 14.3732 57.6894 10.4581V0H55.4369V10.4581C55.419 15.6782 58.9765 17.6089 63.7676 17.6089ZM95.4637 17.1441C98.914 17.1441 101.578 15.8212 101.578 12.0313C101.578 10.1006 100.845 9.08156 99.3788 7.8838C100.273 6.88268 100.773 5.98883 100.773 4.63017C100.773 1.37654 98.4492 0.0178771 95.4637 0.0178771H84.3084V17.162H95.4637V17.1441ZM95.5352 2.25251C97.1978 2.25251 98.5207 2.68156 98.5207 4.57654C98.5207 6.54302 97.1978 6.93631 95.4637 6.93631H86.5609V2.25251H95.5352ZM95.4637 9.24246C97.5196 9.24246 99.343 9.81452 99.343 12.1922C99.343 14.6235 97.4838 14.8559 95.4637 14.8559H86.5609V9.24246H95.4637ZM122.941 0L132.541 17.1441H130.181L127.785 12.8536H115.915L113.484 17.1441H111.124L120.885 0H122.941ZM117.22 10.6011H126.516L121.904 2.35978L117.22 10.6011ZM151.687 17.6089C156.442 17.6089 160 15.6067 160 10.4581V0H157.765V10.4581C157.765 14.2838 155.137 15.3385 151.759 15.3385C148.308 15.3385 145.609 14.3732 145.609 10.4581V0H143.356V10.4581C143.356 15.6782 146.914 17.6089 151.687 17.6089Z" fill="white"/>
</svg>
