<svg width="36" height="12" viewBox="0 0 36 12" fill="none" xmlns="http://www.w3.org/2000/svg">
<path d="M8.15351 0.0097617C8.90934 -0.0197355 9.6777 0.0177339 10.4479 0.120575C11.1974 0.219431 11.9479 0.408372 12.6804 0.67863C13.2355 0.884403 13.7608 1.14885 14.2449 1.46628C14.7434 1.7933 15.1605 2.20859 15.47 2.68603C15.6455 2.96346 15.7727 3.24169 15.8551 3.53108C15.9375 3.82685 15.984 4.12183 15.9966 4.42636C16.0055 4.7325 15.9975 5.01073 15.9661 5.27381L15.9393 5.46753C15.8972 5.78403 15.8264 6.11328 15.7216 6.49595L15.6384 6.77497L15.564 7.00059L15.4897 7.1975L15.4494 7.29317C15.077 8.23609 14.4984 9.10396 13.747 9.84667C13.2584 10.3286 12.6897 10.741 12.0607 11.0696C11.4843 11.369 10.8662 11.5995 10.2222 11.7552C9.57705 11.9083 8.91331 11.9905 8.24575 12C7.57933 12.002 6.91548 11.9265 6.2711 11.7751C5.35089 11.5606 4.49409 11.1705 3.76003 10.6319C3.06636 10.1231 2.48668 9.50236 2.05135 8.80231C1.76088 8.33023 1.52734 7.83212 1.35463 7.31629C1.21697 6.90035 1.11607 6.47546 1.05284 6.04552L1.01075 5.71387L1.0009 5.27221L1 5.13908C1 4.92542 1.00716 4.73489 1.02239 4.55711C1.04657 4.15052 1.14329 3.74713 1.30627 3.37403C1.53555 2.81786 1.90183 2.31445 2.37822 1.90077C2.8474 1.50072 3.38068 1.16489 3.96063 0.904243C4.51646 0.647894 5.10362 0.449406 5.7105 0.312705L6.00692 0.251319L6.42961 0.173989C6.85409 0.104631 7.28574 0.0560004 7.71917 0.0288949L8.15351 0.0097617ZM6.1502 0.835682C5.49433 0.959657 4.86024 1.16185 4.26511 1.43679C3.74459 1.67078 3.26594 1.97222 2.84479 2.33127C2.44181 2.68125 2.12837 3.11254 1.93404 3.5853C1.79523 3.90418 1.71374 4.2446 1.69225 4.59537C1.68262 4.7124 1.67664 4.82963 1.67434 4.94695L1.67344 5.3336L1.6824 5.68996L1.71911 5.97696C1.76389 6.27432 1.82658 6.5677 1.90986 6.85868L1.99852 7.14807C2.15076 7.61046 2.36837 8.06966 2.63972 8.51371C3.03376 9.14751 3.55845 9.70953 4.1863 10.1703C4.84601 10.6542 5.61606 11.0046 6.44304 11.1972C7.02927 11.3348 7.63319 11.4037 8.23948 11.402C8.85047 11.3932 9.45796 11.318 10.0485 11.178C10.6344 11.0362 11.1969 10.8263 11.7213 10.5538C12.2904 10.2564 12.805 9.88325 13.2473 9.44726C13.8634 8.83885 14.3536 8.13818 14.6954 7.37767L14.8198 7.08589C14.8449 7.02769 14.8682 6.97029 14.8906 6.9105L14.9578 6.71917L15.0294 6.48798L15.0706 6.35006C15.1485 6.06465 15.2058 5.81193 15.2461 5.56878L15.273 5.38941C15.3213 5.09922 15.3357 4.79309 15.3249 4.4455C15.3151 4.18594 15.2743 3.92805 15.2031 3.67618C15.1328 3.4329 15.0262 3.19909 14.8861 2.981C14.6232 2.57628 14.2693 2.22426 13.8464 1.94701C13.4061 1.65794 12.9283 1.41705 12.4234 1.22951C11.7582 0.982655 11.0617 0.80865 10.3493 0.711316C9.63147 0.614854 8.90483 0.580148 8.17948 0.607677C7.63052 0.622824 7.08514 0.674644 6.5523 0.762338L6.15558 0.834088L6.08572 0.562235L6.1502 0.835682Z" fill="black"/>
<path d="M27.8465 0.0097617C27.0907 -0.0197355 26.3223 0.0177339 25.5521 0.120575C24.8026 0.219431 24.0521 0.408372 23.3196 0.67863C22.7645 0.884403 22.2392 1.14885 21.7551 1.46628C21.2566 1.7933 20.8395 2.20859 20.53 2.68603C20.3545 2.96346 20.2273 3.24169 20.1449 3.53108C20.0625 3.82685 20.016 4.12183 20.0034 4.42636C19.9945 4.7325 20.0025 5.01073 20.0339 5.27381L20.0607 5.46753C20.1028 5.78403 20.1736 6.11328 20.2784 6.49595L20.3616 6.77497L20.436 7.00059L20.5103 7.1975L20.5506 7.29317C20.923 8.23609 21.5016 9.10396 22.253 9.84667C22.7416 10.3286 23.3103 10.741 23.9393 11.0696C24.5157 11.369 25.1338 11.5995 25.7778 11.7552C26.4229 11.9083 27.0867 11.9905 27.7543 12C28.4207 12.002 29.0845 11.9265 29.7289 11.7751C30.6491 11.5606 31.5059 11.1705 32.24 10.6319C32.9336 10.1231 33.5133 9.50236 33.9486 8.80231C34.2391 8.33023 34.4727 7.83212 34.6454 7.31629C34.783 6.90035 34.8839 6.47546 34.9472 6.04552L34.9893 5.71387L34.9991 5.27221L35 5.13908C35 4.92542 34.9928 4.73489 34.9776 4.55711C34.9534 4.15052 34.8567 3.74713 34.6937 3.37403C34.4644 2.81786 34.0982 2.31445 33.6218 1.90077C33.1526 1.50072 32.6193 1.16489 32.0394 0.904243C31.4835 0.647894 30.8964 0.449406 30.2895 0.312705L29.9931 0.251319L29.5704 0.173989C29.1459 0.104631 28.7143 0.0560004 28.2808 0.0288949L27.8465 0.0097617ZM29.8498 0.835682C30.5057 0.959657 31.1398 1.16185 31.7349 1.43679C32.2554 1.67078 32.7341 1.97222 33.1552 2.33127C33.5582 2.68125 33.8716 3.11254 34.066 3.5853C34.2048 3.90418 34.2863 4.2446 34.3078 4.59537C34.3174 4.7124 34.3234 4.82963 34.3257 4.94695L34.3266 5.3336L34.3176 5.68996L34.2809 5.97696C34.2361 6.27432 34.1734 6.5677 34.0901 6.85868L34.0015 7.14807C33.8492 7.61046 33.6316 8.06966 33.3603 8.51371C32.9662 9.14751 32.4416 9.70953 31.8137 10.1703C31.154 10.6542 30.3839 11.0046 29.557 11.1972C28.9707 11.3348 28.3668 11.4037 27.7605 11.402C27.1495 11.3932 26.542 11.318 25.9515 11.178C25.3656 11.0362 24.8031 10.8263 24.2787 10.5538C23.7096 10.2564 23.195 9.88325 22.7527 9.44726C22.1366 8.83885 21.6464 8.13818 21.3046 7.37767L21.1802 7.08589C21.1551 7.02769 21.1318 6.97029 21.1094 6.9105L21.0422 6.71917L20.9706 6.48798L20.9294 6.35006C20.8515 6.06465 20.7942 5.81193 20.7539 5.56878L20.727 5.38941C20.6787 5.09922 20.6643 4.79309 20.6751 4.4455C20.6849 4.18594 20.7257 3.92805 20.7969 3.67618C20.8672 3.4329 20.9738 3.19909 21.1139 2.981C21.3768 2.57628 21.7307 2.22426 22.1536 1.94701C22.5939 1.65794 23.0717 1.41705 23.5766 1.22951C24.2418 0.982655 24.9383 0.80865 25.6507 0.711316C26.3685 0.614854 27.0952 0.580148 27.8205 0.607677C28.3695 0.622824 28.9149 0.674644 29.4477 0.762338L29.8444 0.834088L29.9143 0.562235L29.8498 0.835682Z" fill="black"/>
<path d="M15 2.50003C17.3747 1.6966 18.6411 1.72933 21 2.50003" stroke="black" stroke-width="0.5" stroke-linecap="round"/>
<path d="M0.956422 3.5019C0.681331 3.52597 0.477835 3.76849 0.501903 4.04358C0.52597 4.31867 0.768486 4.52216 1.04358 4.4981L0.956422 3.5019ZM1.04358 4.4981L2.03977 4.41094L1.95262 3.41475L0.956422 3.5019L1.04358 4.4981Z" fill="black"/>
<path d="M35.0397 3.5019C35.3148 3.52597 35.5183 3.76849 35.4942 4.04358C35.4701 4.31867 35.2276 4.52216 34.9525 4.4981L35.0397 3.5019ZM34.9525 4.4981L33.9563 4.41094L34.0435 3.41475L35.0397 3.5019L34.9525 4.4981Z" fill="black"/>
</svg>
