<svg width="34" height="12" viewBox="0 0 34 12" fill="none" xmlns="http://www.w3.org/2000/svg">
<path d="M5.20875 0.237099C6.67195 0.0365745 8.15114 -0.0369924 9.62821 0.0172982C10.1415 0.036492 10.6542 0.0686884 11.1657 0.113853C11.7735 0.164879 12.3886 0.250444 13.0219 0.369764C13.2543 0.416079 13.4802 0.470245 13.697 0.53383C14.1265 0.66728 14.469 0.978926 14.6168 1.38006C14.7047 1.61478 14.7811 1.85891 14.8468 2.11639L14.9216 2.44217L14.9602 2.65412L14.9766 2.7546L14.9897 2.87392L14.9947 2.943L14.9963 3.00423C15.0152 3.64558 14.9618 4.2885 14.8378 4.94476C14.577 6.27788 14.0554 7.55199 13.3003 8.70021C12.8802 9.33815 12.3656 9.91456 11.7727 10.4115C11.4852 10.647 11.2216 10.8276 10.9456 10.972C10.7057 11.1026 10.4511 11.2069 10.1867 11.2829C9.52966 11.4721 8.83976 11.6157 8.11865 11.717C7.40986 11.8073 6.70764 11.8496 6.01856 11.841C5.25164 11.8318 4.48748 11.7511 3.73696 11.6C3.39632 11.528 3.06015 11.4378 2.73003 11.33C2.13901 11.1252 1.63542 10.7393 1.29767 10.2325C1.1137 9.9559 0.961425 9.66113 0.843485 9.35333C0.704074 8.98933 0.58293 8.61917 0.480466 8.24412C0.320071 7.64096 0.197749 7.02912 0.114162 6.41193L0.0369589 5.76823L0.0221754 5.58532L0.010677 5.36552L0 5.08056L0.00164265 4.97145L0.00657049 4.89138C0.0304644 4.5741 0.0688287 4.25797 0.121554 3.94388L0.158513 3.72643L0.46404 3.77432L0.160155 3.71937C0.192186 3.55766 0.242286 3.40066 0.306349 3.25622L0.375339 3.11727C0.712076 2.45045 1.16851 1.84521 1.72393 1.32904C1.92351 1.12886 2.16744 0.973431 2.4319 0.872951C2.71945 0.755059 3.01667 0.660013 3.32055 0.58878C3.9119 0.44591 4.54102 0.329729 5.20875 0.237099ZM9.60604 0.60605C8.16577 0.552823 6.72342 0.624288 5.29663 0.819571C4.64943 0.909061 4.04166 1.02132 3.47085 1.16026C3.19646 1.22429 2.92807 1.30988 2.66844 1.41617C2.47707 1.48918 2.30706 1.59672 2.16169 1.74352C1.65192 2.21654 1.23323 2.77164 0.924795 3.38339C0.868284 3.48772 0.824205 3.59779 0.793385 3.71152L0.763818 3.82849L0.730966 4.03102C0.688258 4.29949 0.657869 4.52635 0.637336 4.75086L0.616804 5.01305V5.07193L0.630766 5.44559L0.643085 5.63085L0.659512 5.79256L0.669367 5.87342C0.751498 6.64115 0.887014 7.38612 1.07756 8.09654C1.17612 8.45765 1.2911 8.81168 1.42251 9.15237C1.52107 9.41299 1.65494 9.67126 1.81838 9.91697C2.0817 10.3125 2.47437 10.6139 2.93536 10.7742C3.23596 10.8731 3.55052 10.9571 3.86673 11.0246C4.57732 11.1672 5.30074 11.2435 6.02677 11.2523C6.68546 11.2601 7.35729 11.2201 8.03323 11.1345C8.70197 11.0423 9.36271 10.9032 10.0101 10.7185C10.2245 10.658 10.429 10.5732 10.6466 10.457C10.8848 10.333 11.1148 10.1744 11.371 9.96564C11.9178 9.50682 12.3922 8.97484 12.7796 8.38621C13.4928 7.30129 13.9854 6.0975 14.2317 4.838C14.3239 4.35556 14.3745 3.86669 14.3828 3.37632L14.3795 2.97126L14.3663 2.83232L14.3286 2.61173L14.3056 2.50183C14.2384 2.18823 14.1484 1.87949 14.0362 1.57788C13.9935 1.46437 13.924 1.36178 13.8331 1.27806C13.7423 1.19434 13.6324 1.13174 13.5122 1.09511C13.3104 1.03697 13.1059 0.987466 12.8995 0.946741C12.3085 0.834253 11.7117 0.751972 11.1115 0.70025L10.4766 0.65158C10.1727 0.630385 9.88528 0.61547 9.60604 0.60605Z" fill="black"/>
<path d="M28.7913 0.237099C27.3281 0.0365745 25.8489 -0.0369924 24.3718 0.0172982C23.8585 0.036492 23.3458 0.0686884 22.8343 0.113853C22.2265 0.164879 21.6114 0.250444 20.9781 0.369764C20.7457 0.416079 20.5198 0.470245 20.303 0.53383C19.8735 0.66728 19.531 0.978926 19.3832 1.38006C19.2953 1.61478 19.2189 1.85891 19.1532 2.11639L19.0784 2.44217L19.0398 2.65412L19.0234 2.7546L19.0103 2.87392L19.0053 2.943L19.0037 3.00423C18.9848 3.64558 19.0382 4.2885 19.1622 4.94476C19.423 6.27788 19.9446 7.55199 20.6997 8.70021C21.1198 9.33815 21.6344 9.91456 22.2273 10.4115C22.5148 10.647 22.7784 10.8276 23.0544 10.972C23.2943 11.1026 23.5489 11.2069 23.8133 11.2829C24.4703 11.4721 25.1602 11.6157 25.8814 11.717C26.5901 11.8073 27.2924 11.8496 27.9814 11.841C28.7484 11.8318 29.5125 11.7511 30.263 11.6C30.6037 11.528 30.9398 11.4378 31.27 11.33C31.861 11.1252 32.3646 10.7393 32.7023 10.2325C32.8863 9.9559 33.0386 9.66113 33.1565 9.35333C33.2959 8.98933 33.4171 8.61917 33.5195 8.24412C33.6799 7.64096 33.8023 7.02912 33.8858 6.41193L33.963 5.76823L33.9778 5.58532L33.9893 5.36552L34 5.08056L33.9984 4.97145L33.9934 4.89138C33.9695 4.5741 33.9312 4.25797 33.8784 3.94388L33.8415 3.72643L33.536 3.77432L33.8398 3.71937C33.8078 3.55766 33.7577 3.40066 33.6937 3.25622L33.6247 3.11727C33.2879 2.45045 32.8315 1.84521 32.2761 1.32904C32.0765 1.12886 31.8326 0.973431 31.5681 0.872951C31.2806 0.755059 30.9833 0.660013 30.6794 0.58878C30.0881 0.44591 29.459 0.329729 28.7913 0.237099ZM24.394 0.60605C25.8342 0.552823 27.2766 0.624288 28.7034 0.819571C29.3506 0.909061 29.9583 1.02132 30.5291 1.16026C30.8035 1.22429 31.0719 1.30988 31.3316 1.41617C31.5229 1.48918 31.6929 1.59672 31.8383 1.74352C32.3481 2.21654 32.7668 2.77164 33.0752 3.38339C33.1317 3.48772 33.1758 3.59779 33.2066 3.71152L33.2362 3.82849L33.269 4.03102C33.3117 4.29949 33.3421 4.52635 33.3627 4.75086L33.3832 5.01305V5.07193L33.3692 5.44559L33.3569 5.63085L33.3405 5.79256L33.3306 5.87342C33.2485 6.64115 33.113 7.38612 32.9224 8.09654C32.8239 8.45765 32.7089 8.81168 32.5775 9.15237C32.4789 9.41299 32.3451 9.67126 32.1816 9.91697C31.9183 10.3125 31.5256 10.6139 31.0646 10.7742C30.764 10.8731 30.4495 10.9571 30.1333 11.0246C29.4227 11.1672 28.6993 11.2435 27.9732 11.2523C27.3145 11.2601 26.6427 11.2201 25.9668 11.1345C25.298 11.0423 24.6373 10.9032 23.9899 10.7185C23.7755 10.658 23.571 10.5732 23.3534 10.457C23.1152 10.333 22.8852 10.1744 22.629 9.96564C22.0822 9.50682 21.6078 8.97484 21.2204 8.38621C20.5072 7.30129 20.0146 6.0975 19.7683 4.838C19.6761 4.35556 19.6255 3.86669 19.6172 3.37632L19.6205 2.97126L19.6337 2.83232L19.6714 2.61173L19.6944 2.50183C19.7616 2.18823 19.8516 1.87949 19.9638 1.57788C20.0065 1.46437 20.076 1.36178 20.1669 1.27806C20.2577 1.19434 20.3676 1.13174 20.4878 1.09511C20.6896 1.03697 20.8941 0.987466 21.1005 0.946741C21.6915 0.834253 22.2883 0.751972 22.8885 0.70025L23.5234 0.65158C23.8273 0.630385 24.1147 0.61547 24.394 0.60605Z" fill="black"/>
<path d="M14 1H20L19.4949 1.5H14.415L14 1Z" fill="black"/>
<path d="M15 3.50003C16.5831 2.6966 17.4274 2.72933 19 3.50003" stroke="black" stroke-width="0.5" stroke-linecap="round"/>
</svg>
