<svg width="16" height="16" viewBox="0 0 16 16" fill="none" xmlns="http://www.w3.org/2000/svg">
<path d="M6.08899 0C9.45199 0 12.178 2.7244 12.178 6.08543C12.178 7.60211 11.6253 8.98771 10.7073 10.0456L16 15.3353L15.3349 16L10.0422 10.7104C8.98361 11.6185 7.59719 12.1709 6.08899 12.1709C2.726 12.1709 0 9.44646 0 6.08543C0 2.7244 2.726 0 6.08899 0ZM6.08899 0.93622C3.24122 0.93622 0.936768 3.23932 0.936768 6.08543C0.936768 8.93154 3.24122 11.2346 6.08899 11.2346C8.93677 11.2346 11.2412 8.93154 11.2412 6.08543C11.2412 3.23932 8.93677 0.93622 6.08899 0.93622Z" fill="black"/>
</svg>
