<svg xmlns="http://www.w3.org/2000/svg" width="48" height="48" viewBox="0 0 48 48"><path fill="#1C1C1B" fill-rule="evenodd" d="M2.183 31.474c-1.702 1.702.94 4.348 2.644 2.644l8.5-8.503c2.193-2.193 4.399-4.368 6.577-6.576.715-.725 1.37-1.635 2.155-2.285 1.336-1.104 2.605-.434 3.853.56 4.281 3.397 8.28 7.905 11.433 11.845 3.153 3.94 3.187 3.967 5.104 5.918 1.687 1.717 4.33-.927 2.644-2.646-2.213-2.25-6.803-7.987-9.081-10.247-2.427-2.408-2.405-2.3-4.747-4.793-1.735-1.849-3.561-3.924-6.058-4.727-2.081-.67-3.962-.192-5.57 1.246-2.243 2.006-4.264 4.374-6.397 6.507L2.183 31.474z"></path></svg> 