<svg xmlns="http://www.w3.org/2000/svg" width="48" height="48" viewBox="0 0 48 48">
  <path fill="#1C1C1B" fill-rule="evenodd" d="M16.1603572,2.54939256 C14.458336,0.847371402 11.8118551,3.48886836 13.5163682,5.1933815 C18.014389,9.68891029 17.5234693,9.19799057 22.0189981,13.6935194 C24.2119389,15.8864602 26.387436,18.091861 28.5953287,20.26985 C29.3204944,20.9850478 30.2300664,21.640438 30.8804728,22.4254112 C31.9844191,23.7611115 31.314077,25.0295285 30.3197777,26.2780096 C26.9232113,30.5592283 22.4152226,34.5588534 18.475405,37.7112059 C14.5355873,40.8635584 14.5081756,40.8984461 12.5569566,42.8147774 C10.8399836,44.5018466 13.4839725,47.1458356 15.2034375,45.4587663 C17.4536939,43.2458896 23.1902278,38.6556656 25.4504521,36.3779975 C27.8577031,33.9508107 27.7505481,33.9732385 30.2425263,31.6307789 C32.0915742,29.896362 34.1673921,28.069742 34.9698091,25.5727797 C35.6401513,23.4919779 35.1616914,21.6105343 33.72382,20.0032083 C31.7177775,17.7604279 29.3503981,15.7394335 27.2172647,13.6063001 L16.1603572,2.54939256 Z" transform="rotate(90 23.634 24)"/>
</svg>
