<?xml version="1.0" encoding="UTF-8"?>
<svg xmlns="http://www.w3.org/2000/svg" xmlns:xlink="http://www.w3.org/1999/xlink" width="63px" height="87px" viewBox="0 0 63 87">
  <title>Group 2</title>
  <desc>Created with Sketch.</desc>
  <defs></defs>
  <g id="↳-Desktop/Mobile-·-Product-·-Detail-·-Shapes/Sizes-🔶-" stroke="none" stroke-width="1" fill="none" fill-rule="evenodd">
    <g id="SILH-neubau-product-desktop-optical-sizes-overlay" transform="translate(-670.000000, -1073.000000)">
      <g id="sizes-overlay" transform="translate(475.000000, 896.000000)">
        <g id="Group-2" transform="translate(195.000000, 177.000000)">
          <path d="M15.5,67.5 L15.5,85.6107703" id="Line-Copy-2" stroke="#1C1C1B" stroke-linecap="square"></path>
          <path d="M47.5,67.5 L47.5,85.6107703" id="Line-Copy-3" stroke="#1C1C1B" stroke-linecap="square"></path>
          <path d="M16.5,80.5 L46.5,80.5" id="Line-2-Copy" stroke="#1C1C1B" stroke-linecap="square"></path>
          <g id="Page-1" fill="#191918">
            <path d="M0,0 C5.84439091,1.64918641 12.4683285,3.91107267 18.1246474,6.69511411 C18.7884372,7.02182586 19.4317396,7.45655251 20.1378699,7.61657459 C21.2674052,7.87060964 22.4877677,8.21332359 23.5879378,8.03529903 C29.0833251,7.14450945 34.5568592,7.10783773 40.0317591,8.07463779 C41.5887969,8.34934236 41.2889989,16.6164831 38.9793928,16.0797423 C37.5705468,15.7530306 36.1302869,15.4963285 34.6886611,15.3736449 C31.4065894,15.0936063 28.1347613,15.1956203 24.9250782,16.0297354 C22.4024038,16.6844924 21.5590083,18.3067163 22.3771361,20.7257167 C22.5464981,21.2264525 22.4706949,21.8305358 22.4112816,22.3772779 C21.8028077,28.0120554 19.8421693,33.2881167 17.8248493,38.5401747 C16.0124027,43.2588258 13.6263106,47.6727682 10.5026743,51.7173262 C7.62460985,55.4425804 4.00761722,58.1609314 0,60 M1.0658141e-13,56.416498 C4.57972161,53.9991265 7.95153247,50.1521472 10.1550724,44.8843834 C11.8780577,40.7651484 13.5184106,36.6125754 15.1758364,32.4673368 C15.7016781,31.1504884 16.4672216,29.8329733 16.5867311,28.4714521 C16.8530665,25.4256985 16.9780393,22.3406062 16.8018482,19.2908521 C16.5375615,14.7082198 14.3413187,11.0337127 10.4268711,8.4486894 C8.80905426,7.38054202 7.11270258,6.38973865 5.35079141,5.57229252 C3.73982064,4.82523957 1.65833323,4.17133324 1.0658141e-13,3.60068864" id="Fill-1"></path>
            <path d="M22,0 C27.8443909,1.64918641 34.4683285,3.91107267 40.1246474,6.69511411 C40.7884372,7.02182586 41.4317396,7.45655251 42.1378699,7.61657459 C43.2674052,7.87060964 44.4877677,8.21332359 45.5879378,8.03529903 C51.0833251,7.14450945 56.5568592,7.10783773 62.0317591,8.07463779 C63.5887969,8.34934236 63.2889989,16.6164831 60.9793928,16.0797423 C59.5705468,15.7530306 58.1302869,15.4963285 56.6886611,15.3736449 C53.4065894,15.0936063 50.1347613,15.1956203 46.9250782,16.0297354 C44.4024038,16.6844924 43.5590083,18.3067163 44.3771361,20.7257167 C44.5464981,21.2264525 44.4706949,21.8305358 44.4112816,22.3772779 C43.8028077,28.0120554 41.8421693,33.2881167 39.8248493,38.5401747 C38.0124027,43.2588258 35.6263106,47.6727682 32.5026743,51.7173262 C29.6246099,55.4425804 26.0076172,58.1609314 22,60 M22,56.416498 C26.5797216,53.9991265 29.9515325,50.1521472 32.1550724,44.8843834 C33.8780577,40.7651484 35.5184106,36.6125754 37.1758364,32.4673368 C37.7016781,31.1504884 38.4672216,29.8329733 38.5867311,28.4714521 C38.8530665,25.4256985 38.9780393,22.3406062 38.8018482,19.2908521 C38.5375615,14.7082198 36.3413187,11.0337127 32.4268711,8.4486894 C30.8090543,7.38054202 29.1127026,6.38973865 27.3507914,5.57229252 C25.7398206,4.82523957 23.6583332,4.17133324 22,3.60068864" id="Fill-1" transform="translate(42.500000, 30.000000) scale(-1, 1) translate(-42.500000, -30.000000) "></path>
          </g>
        </g>
      </g>
    </g>
  </g>
</svg>