<svg xmlns="http://www.w3.org/2000/svg" width="20" height="20" viewBox="0 0 20 20"><g id='calendarImage'><path fill-rule="evenodd" d="M6.226 2.204c.42 0 .768.316.82.722l.006.103v.682h5.896v-.682c0-.385.266-.709.623-.8l.1-.018.103-.007h1.133c.42 0 .769.316.82.722l.006.103v.682h1.062c.58 0 1.066.413 1.179.96l.018.12.006.122v11.68c0 .622-.474 1.135-1.08 1.197l-.123.006H3.205a1.205 1.205 0 01-1.197-1.08l-.006-.123V4.913c0-.621.474-1.134 1.08-1.196l.123-.006h1.06l.002-.682c0-.385.265-.709.623-.8l.1-.018.103-.007h1.133zM17.1 7.61H2.898v8.983c0 .144.102.266.237.297l.07.008h13.59c.145 0 .266-.1.298-.235l.008-.07L17.1 7.61zM6.217 13.6l.1.1v.71l-.1.1H4.64l-.1-.1v-.71l.1-.1h1.577zm6.07 0l.1.1v.71l-.1.1h-1.498l-.1-.1v-.71l.1-.1h1.498zm-2.996 0l.1.1v.71l-.1.1H7.714l-.1-.1v-.71l.1-.1h1.577zm-3.074-1.968l.1.1v.709l-.1.1H4.64l-.1-.1v-.71l.1-.1h1.577zm3.074 0l.1.1v.709l-.1.1H7.714l-.1-.1v-.71l.1-.1h1.577zm2.996 0l.1.1v.709l-.1.1h-1.498l-.1-.1v-.71l.1-.1h1.498zm3.073 0l.1.1v.709l-.1.1h-1.497l-.1-.1v-.71l.1-.1h1.497zm-6.07-1.89l.1.1v.709l-.1.1H7.715l-.1-.1v-.709l.1-.1h1.577zm2.997 0l.1.1v.709l-.1.1h-1.498l-.1-.1v-.709l.1-.1h1.498zm3.073 0l.1.1v.709l-.1.1h-1.497l-.1-.1v-.709l.1-.1h1.497zm-9.206-6.64h-.99V4.16a.45.45 0 01-.368.441l-.08.007h-1.51a.308.308 0 00-.299.236l-.008.07v1.799h14.203v-1.8a.306.306 0 00-.236-.297l-.07-.008h-1.51a.45.45 0 01-.442-.368l-.007-.08V3.102h-.99V4.16a.45.45 0 01-.368.441l-.081.007H6.603a.45.45 0 01-.442-.368l-.007-.08V3.102zM4.994 4.9l.1.1v.332h1.062V5l.1-.1h.71l.1.1v.787a.457.457 0 01-.374.448l-.081.007H4.64a.455.455 0 01-.448-.373l-.007-.082V5l.1-.1h.709zm8.828 0l.1.1v.332h.983V5l.1-.1h.71l.1.1v.787a.457.457 0 01-.374.448l-.081.007h-1.892a.455.455 0 01-.447-.373l-.008-.082V5l.1-.1h.71z"></path></g></svg>