<svg width="18" height="20" viewBox="0 0 18 20" fill="none" xmlns="http://www.w3.org/2000/svg">
<path fill-rule="evenodd" clip-rule="evenodd" d="M7.47745 15.5542C8.65608 15.5542 9.61386 16.5488 9.61386 17.7758C9.61386 18.3657 9.38878 18.9314 8.98812 19.3486C8.58746 19.7657 8.04406 20 7.47745 20C6.91084 20 6.36743 19.7657 5.96677 19.3486C5.56612 18.9314 5.34103 18.3657 5.34103 17.7758C5.34167 17.1864 5.56704 16.6213 5.96762 16.2047C6.36821 15.7882 6.91125 15.5542 7.47745 15.5542ZM14.9561 15.5542C16.1347 15.5542 17.0925 16.5488 17.0925 17.7758C17.0925 18.3657 16.8674 18.9314 16.4668 19.3486C16.0661 19.7657 15.5227 20 14.9561 20C14.3895 20 13.8461 19.7657 13.4454 19.3486C13.0448 18.9314 12.8197 18.3657 12.8197 17.7758C12.8203 17.1864 13.0457 16.6213 13.4463 16.2047C13.8469 15.7882 14.3899 15.5542 14.9561 15.5542ZM7.47865 16.665C6.88933 16.665 6.41044 17.1648 6.41044 17.7758C6.42346 18.0617 6.54169 18.3313 6.74059 18.5288C6.93949 18.7263 7.20379 18.8364 7.47865 18.8364C7.7535 18.8364 8.01781 18.7263 8.21671 18.5288C8.41561 18.3313 8.53384 18.0617 8.54685 17.7758C8.54685 17.1636 8.06676 16.6638 7.47865 16.6638V16.665ZM14.9561 16.665C14.368 16.665 13.8879 17.1648 13.8879 17.7758C13.9009 18.0617 14.0191 18.3313 14.218 18.5288C14.4169 18.7263 14.6812 18.8364 14.9561 18.8364C15.2309 18.8364 15.4953 18.7263 15.6942 18.5288C15.8931 18.3313 16.0113 18.0617 16.0243 17.7758C16.0243 17.1636 15.5442 16.6638 14.9561 16.6638V16.665ZM1.60231 0C2.45447 0 3.23463 0.684743 3.37385 1.55942L3.47947 2.22167H16.5584C16.9953 2.22167 17.401 2.41035 17.6686 2.74022C17.9375 3.0676 18.0515 3.51493 17.9783 3.96476L17.2617 8.43684C17.1249 9.29152 16.3688 10.0162 15.5406 10.0925L4.89455 11.0546L5.1586 12.699C5.21141 13.0364 5.54867 13.3325 5.87514 13.3325H16.5584C16.6999 13.3325 16.8356 13.391 16.9356 13.4952C17.0357 13.5993 17.0919 13.7406 17.0919 13.8879C17.0919 14.0352 17.0357 14.1765 16.9356 14.2807C16.8356 14.3848 16.6999 14.4433 16.5584 14.4433H5.87634C5.45323 14.4355 5.0457 14.2758 4.72268 13.9912C4.39966 13.7066 4.18097 13.3145 4.10359 12.8814L2.31885 1.74435C2.28287 1.57157 2.19316 1.41597 2.06361 1.30166C1.93407 1.18735 1.77192 1.12072 1.60231 1.11208H0.534103C0.39245 1.11208 0.256599 1.0535 0.156435 0.949222C0.0562714 0.844944 0 0.703513 0 0.556042C0 0.40857 0.0562714 0.267139 0.156435 0.162861C0.256599 0.0585826 0.39245 0 0.534103 0H1.60231ZM16.5572 3.33125H3.65591L4.71811 9.95502L15.4482 8.98538C15.7891 8.95289 16.1503 8.60677 16.2067 8.2544L16.9245 3.78108C16.9358 3.72481 16.9353 3.66666 16.9231 3.6106C16.9109 3.55453 16.8872 3.50187 16.8537 3.4562C16.8161 3.41402 16.77 3.38096 16.7188 3.35936C16.6676 3.33777 16.6124 3.32817 16.5572 3.33125Z" fill="white"/>
</svg>
