<svg xmlns="http://www.w3.org/2000/svg" width="20" height="20" viewBox="0 0 20 20"><path d="M10.895 1.037c.745 0 1.35.605 1.35 1.35l-.001.444h3.122c.746 0 1.35.605 1.35 1.35v.892c0 .583-.37 1.08-.888 1.269v11.27a1.35 1.35 0 01-1.35 1.35H5.522a1.35 1.35 0 01-1.35-1.35V6.343a1.35 1.35 0 01-.888-1.27v-.89c0-.746.604-1.35 1.35-1.35h3.12l.001-.445c0-.745.605-1.35 1.35-1.35h1.79zm4.032 5.395H5.072v11.18c0 .221.16.405.37.443l.08.008h8.956a.45.45 0 00.442-.37l.008-.08-.001-11.18zm-7.618.896c.221 0 .405.16.443.37l.007.08v8.94a.45.45 0 01-.892.08l-.008-.08v-8.94a.45.45 0 01.45-.45zm2.691 0c.22 0 .405.16.443.37l.007.08v8.94a.45.45 0 01-.893.08l-.007-.08v-8.94a.45.45 0 01.45-.45zm2.69 0c.221 0 .405.16.443.37l.008.08v8.94a.45.45 0 01-.893.08l-.007-.08v-8.94a.45.45 0 01.45-.45zm2.676-3.596H4.634a.45.45 0 00-.443.369l-.007.08v.892c0 .22.16.404.369.442l.08.008h10.733a.45.45 0 00.443-.37l.007-.08v-.891a.45.45 0 00-.369-.443l-.08-.007zm-4.471-1.795h-1.79a.45.45 0 00-.443.37l-.007.08v.441h2.689v-.44a.45.45 0 00-.368-.443l-.081-.008z"></path></svg>