<svg width="27" height="27" viewBox="0 0 27 27" fill="none" xmlns="http://www.w3.org/2000/svg">
<path d="M13.0144 0.963867C14.3846 0.963867 15.2594 2.34627 15.7751 5.09217L15.8831 5.72397C15.9101 5.89272 15.9358 6.06552 15.9601 6.24237L18.9206 6.24372C19.3256 6.24372 19.6699 6.52182 19.7657 6.90387L19.7887 7.03482L20.5109 14.7838H19.2595L18.5791 7.48842H16.1045L16.1059 7.50192L16.1761 8.29167L16.2355 9.12462L16.2611 9.55797C16.2648 9.71933 16.2056 9.87578 16.096 9.99432C15.9865 10.1129 15.8352 10.1842 15.674 10.1933C15.5129 10.2024 15.3545 10.1486 15.2323 10.0431C15.1101 9.9377 15.0337 9.78891 15.0191 9.62817L14.9638 8.77767L14.8976 7.98117C14.8829 7.81592 14.8672 7.65077 14.8504 7.48572H11.3134L11.2756 7.96767L11.2283 8.76417C11.2148 9.03822 11.2013 9.32172 11.1919 9.61332C11.1918 9.69673 11.1749 9.77927 11.1422 9.85603C11.1096 9.93279 11.0618 10.0022 11.0018 10.0601C10.9418 10.1181 10.8708 10.1634 10.7929 10.1933C10.715 10.2232 10.632 10.2372 10.5486 10.2344C10.4652 10.2316 10.3833 10.2121 10.3076 10.177C10.2319 10.1419 10.1641 10.0919 10.1081 10.0301C10.0521 9.96822 10.0092 9.89575 9.98174 9.81697C9.95433 9.73819 9.94303 9.6547 9.94852 9.57147L9.98362 8.71422L10.0295 7.90152L10.0606 7.48707H7.69537L6.43582 20.3026H13.8608V21.5473L5.95252 21.546C5.74253 21.5278 5.54613 21.4345 5.39934 21.2833C5.25255 21.132 5.1652 20.9329 5.15332 20.7225L5.15737 20.5915L6.48982 7.02942C6.5088 6.8369 6.59125 6.65616 6.7242 6.51564C6.85715 6.37511 7.03305 6.28278 7.22422 6.25317L7.35652 6.24237H10.1767L10.1969 6.06552C10.2239 5.83872 10.2536 5.62002 10.286 5.40942L10.3873 4.79787C10.853 2.24772 11.6887 0.963867 13.0144 0.963867ZM13.0144 2.20857C12.4015 2.20857 11.8601 3.32907 11.5226 5.58762L11.4403 6.20322L11.4349 6.24372H14.6965L14.6938 6.21132L14.5952 5.59572C14.2064 3.33177 13.6354 2.20857 13.0144 2.20857Z" fill="black"/>
<path d="M23.3711 17.342C23.3604 17.221 23.3146 17.1058 23.2393 17.0106C23.164 16.9154 23.0624 16.8443 22.9472 16.806L13.5202 13.6497C13.4103 13.6127 13.2923 13.6072 13.1795 13.6336C13.0667 13.6601 12.9635 13.7175 12.8815 13.7995C12.7995 13.8814 12.7421 13.9846 12.7157 14.0975C12.6892 14.2103 12.6948 14.3283 12.7318 14.4381L15.8881 23.8652C15.9262 23.9805 15.9972 24.0822 16.0924 24.1576C16.1876 24.2331 16.3028 24.279 16.4238 24.2898C16.5448 24.3005 16.6663 24.2756 16.7733 24.2182C16.8803 24.1607 16.9682 24.0732 17.0261 23.9664L18.2749 21.6768L20.632 24.0191C20.6897 24.0767 20.7583 24.1225 20.8337 24.1536C20.9092 24.1848 20.99 24.2007 21.0717 24.2006C21.1533 24.2005 21.2341 24.1843 21.3094 24.1529C21.3848 24.1215 21.4532 24.0756 21.5108 24.0177L23.0998 22.4288C23.1575 22.3711 23.2033 22.3026 23.2346 22.2272C23.2659 22.1518 23.282 22.071 23.282 21.9893C23.282 21.9077 23.2659 21.8269 23.2346 21.7515C23.2033 21.6761 23.1575 21.6076 23.0998 21.5499L20.7589 19.1928L23.0485 17.9441C23.1551 17.8861 23.2424 17.7982 23.2998 17.6912C23.3571 17.5843 23.3819 17.4629 23.3711 17.342ZM19.4345 18.4962C19.3496 18.5424 19.2765 18.6076 19.2212 18.6869C19.1659 18.7662 19.1298 18.8572 19.1158 18.9528C19.1018 19.0485 19.1102 19.1461 19.1405 19.2379C19.1707 19.3297 19.2219 19.4132 19.2901 19.4817L21.7795 21.9873L21.0694 22.6974L18.5651 20.208C18.4966 20.1398 18.4132 20.0886 18.3215 20.0582C18.2297 20.0279 18.1322 20.0193 18.0366 20.0332C17.9409 20.047 17.8499 20.083 17.7706 20.1382C17.6912 20.1934 17.6259 20.2663 17.5796 20.3511L16.6171 22.1156L14.3099 15.2279L21.1976 17.535L19.4345 18.4962Z" fill="black"/>
</svg>