<?xml version="1.0" encoding="UTF-8"?>
<svg xmlns="http://www.w3.org/2000/svg" xmlns:xlink="http://www.w3.org/1999/xlink" width="95px" height="90px" viewBox="0 0 95 90">
  <title>Group 4</title>
  <desc>Created with Sketch.</desc>
  <defs></defs>
  <g id="↳-Desktop/Mobile-·-Product-·-Detail-·-Shapes/Sizes-🔶-" stroke="none" stroke-width="1" fill="none" fill-rule="evenodd">
    <g id="SILH-neubau-product-desktop-optical-sizes-overlay" transform="translate(-521.000000, -1070.000000)">
      <g id="sizes-overlay" transform="translate(475.000000, 896.000000)">
        <g id="Group-4" transform="translate(46.000000, 174.000000)">
          <path d="M12.5,70.5 L12.5,88.6107703" id="Line" stroke="#1C1C1B" stroke-linecap="square"></path>
          <path d="M80.5,70.5 L80.5,88.6107703" id="Line-Copy" stroke="#1C1C1B" stroke-linecap="square"></path>
          <path d="M12.5,83.5 L80.5,83.5" id="Line-2" stroke="#1C1C1B" stroke-linecap="square"></path>
          <g id="Page-1" fill="#191918">
            <path d="M82.8998606,10.048237 C83.562252,10.3821584 84.2041993,10.8264784 84.9088421,10.9900318 C86.0359979,11.2496728 87.2513574,11.5921147 88.3516421,11.4179964 C90.3999757,11.0938509 91.9657312,10.8847456 93.0489085,10.7906806 L93.0489065,10.7906576 C93.5991331,10.7428749 94.0839155,11.1501863 94.1316981,11.700413 C94.1341967,11.7291847 94.1354477,11.7580511 94.1354477,11.7869311 L94.1354926,17.948522 C94.1354926,18.4618211 93.7468796,18.89177 93.2361917,18.9434795 C91.777178,19.0912112 90.5937693,19.3063347 89.6859656,19.5888501 C87.2224476,20.3555153 86.3269867,21.9160782 87.143391,24.3884599 C87.3123962,24.9002457 87.2367528,25.5176596 87.1774646,26.0764669 C86.5702725,31.8355899 84.6137644,37.2280807 82.6006941,42.5960385 C80.7920655,47.4188184 78.411,51.9301654 75.2939439,56.0639768 C70.6408484,62.2326646 64.4530764,65.699996 56.9098552,67.0206895 C51.9589561,67.8861594 46.9889758,68.2773245 41.9965069,67.783257 C36.4022976,67.2299015 30.9205313,66.0748058 25.8183453,63.6017426 C19.1317353,60.36066 14.5808606,55.0887899 11.7745561,48.2972363 C9.04048769,41.6815026 7.13986037,34.7986317 5.50364444,27.8367101 C5.13496772,26.2686422 4.58024895,24.7428255 4.07187032,23.2101942 C3.5559955,21.6537113 2.64486652,20.3936689 1.1681152,19.5970277 C0.385103082,19.1745149 -0.00606224059,18.518257 7.10135979e-05,17.6221208 C0.0171078308,14.9943634 0.0102931039,12.3672874 0.0518629379,9.74021147 C0.0641294463,8.97423653 0.271297143,8.34251165 1.21445534,8.10058896 C9.11204233,6.08002341 16.9864592,3.96882203 24.8922239,1.98301156 C30.2117997,0.645962785 35.6397297,0.0421782713 42.2704589,0.0196896834 C55.9333048,-0.306054106 69.7631116,3.42568855 82.8998606,10.048237 Z M32.1355818,4.06354668 C30.3991902,4.24822569 28.6757466,4.63325758 26.9720657,5.03600775 C16.1128036,7.60379561 12.8151588,13.9592069 11.9776293,22.5961876 C11.7404769,25.0447178 12.0103399,27.553899 12.1800266,30.0255993 C12.5132665,34.8824528 13.2601602,39.6732035 14.8036952,44.3126674 C17.9568678,53.790585 24.23868,59.9694949 33.9469353,62.6258742 C41.6380324,64.7295794 49.3550254,64.8502 57.1783281,63.4531816 C65.7860056,61.9171429 71.6650676,57.1161701 74.9470385,49.080248 C76.6663933,44.8701118 78.3032899,40.6259019 79.9572233,36.3891882 C80.4819571,35.0432803 81.2458876,33.6966909 81.3651452,32.3051243 C81.6309195,29.1921586 81.7556289,26.038986 81.579809,22.9219314 C81.3160792,18.2381718 79.1244641,14.4825776 75.2182645,11.8405093 C73.6038565,10.7487906 71.9110792,9.73612263 70.1528805,8.90063752 C61.5111294,4.79612947 52.2901269,3.44272536 41.3756655,3.27099433 C39.2528791,3.44749567 35.6867342,3.68464805 32.1355818,4.06354668 Z" id="Fill-1"></path>
          </g>
        </g>
      </g>
    </g>
  </g>
</svg>