<svg width="36" height="15" viewBox="0 0 36 15" fill="none" xmlns="http://www.w3.org/2000/svg">
<circle cx="27.5" cy="7.5" r="7.2" stroke="black" stroke-width="0.6"/>
<circle cx="8.5" cy="7.5" r="7.2" stroke="black" stroke-width="0.6"/>
<path d="M15 4.50003C17.1768 3.6966 18.3377 3.72933 20.5 4.50003" stroke="black" stroke-width="0.8" stroke-linecap="round"/>
<path d="M35.0397 4.41094C35.3148 4.38687 35.5183 4.14436 35.4942 3.86926C35.4701 3.59417 35.2276 3.39068 34.9525 3.41474L35.0397 4.41094ZM34.9525 3.41474L33.9563 3.5019L34.0435 4.49809L35.0397 4.41094L34.9525 3.41474Z" fill="black"/>
<path d="M0.956422 4.41094C0.681331 4.38687 0.477835 4.14436 0.501903 3.86926C0.52597 3.59417 0.768486 3.39068 1.04358 3.41474L0.956422 4.41094ZM1.04358 3.41474L2.03977 3.5019L1.95262 4.49809L0.956422 4.41094L1.04358 3.41474Z" fill="black"/>
</svg>
