<svg width="36" height="11" viewBox="0 0 36 11" fill="none" xmlns="http://www.w3.org/2000/svg">
<path d="M31.5176 0.296384C31.1195 0.205664 30.7205 0.136112 30.3187 0.090752C29.7837 0.0302722 29.2486 3.26002e-05 28.7136 3.26002e-05C27.821 -0.00165693 26.9294 0.0623267 26.0447 0.191552C25.1824 0.315536 24.3458 0.511087 23.5505 0.778206C23.0403 0.954606 22.5576 1.16024 22.0878 1.40316C21.744 1.5846 21.4333 1.78419 21.1391 2.01401C20.912 2.20049 20.7382 2.35875 20.5875 2.52305C20.4027 2.72667 20.2537 2.95649 20.1351 3.21454C20.0561 3.38892 20.0092 3.58548 20 3.77196V3.90804C20 3.9786 20.0009 4.04109 20.0046 4.10964L20.023 4.34148L20.0377 4.49268C20.0854 4.9637 20.1709 5.42918 20.2933 5.88371C20.4135 6.34077 20.5807 6.78139 20.7916 7.19713C21.162 7.92915 21.6486 8.58284 22.2285 9.12745C22.8043 9.67495 23.4513 10.1254 24.1481 10.4641C24.5219 10.644 24.9095 10.787 25.3065 10.8914C25.72 10.996 26.1465 11.0253 26.5687 10.9781C26.9255 10.9356 27.2787 10.8625 27.6251 10.7594C28.4677 10.5055 29.2797 10.1424 30.0439 9.67781C30.5036 9.40373 30.9448 9.09382 31.364 8.75046C31.9157 8.29887 32.4213 7.78681 32.8718 7.21931C33.3168 6.65094 33.7149 6.04039 34.0614 5.39483L34.1864 5.15392L34.4034 4.70536C34.4775 4.55032 34.5456 4.39192 34.6075 4.2306L34.6958 3.98364C34.7267 3.90181 34.7549 3.81876 34.7803 3.73466L34.8502 3.49476L34.921 3.19236L34.9394 3.09962L34.9734 2.89299L34.9918 2.75993C35.0027 2.61132 35.0027 2.46199 34.9918 2.31339C34.9729 2.14377 34.9078 1.98432 34.8052 1.85576C34.7132 1.74387 34.6038 1.64105 34.476 1.53924C34.3933 1.47085 34.3067 1.40824 34.2168 1.35176L34.0853 1.27313C33.736 1.06145 33.3747 0.885054 33.0179 0.755023C32.7762 0.657247 32.5279 0.570559 32.2806 0.495967L31.9101 0.395167L31.5176 0.296384ZM31.7584 1.13302C32.1086 1.21978 32.4531 1.33157 32.79 1.46768C33.0336 1.55739 33.2772 1.66827 33.5199 1.80132L33.7635 1.94244C33.8701 2.00045 33.9716 2.06894 34.0669 2.14707C34.1466 2.20811 34.2205 2.27766 34.2876 2.35471C34.2949 2.3644 34.3008 2.37529 34.305 2.38697C34.3119 2.48255 34.3129 2.57853 34.3078 2.67425L34.2784 2.86577L34.2508 3.01495L34.2094 3.19438L34.1653 3.3617L34.0927 3.59959L34.055 3.70644C33.975 3.94029 33.8895 4.15097 33.792 4.35559L33.5843 4.786L33.4675 5.0118C33.1457 5.61256 32.7697 6.18813 32.3505 6.72539C31.9331 7.24955 31.4643 7.72532 30.9503 8.14566C30.5798 8.45209 30.1689 8.73836 29.7111 9.01556C28.9942 9.45132 28.2325 9.79174 27.4421 10.0296C27.1259 10.1234 26.8096 10.1889 26.4989 10.2262C26.1403 10.2635 25.7928 10.2413 25.4655 10.1556C25.1152 10.0649 24.7641 9.93385 24.4267 9.77257C23.7922 9.46403 23.2032 9.05364 22.679 8.5549C22.1601 8.06751 21.7249 7.48242 21.3937 6.8272C21.208 6.46081 21.0606 6.07263 20.9543 5.67002C20.8437 5.25828 20.7665 4.83664 20.7235 4.41002L20.7005 4.16205L20.6904 3.9786L20.6886 3.88788C20.684 3.77216 20.7061 3.65705 20.7529 3.55322C20.8349 3.37016 20.9436 3.20299 21.0747 3.0583C21.2222 2.90191 21.3795 2.75707 21.5454 2.62486C21.8114 2.41964 22.0925 2.23893 22.3857 2.08457C22.8297 1.856 23.2874 1.66067 23.7555 1.49993C24.5334 1.24145 25.3296 1.05433 26.1357 0.940494C26.9903 0.816211 27.8515 0.754586 28.7136 0.756031C29.2247 0.756031 29.7368 0.785263 30.248 0.842718C30.6258 0.886062 31.0018 0.950574 31.3769 1.03625L31.752 1.13101L31.8283 0.794334L31.7584 1.13201V1.13302Z" fill="black"/>
<path d="M4.48243 0.296384C4.8805 0.205664 5.2795 0.136112 5.68125 0.090752C6.21631 0.0302722 6.75137 3.26002e-05 7.28643 3.26002e-05C8.17896 -0.00165693 9.07058 0.0623267 9.9553 0.191552C10.8176 0.315536 11.6542 0.511087 12.4495 0.778206C12.9597 0.954606 13.4424 1.16024 13.9122 1.40316C14.256 1.5846 14.5667 1.78419 14.8609 2.01401C15.088 2.20049 15.2618 2.35875 15.4125 2.52305C15.5973 2.72667 15.7463 2.95649 15.8649 3.21454C15.9439 3.38892 15.9908 3.58548 16 3.77196V3.90804C16 3.9786 15.9991 4.04109 15.9954 4.10964L15.977 4.34148L15.9623 4.49268C15.9146 4.9637 15.8291 5.42918 15.7067 5.88371C15.5865 6.34077 15.4193 6.78139 15.2084 7.19713C14.838 7.92915 14.3514 8.58284 13.7715 9.12745C13.1957 9.67495 12.5487 10.1254 11.8519 10.4641C11.4781 10.644 11.0905 10.787 10.6935 10.8914C10.28 10.996 9.85351 11.0253 9.43127 10.9781C9.07449 10.9356 8.7213 10.8625 8.37494 10.7594C7.53234 10.5055 6.72035 10.1424 5.95614 9.67781C5.4964 9.40373 5.05521 9.09382 4.63596 8.75046C4.08435 8.29887 3.57871 7.78681 3.12823 7.21931C2.68323 6.65094 2.28512 6.04039 1.93859 5.39483L1.81356 5.15392L1.5966 4.70536C1.52252 4.55032 1.45443 4.39192 1.3925 4.2306L1.30424 3.98364C1.27327 3.90181 1.24506 3.81876 1.21966 3.73466L1.14979 3.49476L1.079 3.19236L1.06062 3.09962L1.0266 2.89299L1.00821 2.75993C0.997262 2.61132 0.997262 2.46199 1.00821 2.31339C1.02715 2.14377 1.09217 1.98432 1.19484 1.85576C1.28678 1.74387 1.39618 1.64105 1.52397 1.53924C1.60672 1.47085 1.69331 1.40824 1.78322 1.35176L1.91469 1.27313C2.26404 1.06145 2.62534 0.885054 2.98205 0.755023C3.22384 0.657247 3.47206 0.570559 3.71937 0.495967L4.08986 0.395167L4.48243 0.296384ZM4.24156 1.13302C3.89143 1.21978 3.54686 1.33157 3.21005 1.46768C2.96642 1.55739 2.7228 1.66827 2.48009 1.80132L2.23646 1.94244C2.1299 2.00045 2.02835 2.06894 1.93308 2.14707C1.85344 2.20811 1.77953 2.27766 1.71243 2.35471C1.70512 2.3644 1.69922 2.37529 1.69497 2.38697C1.68806 2.48255 1.68714 2.57853 1.69221 2.67425L1.72163 2.86577L1.74921 3.01495L1.79058 3.19438L1.83471 3.3617L1.90734 3.59959L1.94503 3.70644C2.02501 3.94029 2.11051 4.15097 2.20796 4.35559L2.41573 4.786L2.53249 5.0118C2.85426 5.61256 3.23028 6.18813 3.6495 6.72539C4.06688 7.24955 4.53575 7.72532 5.04966 8.14566C5.42016 8.45209 5.83111 8.73836 6.28894 9.01556C7.00578 9.45132 7.76748 9.79174 8.55789 10.0296C8.87414 10.1234 9.1904 10.1889 9.50114 10.2262C9.85968 10.2635 10.2072 10.2413 10.5345 10.1556C10.8848 10.0649 11.2359 9.93385 11.5733 9.77257C12.2078 9.46403 12.7968 9.05364 13.321 8.5549C13.8399 8.06751 14.2751 7.48242 14.6063 6.8272C14.792 6.46081 14.9394 6.07263 15.0457 5.67002C15.1563 5.25828 15.2335 4.83664 15.2765 4.41002L15.2995 4.16205L15.3096 3.9786L15.3114 3.88788C15.316 3.77216 15.2939 3.65705 15.2471 3.55322C15.1651 3.37016 15.0564 3.20299 14.9253 3.0583C14.7778 2.90191 14.6205 2.75707 14.4546 2.62486C14.1886 2.41964 13.9075 2.23893 13.6143 2.08457C13.1703 1.856 12.7126 1.66067 12.2445 1.49993C11.4666 1.24145 10.6704 1.05433 9.86428 0.940494C9.0097 0.816211 8.1485 0.754586 7.28643 0.756031C6.77528 0.756031 6.2632 0.785263 5.75204 0.842718C5.37419 0.886062 4.99818 0.950574 4.62309 1.03625L4.24799 1.13101L4.17169 0.794334L4.24156 1.13201V1.13302Z" fill="black"/>
<path d="M16 3.50003C17.781 2.6966 18.7308 2.72933 20.5 3.50003" stroke="black" stroke-width="0.7" stroke-linecap="round"/>
<path d="M0.956422 3.5019C0.681331 3.52597 0.477835 3.76849 0.501903 4.04358C0.52597 4.31867 0.768486 4.52216 1.04358 4.4981L0.956422 3.5019ZM1.04358 4.4981L2.03977 4.41094L1.95262 3.41475L0.956422 3.5019L1.04358 4.4981Z" fill="black"/>
<path d="M35.0397 3.5019C35.3148 3.52597 35.5183 3.76849 35.4942 4.04358C35.4701 4.31867 35.2276 4.52216 34.9525 4.4981L35.0397 3.5019ZM34.9525 4.4981L33.9563 4.41094L34.0435 3.41475L35.0397 3.5019L34.9525 4.4981Z" fill="black"/>
</svg>
