<svg width="33" height="12" viewBox="0 0 33 12" fill="none" xmlns="http://www.w3.org/2000/svg">
<path d="M6.22552 0.0294592L6.59818 0.0162944L7.29595 0.00110437C7.85341 -0.00395902 8.35718 0.00819307 8.84256 0.0416114L9.04806 0.0466749L9.46749 0.0638906L9.90992 0.0932581L10.3899 0.133765L10.9205 0.186424C11.4236 0.247185 11.899 0.323136 12.3544 0.415289L12.6933 0.488202L12.9464 0.548963C13.0346 0.570229 13.1089 0.58947 13.1772 0.608711L13.3674 0.665421L13.4601 0.695801C13.5828 0.736308 13.7047 0.78998 13.832 0.859855C13.957 0.93378 14.0582 1.01581 14.1272 1.10897C14.2432 1.24407 14.3215 1.42664 14.3496 1.62746C14.3649 1.74392 14.3749 1.8543 14.3757 1.95557L14.3718 2.09937C14.3718 2.29482 14.3626 2.49027 14.3435 2.67457C14.2867 3.38249 14.1976 4.08522 14.0766 4.77892C13.9589 5.47088 13.8184 6.15576 13.6557 6.83161C13.5445 7.29846 13.4348 7.71264 13.3152 8.1086C13.188 8.53471 13.0452 8.95243 12.8873 9.36027C12.8015 9.57293 12.7087 9.75825 12.6006 9.92737C12.4756 10.1228 12.3299 10.2818 12.1635 10.3983C11.9917 10.5198 11.8085 10.613 11.6083 10.6818C11.3275 10.7684 11.0443 10.8416 10.7595 10.9016C10.4827 10.9613 10.189 11.0099 9.89229 11.0484L9.07183 11.1416L8.67617 11.1801C7.62811 11.262 6.57841 11.3019 5.52852 11.2995C4.64124 11.2897 3.75452 11.2377 2.87007 11.1436C2.4878 11.1052 2.10671 11.0485 1.72757 10.9735C1.54478 10.9359 1.36378 10.8845 1.18545 10.8195C1.07806 10.7814 0.974363 10.7271 0.876435 10.6575C0.751314 10.5645 0.646875 10.4297 0.573555 10.2666C0.515952 10.1311 0.468198 9.9887 0.430933 9.84129L0.406396 9.71471C0.380367 9.59521 0.358365 9.47424 0.340452 9.35217L0.318216 9.17799C0.258406 8.73646 0.210866 8.2767 0.170993 7.75821C0.124986 7.18099 0.088947 6.62908 0.0621096 6.07717L0.04294 5.67007L0.0145689 4.91664C0.0069011 4.67765 0.00230035 4.44575 0 4.21992V3.40573L0.00383396 3.07357L0.00766788 2.91863C0.0153357 2.67052 0.0368057 2.41634 0.0728445 2.15304L0.113484 1.88671L0.39336 1.96772L0.118852 1.85937C0.142622 1.75405 0.172527 1.64974 0.215466 1.52822L0.263007 1.40062C0.344966 1.23886 0.457589 1.10827 0.589657 1.02188L0.793622 0.904413C0.999041 0.815887 1.20855 0.744854 1.42085 0.691751C1.7383 0.610736 2.07492 0.536811 2.4192 0.474025L2.94675 0.383897L3.60619 0.282629C4.47628 0.150484 5.35014 0.0660222 6.22552 0.0294592ZM8.82492 0.80112C8.0543 0.747448 7.24535 0.747447 6.24316 0.788967C5.38367 0.824714 4.52567 0.907487 3.67136 1.03707L2.75122 1.18189L2.49818 1.22644C2.16387 1.2872 1.83722 1.35809 1.52743 1.43809C1.35644 1.4786 1.17471 1.54139 1.00909 1.6062L0.847297 1.70139C0.826864 1.715 0.807366 1.73092 0.789021 1.74899L0.759883 1.78139L0.708509 1.93026L0.67247 2.06494L0.638731 2.2857C0.618274 2.43357 0.602922 2.58259 0.592724 2.7323L0.581989 2.94698L0.576622 3.24876L0.574322 3.48877L0.573555 3.88472C0.573555 4.53081 0.594258 5.20525 0.636431 6.02755C0.662502 6.56933 0.697774 7.11111 0.743781 7.67922C0.772152 8.05594 0.805124 8.39823 0.84423 8.72937L0.886403 9.05647C0.901739 9.20634 0.926276 9.35622 0.963081 9.53141C0.981484 9.63876 1.01676 9.75116 1.07043 9.88585C1.0919 9.93041 1.12027 9.96686 1.15554 9.99319C1.18121 10.0119 1.20786 10.0281 1.23529 10.0418L1.34571 10.0894C1.49293 10.1441 1.65242 10.1886 1.81498 10.2231C2.20527 10.298 2.57026 10.3537 2.91455 10.3871C3.78522 10.4796 4.65813 10.5306 5.53158 10.54C6.61275 10.54 7.64637 10.5016 8.64013 10.4216L9.02582 10.3841L9.83861 10.2919C10.1223 10.2555 10.403 10.2089 10.6683 10.1522C10.9474 10.0924 11.2204 10.0226 11.4696 9.9456C11.617 9.89462 11.7595 9.82157 11.8944 9.72787C11.9925 9.65901 12.0822 9.56078 12.162 9.43622C12.2417 9.31166 12.3123 9.1709 12.3782 9.00786C12.5178 8.64937 12.6489 8.26354 12.7808 7.82708C12.8958 7.44935 13.0001 7.0544 13.1082 6.60174C13.2585 5.98198 13.3919 5.32576 13.5161 4.6098C13.6043 4.09637 13.6748 3.58902 13.727 3.08673L13.773 2.58546C13.7837 2.4771 13.7906 2.36976 13.7945 2.25127L13.7983 2.06899C13.8039 1.96871 13.7993 1.86788 13.7845 1.76924C13.7782 1.72855 13.7614 1.69201 13.7369 1.66595C13.6978 1.61996 13.6529 1.58329 13.6043 1.55759C13.5115 1.50632 13.4159 1.46434 13.3183 1.43202L13.1013 1.36417L12.836 1.29328L12.5937 1.23657C12.0227 1.1091 11.4482 1.01114 10.8715 0.942895L10.2887 0.886185C10.115 0.870201 9.94119 0.856023 9.7673 0.843652L9.28499 0.815297C9.13168 0.808442 8.97831 0.803716 8.82492 0.80112Z" fill="black"/>
<path d="M26.5245 0.0294592L26.1518 0.0162944L25.454 0.00110437C24.8966 -0.00395902 24.3928 0.00819307 23.9074 0.0416114L23.7019 0.0466749L23.2825 0.0638906L22.8401 0.0932581L22.3601 0.133765L21.8295 0.186424C21.3264 0.247185 20.851 0.323136 20.3956 0.415289L20.0567 0.488202L19.8036 0.548963C19.7154 0.570229 19.6411 0.58947 19.5728 0.608711L19.3826 0.665421L19.2899 0.695801C19.1672 0.736308 19.0453 0.78998 18.918 0.859855C18.793 0.93378 18.6918 1.01581 18.6228 1.10897C18.5068 1.24407 18.4285 1.42664 18.4004 1.62746C18.3851 1.74392 18.3751 1.8543 18.3743 1.95557L18.3782 2.09937C18.3782 2.29482 18.3874 2.49027 18.4065 2.67457C18.4633 3.38249 18.5524 4.08522 18.6734 4.77892C18.7911 5.47088 18.9316 6.15576 19.0943 6.83161C19.2055 7.29846 19.3152 7.71264 19.4348 8.1086C19.562 8.53471 19.7048 8.95243 19.8627 9.36027C19.9485 9.57293 20.0413 9.75825 20.1494 9.92737C20.2744 10.1228 20.4201 10.2818 20.5865 10.3983C20.7583 10.5198 20.9415 10.613 21.1417 10.6818C21.4225 10.7684 21.7057 10.8416 21.9905 10.9016C22.2673 10.9613 22.561 11.0099 22.8577 11.0484L23.6782 11.1416L24.0738 11.1801C25.1219 11.262 26.1716 11.3019 27.2215 11.2995C28.1088 11.2897 28.9955 11.2377 29.8799 11.1436C30.2622 11.1052 30.6433 11.0485 31.0224 10.9735C31.2052 10.9359 31.3862 10.8845 31.5646 10.8195C31.6719 10.7814 31.7756 10.7271 31.8736 10.6575C31.9987 10.5645 32.1031 10.4297 32.1764 10.2666C32.234 10.1311 32.2818 9.9887 32.3191 9.84129L32.3436 9.71471C32.3696 9.59521 32.3916 9.47424 32.4095 9.35217L32.4318 9.17799C32.4916 8.73646 32.5391 8.2767 32.579 7.75821C32.625 7.18099 32.6611 6.62908 32.6879 6.07717L32.7071 5.67007L32.7354 4.91664C32.7431 4.67765 32.7477 4.44575 32.75 4.21992V3.40573L32.7462 3.07357L32.7423 2.91863C32.7347 2.67052 32.7132 2.41634 32.6772 2.15304L32.6365 1.88671L32.3566 1.96772L32.6311 1.85937C32.6074 1.75405 32.5775 1.64974 32.5345 1.52822L32.487 1.40062C32.405 1.23886 32.2924 1.10827 32.1603 1.02188L31.9564 0.904413C31.751 0.815887 31.5415 0.744854 31.3291 0.691751C31.0117 0.610736 30.6751 0.536811 30.3308 0.474025L29.8032 0.383897L29.1438 0.282629C28.2737 0.150484 27.3999 0.0660222 26.5245 0.0294592ZM23.9251 0.80112C24.6957 0.747448 25.5047 0.747447 26.5068 0.788967C27.3663 0.824714 28.2243 0.907487 29.0786 1.03707L29.9988 1.18189L30.2518 1.22644C30.5861 1.2872 30.9128 1.35809 31.2226 1.43809C31.3936 1.4786 31.5753 1.54139 31.7409 1.6062L31.9027 1.70139C31.9231 1.715 31.9426 1.73092 31.961 1.74899L31.9901 1.78139L32.0415 1.93026L32.0775 2.06494L32.1113 2.2857C32.1317 2.43357 32.1471 2.58259 32.1573 2.7323L32.168 2.94698L32.1734 3.24876L32.1757 3.48877L32.1764 3.88472C32.1764 4.53081 32.1557 5.20525 32.1136 6.02755C32.0875 6.56933 32.0522 7.11111 32.0062 7.67922C31.9778 8.05594 31.9449 8.39823 31.9058 8.72937L31.8636 9.05647C31.8483 9.20634 31.8237 9.35622 31.7869 9.53141C31.7685 9.63876 31.7332 9.75116 31.6796 9.88585C31.6581 9.93041 31.6297 9.96686 31.5945 9.99319C31.5688 10.0119 31.5421 10.0281 31.5147 10.0418L31.4043 10.0894C31.2571 10.1441 31.0976 10.1886 30.935 10.2231C30.5447 10.298 30.1797 10.3537 29.8355 10.3871C28.9648 10.4796 28.0919 10.5306 27.2184 10.54C26.1373 10.54 25.1036 10.5016 24.1099 10.4216L23.7242 10.3841L22.9114 10.2919C22.6277 10.2555 22.347 10.2089 22.0817 10.1522C21.8026 10.0924 21.5296 10.0226 21.2804 9.9456C21.133 9.89462 20.9905 9.82157 20.8556 9.72787C20.7575 9.65901 20.6678 9.56078 20.588 9.43622C20.5083 9.31166 20.4377 9.1709 20.3718 9.00786C20.2322 8.64937 20.1011 8.26354 19.9692 7.82708C19.8542 7.44935 19.7499 7.0544 19.6418 6.60174C19.4915 5.98198 19.3581 5.32576 19.2339 4.6098C19.1457 4.09637 19.0752 3.58902 19.023 3.08673L18.977 2.58546C18.9663 2.4771 18.9594 2.36976 18.9555 2.25127L18.9517 2.06899C18.9461 1.96871 18.9507 1.86788 18.9655 1.76924C18.9718 1.72855 18.9886 1.69201 19.0131 1.66595C19.0522 1.61996 19.0971 1.58329 19.1457 1.55759C19.2385 1.50632 19.3341 1.46434 19.4317 1.43202L19.6487 1.36417L19.914 1.29328L20.1563 1.23657C20.7273 1.1091 21.3018 1.01114 21.8785 0.942895L22.4613 0.886185C22.635 0.870201 22.8088 0.856023 22.9827 0.843652L23.465 0.815297C23.6183 0.808442 23.7717 0.803716 23.9251 0.80112Z" fill="black"/>
<path d="M14 2H19L18.5791 3H14.3458L14 2Z" fill="black"/>
</svg>
