<svg width="42" height="50" viewBox="0 0 42 50" fill="none" xmlns="http://www.w3.org/2000/svg"><g filter="url(#filter0_d_346_20)"><path d="M21 41.9998C21 42.0542 37 30.3268 37 18.3265C37 9.3096 29.8366 2 21 2C12.1634 2 5 9.3096 5 18.3265C5 30.5532 21 41.9998 21 41.9998Z" fill="black"/><path d="M21.3813 41.0951C21.2322 41.2106 21.1058 41.3066 21.0047 41.3822C20.9011 41.3046 20.7712 41.2062 20.6175 41.0879C20.1852 40.755 19.5659 40.2647 18.8222 39.6379C17.334 38.3837 15.351 36.586 13.3696 34.4114C9.38474 30.0381 5.5 24.2413 5.5 18.3265C5.5 9.57618 12.4491 2.5 21 2.5C29.5509 2.5 36.5 9.57618 36.5 18.3265C36.5 24.1275 32.6163 29.9374 28.6291 34.3484C26.6471 36.541 24.6637 38.3617 23.1755 39.6309C22.4318 40.2653 21.8129 40.7608 21.3813 41.0951Z" stroke="black"/></g><path d="M28 15L23.1016 14.3628L21 10L18.898 14.3628L14 15L17.6011 18.2637L16.6719 22.999L21 20.6738L25.3291 22.999L24.3984 18.2637L28 15Z" fill="white"/><defs><filter id="filter0_d_346_20" x="0" y="0" width="42" height="50" filterUnits="userSpaceOnUse" color-interpolation-filters="sRGB"><feFlood flood-opacity="0" result="BackgroundImageFix"/><feColorMatrix in="SourceAlpha" type="matrix" values="0 0 0 0 0 0 0 0 0 0 0 0 0 0 0 0 0 0 127 0" result="hardAlpha"/><feOffset dy="3"/><feGaussianBlur stdDeviation="2.5"/><feComposite in2="hardAlpha" operator="out"/><feColorMatrix type="matrix" values="0 0 0 0 0 0 0 0 0 0 0 0 0 0 0 0 0 0 0.1 0"/><feBlend mode="normal" in2="BackgroundImageFix" result="effect1_dropShadow_346_20"/><feBlend mode="normal" in="SourceGraphic" in2="effect1_dropShadow_346_20" result="shape"/></filter></defs></svg>