<svg xmlns="http://www.w3.org/2000/svg" width="20" height="20" viewBox="0 0 20 20"><g fill-rule="evenodd"><path fill-rule="nonzero" d="M10.398 14.803a.577.577 0 00-.795-.003.562.562 0 000 .795c.1.102.26.168.396.16.15 0 .294-.058.395-.158a.569.569 0 00.166-.4.569.569 0 00-.105-.327l-.057-.067zM10 4.243c-1.941 0-3.519 1.434-3.519 3.193 0 .23.204.418.455.418.252 0 .455-.188.455-.418 0-1.3 1.172-2.357 2.609-2.357s2.609 1.056 2.609 2.357c0 1.301-1.172 2.358-2.609 2.358a.447.447 0 00-.448.343l-.007.074v2.77l.007.08c.039.196.227.342.448.342.224 0 .41-.148.448-.342l.007-.075.041-2.382.205-.038.187-.04c1.541-.366 2.63-1.643 2.63-3.09 0-1.759-1.577-3.192-3.518-3.192z"></path><path d="M10 1a9 9 0 110 18 9 9 0 010-18zm0 1a8 8 0 100 16 8 8 0 000-16z"></path></g> </svg>