<svg xmlns="http://www.w3.org/2000/svg" width="20" height="20" viewBox="0 0 20 20"><g fill-rule="evenodd" transform="translate(5 1)"><path d="M5.123.943c2.302 0 4.176 1.865 4.176 4.157 0 1.955-3.111 6.343-4.176 7.789C4.058 11.444.947 7.056.947 5.1.947 2.808 2.82.943 5.123.943m0-.943C2.298 0 0 2.288 0 5.1c0 2.689 4.553 8.615 4.747 8.865l.376.487.376-.487c.485-.63 4.747-6.234 4.747-8.865 0-2.812-2.298-5.1-5.123-5.1"></path><path d="M5.123 3.642c.986 0 1.788.799 1.788 1.78s-.802 1.78-1.788 1.78-1.788-.799-1.788-1.78.802-1.78 1.788-1.78m0 4.503a2.732 2.732 0 002.735-2.723A2.732 2.732 0 005.123 2.7a2.733 2.733 0 00-2.736 2.723 2.732 2.732 0 002.736 2.723"></path><ellipse cx="4.972" cy="17.1" rx="4.068" ry="1"></ellipse></g></svg>