<svg xmlns="http://www.w3.org/2000/svg" viewBox="0 0 20 20"><g fill="currentColor" stroke="currentColor" style="&#10;    fill: white;&#10;    stroke: white;&#10;"><path d="M19.715 13.143c.138 0 .256.098.28.234l.005.051v3.429c0 .752-.584 1.376-1.334 1.425l-.094.003h-3.144a.286.286 0 01-.051-.567l.051-.004h3.144c.445 0 .811-.34.853-.775l.003-.082v-3.43c0-.157.129-.285.287-.285h0zm-19.43 0c.139 0 .257.098.282.234l.005.051v3.429c0 .446.34.811.774.853l.083.004h3.143a.286.286 0 01.051.567l-.051.004H1.429a1.429 1.429 0 01-1.426-1.334L0 16.857v-3.43c0-.157.128-.285.286-.285h0zM18.572 1.714c.757 0 1.376.59 1.425 1.334l.003.095V6.57a.286.286 0 01-.567.052l-.005-.052V3.143a.857.857 0 00-.774-.854l-.082-.003h-3.144a.286.286 0 01-.051-.568l.051-.004h3.144zm-14 0a.286.286 0 01.051.567l-.051.005H1.429a.857.857 0 00-.854.774l-.003.083V6.57a.286.286 0 01-.568.052L0 6.57V3.143c0-.758.59-1.377 1.334-1.426l.095-.003h3.143z" stroke-width=".25"/><g><path d="M12.022 14.761l.228-1.932c.327-.315.727-.824 1.173-1.683.173-.336.19-.904.19-1.14.172-.143.543-.51.665-1.048.029-.114.294-1.115-.122-1.662a.84.84 0 00-.543-.32v-.434c0-1.894-1.317-3.324-3.207-3.484-.446-.042-.804 0-.812 0-1.948.172-3.211 1.54-3.211 3.484v.438a.837.837 0 00-.543.32c-.417.547-.155 1.549-.126 1.653.122.552.496.918.665 1.061 0 .236.017.809.19 1.14.382.741.731 1.22 1.03 1.54l.244 2.054c0 .43-.622.888-1.178 1.036l-2.121.543.1.383 2.126-.556c.61-.16 1.473-.702 1.473-1.44l-.198-1.628c.169.122.304.193.408.244l.05.026c.215.114.788.379 1.44.379h.106c.651 0 1.224-.265 1.439-.38l.05-.025c.071-.037.164-.084.274-.151l-.181 1.561c0 .712.82 1.254 1.401 1.414l2.016.556.105-.38-2.015-.559c-.526-.143-1.116-.601-1.116-1.01zM9.632 3.446c.004 0 .332-.038.736 0h.005c1.704.143 2.848 1.384 2.848 3.093v.677l-.399.257-.013-.017-.013-.016a2.154 2.154 0 00-.117-.131L12.67 7.3l-.063-.05-.017-.014c-.025-.016-.05-.025-.076-.038l-.088-.025-.147-.03-.156-.024a5.218 5.218 0 00-.993-.034l-.231.021-.244.047-.047.012a.422.422 0 00-.143.08l-.021.021c-.013.012-.021.029-.033.046l-.051.08-.059.135c-.004.008-.008.021-.013.03a1.211 1.211 0 00-.273-.035h-.017a1.345 1.345 0 00-.274.034.29.29 0 01-.012-.034l-.06-.134-.05-.08-.033-.046-.022-.021c-.054-.05-.122-.072-.138-.08l-.05-.013-.232-.038-.232-.021a5.23 5.23 0 00-.993.034l-.16.025-.147.03-.089.025a.596.596 0 00-.075.033l-.017.013a.238.238 0 00-.063.05l-.009.004a.957.957 0 00-.118.131l-.012.017v.004l-.438-.282v-.64c.005-1.725 1.12-2.937 2.858-3.088h0zm1.132 4.263c0-.063-.05-.118-.11-.118-.033 0-.104 0-.164-.005l.034-.079.05-.089c.01-.008.013-.021.022-.03l.004-.008a.153.153 0 01.055-.028l.105-.026.147-.022.223-.02c.315-.022.635-.009.951.03l.223.037.131.034c.012.004.029.013.037.017l.013.008a.231.231 0 01.038.03l.009.008c.016.017.05.05.096.105l.013.017c.021.03.042.054.059.08l.017.029c.012.025.025.05.034.076l.012.05a.611.611 0 01.013.131l.004.118-.004.227-.009.114c-.004.05-.013.097-.022.147l-.012.059a.886.886 0 01-.08.198l-.016.029c-.017.03-.072.089-.093.114l-.012.013a.551.551 0 01-.114.08l-.025.012c-.034.017-.068.03-.101.043l-.043.012-.1.025-.17.021h-.028a1.825 1.825 0 01-.214 0l-.068-.008a1.792 1.792 0 01-.21-.038l-.06-.017a.751.751 0 01-.18-.076l-.009-.004s-.08-.034-.219-.16a1.218 1.218 0 01-.165-.185l-.066-.101-.06-.101a2.587 2.587 0 01-.188-.442l-.034-.11c-.004-.016-.009-.028-.009-.037l-.004-.021c0-.009-.004-.022-.004-.03.084.005.177.005.19.005.062.004.113-.047.113-.114h0zm-3.527.236a.73.73 0 01.013-.131l.012-.05a.308.308 0 01.034-.076l.017-.03c.017-.029.038-.054.059-.08l.013-.017c.03-.037.062-.072.096-.105l.009-.008a.231.231 0 01.038-.029l.013-.01c.012-.007.028-.011.037-.016l.13-.033.228-.038a4.73 4.73 0 01.951-.034l.219.021.143.021.11.025s.033.009.054.03l.008.008a.145.145 0 01.022.03l.05.088.034.08a3.438 3.438 0 01-.165.004c-.058 0-.109.05-.109.118 0 .063.05.118.11.118.012 0 .105 0 .189-.004 0 .008-.004.021-.004.028l-.005.022a.123.123 0 00-.008.038l-.034.11c-.05.151-.114.298-.189.442l-.059.1-.067.101c-.05.068-.105.131-.165.19-.13.117-.21.155-.218.16l-.009.004c-.058.03-.119.055-.18.076l-.06.016a1.65 1.65 0 01-.21.038l-.067.009a1.825 1.825 0 01-.215 0l-.198-.022a2.304 2.304 0 01-.105-.025l-.046-.012a1.103 1.103 0 01-.101-.043l-.026-.012a.778.778 0 01-.113-.08L7.46 8.96c-.022-.026-.076-.089-.093-.114l-.017-.03a.886.886 0 01-.08-.198l-.013-.058a1.55 1.55 0 01-.02-.148l-.01-.113-.004-.126.013-.228h0zm4.125 5.032l-.055.03c-.19.1-.69.332-1.254.332h-.105c-.564 0-1.065-.23-1.255-.332l-.054-.03c-.295-.15-.909-.466-1.713-2.015-.139-.27-.152-.846-.143-1.048l.004-.105-.089-.063c-.004-.004-.47-.336-.597-.897-.072-.252-.197-.984.059-1.317.093-.122.232-.181.425-.181h.08l.446.286a.513.513 0 00-.03.072l-.016.063h0a1.13 1.13 0 00-.022.164l-.003.223.004.135.008.122c.004.058.013.118.026.172l.016.063a.911.911 0 00.101.245l.022.033c.033.055.121.147.121.151l.017.018a.732.732 0 00.151.105l.03.016a.81.81 0 00.126.055l.05.017c.039.008.077.021.123.03l.055.008.168.017c.08.004.16.004.24-.004l.071-.009c.081-.008.162-.024.24-.046l.064-.017a.86.86 0 00.21-.089c.025-.012.117-.054.27-.193.066-.059.13-.13.192-.219l.051-.076.084-.138c.084-.153.153-.314.207-.48l.025-.08h.004l.025-.105c.004-.03.013-.059.017-.089V7.79a1.26 1.26 0 01.244-.03h.017c.093 0 .181.017.244.03v.01c.005.03.008.06.017.093l.017.08.009.025h0l.025.08c.054.164.121.328.206.48l.084.139.05.075c.063.088.127.16.193.22.148.13.236.176.27.188a.943.943 0 00.215.09l.063.016c.076.021.16.034.24.046l.072.009c.05.004.096.004.143.004.033 0 .063 0 .096-.004l.169-.018.05-.007a.811.811 0 00.122-.03l.05-.017a.949.949 0 00.127-.054l.03-.017a.63.63 0 00.15-.11l.018-.016c.044-.048.085-.099.122-.152l.021-.034c.042-.076.075-.16.1-.244l.017-.063c.013-.055.022-.113.026-.172l.008-.123.004-.134h0l-.004-.223a2.28 2.28 0 00-.016-.165l-.018-.067c-.004-.017-.016-.034-.021-.05l.476-.308h.017c.193 0 .333.06.425.181.253.333.126 1.065.054 1.33-.121.551-.589.884-.593.888l-.088.063.004.105c.008.202-.004.779-.143 1.049-.8 1.56-1.414 1.872-1.708 2.023h0z" stroke-width=".4"/><path d="M10.28 7.885l.017.08.009.025.025.08c.055.165.122.33.207.48l.084.14.05.076c.064.09.127.16.194.22.148.13.237.177.27.19.068.038.14.067.215.088l.064.017c.075.021.16.033.24.046l.072.009c.05.004.097.004.143.004.034 0 .064 0 .098-.004l.168-.017.05-.009a.744.744 0 00.123-.03l.05-.016a.841.841 0 00.127-.055l.03-.017a.632.632 0 00.152-.11l.017-.017c.004-.004.088-.096.121-.151l.022-.034c.042-.078.076-.16.101-.245l.017-.063a1.2 1.2 0 00.026-.173l.007-.122.005-.135-.005-.224a2.285 2.285 0 00-.016-.164l-.017-.067-.013-.026-.012-.025-.102-.178h0c-.004-.003-.004-.008-.008-.012l-.013-.017a2.159 2.159 0 00-.118-.131l-.008-.008-.063-.05-.017-.014c-.025-.016-.05-.025-.076-.037l-.089-.025-.147-.03-.156-.026a5.23 5.23 0 00-.996-.033l-.232.021-.245.046-.046.013a.423.423 0 00-.144.08l-.021.022c-.012.012-.02.028-.034.045l-.05.08-.06.136-.012.029a1.214 1.214 0 00-.274-.034h-.016a1.367 1.367 0 00-.275.034.29.29 0 01-.012-.034l-.06-.135-.05-.08-.034-.046-.021-.021c-.055-.05-.122-.072-.14-.08l-.05-.013L9.12 7.1l-.232-.022a5.241 5.241 0 00-.995.035l-.16.025-.148.03-.089.025a.597.597 0 00-.076.033l-.017.013a.239.239 0 00-.063.05l-.008.005a.96.96 0 00-.118.13l-.005.01-.008.012-.101.181a.515.515 0 00-.03.072l-.017.063c-.012.043-.021.16-.021.165l-.004.223.005.135.008.122c.004.06.012.119.025.173l.017.064a.89.89 0 00.101.245l.022.033c.033.055.121.148.121.152l.018.017a.737.737 0 00.151.105l.03.018c.038.021.08.037.126.054l.05.017c.039.009.077.022.123.03l.055.008.169.017c.08.004.16.004.24-.004l.072-.009c.081-.008.161-.024.24-.046l.064-.017a.853.853 0 00.21-.088c.026-.013.119-.055.27-.195a1.26 1.26 0 00.195-.219l.05-.076.085-.14a2.66 2.66 0 00.206-.48l.026-.08h.004l.025-.106c.004-.029.013-.059.017-.088v-.013c.08-.017.163-.027.245-.029h.016c.093 0 .182.017.245.029v.013c.009.03.013.06.021.093h0zm.371-.072c.064.005.115-.046.115-.114 0-.063-.051-.118-.11-.118-.034 0-.106 0-.165-.005l.033-.08.051-.088c.009-.008.013-.021.022-.03l.004-.008c.025-.021.054-.03.054-.03l.106-.025.148-.021.223-.021c.316-.021.637-.009.954.03l.223.037.131.035c.013.004.026.01.038.016l.012.009a.232.232 0 01.039.029l.008.009c.017.017.05.05.097.105l.013.017c.021.03.042.055.058.08l.018.03c.012.025.025.05.033.075l.013.051a.684.684 0 01.012.131l.005.118-.005.228-.008.114c-.004.05-.012.097-.021.147l-.013.06a.888.888 0 01-.08.197l-.017.03c-.017.03-.071.088-.093.114l-.012.012a.552.552 0 01-.114.08l-.025.013c-.034.018-.068.03-.102.043l-.042.012-.101.026-.169.021h-.03a1.828 1.828 0 01-.214 0l-.068-.009a1.831 1.831 0 01-.21-.038l-.06-.017a.753.753 0 01-.181-.076l-.009-.004s-.08-.033-.219-.16a1.22 1.22 0 01-.164-.186l-.068-.1-.06-.102a2.593 2.593 0 01-.189-.444l-.033-.108c-.005-.018-.009-.03-.009-.039l-.004-.02c0-.01-.005-.022-.005-.03.085.004.178.004.19.004h0zm-1.105.034l-.004.021a.117.117 0 00-.009.038l-.033.11c-.05.151-.115.299-.19.443l-.06.1-.066.101c-.05.068-.105.132-.165.19a.95.95 0 01-.22.161l-.008.004c-.058.03-.119.055-.181.076l-.059.017c-.07.017-.14.03-.211.038l-.067.008a1.828 1.828 0 01-.216 0l-.198-.021a3.98 3.98 0 01-.105-.025l-.047-.013a1.03 1.03 0 01-.101-.042L7.58 9.04a.78.78 0 01-.115-.08l-.012-.008a2.166 2.166 0 01-.093-.114l-.016-.03a.888.888 0 01-.08-.198l-.013-.06a1.554 1.554 0 01-.022-.146l-.008-.115-.004-.126.013-.227c0-.056.008-.11.012-.131l.013-.05a.3.3 0 01.034-.077l.017-.03c.016-.03.038-.054.058-.08l.013-.017a.895.895 0 01.097-.105l.008-.008a.232.232 0 01.038-.03l.013-.008c.013-.009.03-.013.038-.018l.131-.033.228-.038a4.744 4.744 0 01.953-.034l.22.022.143.02.11.026s.033.008.054.03l.009.007.021.03.05.089.034.08a3.438 3.438 0 01-.165.004c-.058 0-.11.05-.11.118 0 .064.052.118.11.118.013 0 .106 0 .19-.003 0 .007-.004.02-.004.028h0z" stroke-width=".25"/><path stroke-width=".7" d="M13.488 7.152l-.702.467"/><path stroke-width=".7" d="M7.218 7.556l-.637-.404"/></g></g></svg>