<svg width="20" height="17" viewBox="0 0 20 17" fill="none" xmlns="http://www.w3.org/2000/svg">
<path d="M10.9811 1.06986C11.9774 0.381311 13.1245 0 14.2208 0C17.4047 0 20 2.44514 20 5.45905C20 6.99435 19.4708 8.56166 18.4377 10.1162C17.6425 11.314 16.5453 12.5092 15.1755 13.6732C14.1818 14.5144 13.1286 15.2872 12.0236 15.9858C11.5315 16.3017 11.0267 16.5985 10.5104 16.8755C10.3538 16.9572 10.1788 17 10.0009 17C9.82312 17 9.64808 16.9572 9.49151 16.8755C9.17453 16.7109 8.63679 16.4037 7.97736 15.9858C6.87237 15.2875 5.81917 14.515 4.82547 13.6741C3.45755 12.511 2.35943 11.315 1.56132 10.1171C0.530188 8.56166 0 6.99527 0 5.45905C0 2.44514 2.59528 0 5.77925 0C6.87547 0 8.02264 0.381311 9.01887 1.06986C9.37543 1.31549 9.70429 1.59686 10 1.9093C10.2956 1.59646 10.6245 1.31478 10.9811 1.06895V1.06986ZM14.4292 12.8493C15.7226 11.7484 16.7519 10.6273 17.4858 9.52179C18.4066 8.13645 18.8679 6.77032 18.8679 5.45997C18.8679 3.0578 16.7859 1.0973 14.2208 1.0973C13.3689 1.0973 12.4491 1.40271 11.6387 1.96233C11.1837 2.27313 10.7871 2.65727 10.466 3.09803L10 3.75458L9.53396 3.09803C9.21341 2.65689 8.8167 2.27268 8.36132 1.96233C7.55094 1.40271 6.63113 1.0973 5.77925 1.0973C3.21321 1.0973 1.13208 3.0578 1.13208 5.45905C1.13208 6.77215 1.5934 8.13737 2.51321 9.52179C3.25094 10.6301 4.27924 11.7502 5.5717 12.8493C7.22264 14.253 8.89245 15.3155 10.0009 15.8953C11.1085 15.3155 12.7792 14.253 14.4292 12.8493Z" fill="black"/>
</svg>
