<svg width="31" height="35" viewBox="0 0 31 35" fill="none" xmlns="http://www.w3.org/2000/svg">
<path fill-rule="evenodd" clip-rule="evenodd" d="M10.3853 27.4427C12.0223 27.4427 13.3526 28.686 13.3526 30.2198C13.3526 30.9572 13.04 31.6643 12.4835 32.1857C11.927 32.7071 11.1723 33 10.3853 33C9.59838 33 8.84365 32.7071 8.28719 32.1857C7.73072 31.6643 7.4181 30.9572 7.4181 30.2198C7.41899 29.483 7.732 28.7766 8.28837 28.2559C8.84474 27.7352 9.59896 27.4427 10.3853 27.4427ZM20.7724 27.4427C22.4093 27.4427 23.7396 28.686 23.7396 30.2198C23.7396 30.9572 23.427 31.6643 22.8705 32.1857C22.314 32.7071 21.5593 33 20.7724 33C19.9854 33 19.2307 32.7071 18.6742 32.1857C18.1177 31.6643 17.8051 30.9572 17.8051 30.2198C17.806 29.483 18.119 28.7766 18.6754 28.2559C19.2317 27.7352 19.986 27.4427 20.7724 27.4427ZM10.387 28.8313C9.56852 28.8313 8.90339 29.456 8.90339 30.2198C8.92147 30.5771 9.08568 30.9141 9.36193 31.161C9.63818 31.4078 10.0053 31.5455 10.387 31.5455C10.7688 31.5455 11.1358 31.4078 11.4121 31.161C11.6883 30.9141 11.8526 30.5771 11.8706 30.2198C11.8706 29.4545 11.2038 28.8297 10.387 28.8297V28.8313ZM20.7724 28.8313C19.9555 28.8313 19.2887 29.456 19.2887 30.2198C19.3068 30.5771 19.471 30.9141 19.7473 31.161C20.0235 31.4078 20.3906 31.5455 20.7724 31.5455C21.1541 31.5455 21.5212 31.4078 21.7974 31.161C22.0737 30.9141 22.2379 30.5771 22.256 30.2198C22.256 29.4545 21.5892 28.8297 20.7724 28.8297V28.8313ZM2.22543 8C3.40899 8 4.49254 8.85593 4.68591 9.94927L4.8326 10.7771H22.9978C23.6046 10.7771 24.168 11.0129 24.5398 11.4253C24.9132 11.8345 25.0715 12.3937 24.9698 12.956L23.9746 18.546C23.7846 19.6144 22.7344 20.5203 21.5842 20.6156L6.79798 21.8183L7.16472 23.8737C7.23807 24.2955 7.70649 24.6656 8.15991 24.6656H22.9978C23.1943 24.6656 23.3828 24.7388 23.5217 24.869C23.6607 24.9992 23.7388 25.1758 23.7388 25.3599C23.7388 25.544 23.6607 25.7206 23.5217 25.8508C23.3828 25.981 23.1943 26.0542 22.9978 26.0542H8.16158C7.57393 26.0444 7.00792 25.8447 6.55928 25.489C6.11064 25.1332 5.8069 24.6432 5.69944 24.1018L3.22062 10.1804C3.17065 9.96446 3.04605 9.76996 2.86613 9.62707C2.6862 9.48419 2.46101 9.4009 2.22543 9.3901H0.74181C0.54507 9.3901 0.356388 9.31688 0.217271 9.18653C0.0781548 9.05618 0 8.87939 0 8.69505C0 8.51071 0.0781548 8.33392 0.217271 8.20358C0.356388 8.07323 0.54507 8 0.74181 8H2.22543ZM22.9961 12.1641H5.07765L6.55294 20.4438L21.4558 19.2317C21.9292 19.1911 22.431 18.7585 22.5094 18.318L23.5062 12.7264C23.5219 12.656 23.5213 12.5833 23.5043 12.5132C23.4874 12.4432 23.4545 12.3773 23.4079 12.3203C23.3557 12.2675 23.2917 12.2262 23.2206 12.1992C23.1494 12.1722 23.0728 12.1602 22.9961 12.1641Z" fill="black"/>
<path d="M25.5 3L25.5 8M23 5.5H28" stroke="black"/>
<circle cx="25.5" cy="5.5" r="4" stroke="black"/>
</svg>
