<svg xmlns="http://www.w3.org/2000/svg" width="115" height="115" viewBox="0 0 115 115"><g><path d="M57.067 21.084h-.517a24.817 24.817 0 00-17.408 7.342c-4.542 4.555-7.118 10.557-7.29 16.947l-.008.468v.37c.034 2.648.997 6.133 2.765 10.3l.39.903.205.46.428.933c.147.315.297.633.452.954l.475.974c.08.164.163.329.246.494l.51 1.003.534 1.021.556 1.04.579 1.058a172.86 172.86 0 004.963 8.367 258.366 258.366 0 008.331 12.387l.738 1.03 1.054 1.451 1.326 1.796.763 1.013.644.844 1.208-1.585 1.145-1.526c.193-.259.387-.52.581-.784l1.176-1.607a243.79 243.79 0 009.01-13.284l.585-.936.58-.94.678-1.112.658-1.098.638-1.083.618-1.068.597-1.052c.196-.349.388-.695.577-1.038l.556-1.02.534-1.006.26-.496.501-.98a97.7 97.7 0 00.243-.483l.47-.955.225-.47.436-.928c.141-.306.279-.61.412-.91l.39-.89.186-.44.354-.863c.114-.284.224-.565.33-.843l.307-.825c1.03-2.85 1.614-5.337 1.698-7.397l.008-.292v-.554a24.88 24.88 0 00-7.328-17.379 24.81 24.81 0 00-16.901-7.301l-.468-.01zm-.265 1.636c12.869 0 23.335 10.482 23.335 23.367 0 2.414-.755 5.42-2.112 8.864l-.324.803c-.111.27-.226.543-.345.818l-.365.833c-.125.28-.254.562-.386.847l-.405.86-.425.875-.443.888-.463.9-.48.913-.498.925-.255.466-.524.942-.54.953-.556.962-.572.973-.588.983-.602.992-.617 1-.632 1.01-.645 1.016-.658 1.025-.671 1.031-.684 1.039-.695 1.044-1.066 1.578-.724 1.059-.734 1.063-1.121 1.603-.76 1.074-1.156 1.617-1.175 1.623-.794 1.085-1.32 1.787-1.323-1.79-.793-1.085-.786-1.083-1.163-1.62-1.143-1.612-.75-1.07-1.106-1.597-1.082-1.586-.708-1.05L47.253 76l-1.021-1.555-.665-1.028-.651-1.02-.321-.508-.631-1.009-.617-1-.603-.992-.587-.982-.572-.973-.557-.963-.54-.952-.523-.941-.507-.93-.488-.919c-.08-.152-.16-.303-.238-.455l-.462-.9a91.55 91.55 0 01-.224-.445l-.434-.88-.415-.869c-.203-.43-.398-.855-.586-1.275l-.365-.833-.345-.817c-1.56-3.781-2.435-7.066-2.435-9.667 0-12.885 10.467-23.367 23.336-23.367z"></path><path d="M56.784 34.937c-6.942 0-12.59 5.664-12.59 12.63 0 6.946 5.651 12.603 12.59 12.603s12.585-5.653 12.585-12.603c0-6.962-5.649-12.63-12.585-12.63zm0 1.676c6.025 0 10.927 4.916 10.927 10.954S62.809 58.52 56.784 58.52c-6.025 0-10.927-4.915-10.927-10.953 0-6.038 4.902-10.954 10.927-10.954z"></path></g></svg>