<svg width="16" height="16" viewBox="0 0 16 16" fill="none" xmlns="http://www.w3.org/2000/svg">
<path fill-rule="evenodd" clip-rule="evenodd" d="M4.98076 1.76318C5.31676 1.76318 5.59516 2.01598 5.63676 2.34078L5.64156 2.42318V2.96878H10.3584V2.42318C10.3584 2.11518 10.5712 1.85598 10.8568 1.78318L10.9368 1.76878L11.0192 1.76318H11.9256C12.2616 1.76318 12.5408 2.01598 12.5816 2.34078L12.5864 2.42318V2.96878H13.436C13.9 2.96878 14.2888 3.29918 14.3792 3.73678L14.3936 3.83278L14.3984 3.93038V13.2744C14.3984 13.772 14.0192 14.1824 13.5344 14.232L13.436 14.2368H2.56396C2.32581 14.2365 2.0962 14.148 1.91939 13.9885C1.74257 13.829 1.63107 13.6096 1.60636 13.3728L1.60156 13.2744V3.93038C1.60156 3.43358 1.98076 3.02318 2.46556 2.97358L2.56396 2.96878H3.41196L3.41356 2.42318C3.41356 2.11518 3.62556 1.85598 3.91196 1.78318L3.99196 1.76878L4.07436 1.76318H4.98076V1.76318ZM13.68 6.08798H2.31836V13.2744C2.31836 13.3896 2.39996 13.4872 2.50796 13.512L2.56396 13.5184H13.436C13.552 13.5184 13.6488 13.4384 13.6744 13.3304L13.6808 13.2744L13.68 6.08798ZM4.97356 10.88L5.05356 10.96V11.528L4.97356 11.608H3.71196L3.63196 11.528V10.96L3.71196 10.88H4.97356ZM9.82956 10.88L9.90956 10.96V11.528L9.82956 11.608H8.63116L8.55116 11.528V10.96L8.63116 10.88H9.82956ZM7.43276 10.88L7.51276 10.96V11.528L7.43276 11.608H6.17116L6.09116 11.528V10.96L6.17116 10.88H7.43276V10.88ZM4.97356 9.30558L5.05356 9.38558V9.95278L4.97356 10.0328H3.71196L3.63196 9.95278V9.38478L3.71196 9.30478H4.97356V9.30558ZM7.43276 9.30558L7.51276 9.38558V9.95278L7.43276 10.0328H6.17116L6.09116 9.95278V9.38478L6.17116 9.30478H7.43276V9.30558ZM9.82956 9.30558L9.90956 9.38558V9.95278L9.82956 10.0328H8.63116L8.55116 9.95278V9.38478L8.63116 9.30478H9.82956V9.30558ZM12.288 9.30558L12.368 9.38558V9.95278L12.288 10.0328H11.0904L11.0104 9.95278V9.38478L11.0904 9.30478H12.288V9.30558ZM7.43196 7.79358L7.51196 7.87358V8.44078L7.43196 8.52078H6.17196L6.09196 8.44078V7.87358L6.17196 7.79358H7.43356H7.43196ZM9.82956 7.79358L9.90956 7.87358V8.44078L9.82956 8.52078H8.63116L8.55116 8.44078V7.87358L8.63116 7.79358H9.82956ZM12.288 7.79358L12.368 7.87358V8.44078L12.288 8.52078H11.0904L11.0104 8.44078V7.87358L11.0904 7.79358H12.288ZM4.92316 2.48158H4.13116V3.32798C4.13089 3.41188 4.10132 3.49305 4.04757 3.55746C3.99382 3.62188 3.91925 3.6655 3.83676 3.68078L3.77276 3.68638H2.56476C2.50949 3.68647 2.45586 3.70513 2.41248 3.73937C2.36909 3.77361 2.33848 3.82145 2.32556 3.87518L2.31916 3.93118V5.37038H13.6816V3.93038C13.6814 3.87532 13.6627 3.82191 13.6284 3.7788C13.5942 3.73568 13.5464 3.70538 13.4928 3.69278L13.4368 3.68638H12.2288C12.1447 3.6863 12.0634 3.65681 11.9988 3.60305C11.9342 3.54928 11.8905 3.47461 11.8752 3.39198L11.8696 3.32798V2.48158H11.0776V3.32798C11.0773 3.41188 11.0477 3.49305 10.994 3.55746C10.9402 3.62188 10.8657 3.6655 10.7832 3.68078L10.7184 3.68638H5.28236C5.19833 3.6863 5.11697 3.65681 5.05239 3.60305C4.98781 3.54928 4.94407 3.47461 4.92876 3.39198L4.92316 3.32798V2.48158V2.48158ZM3.99516 3.91998L4.07516 3.99998V4.26558H4.92476V3.99998L5.00476 3.91998H5.57276L5.65276 3.99998V4.62958C5.6525 4.71484 5.62245 4.79732 5.56782 4.86276C5.51319 4.92821 5.4374 4.9725 5.35356 4.98798L5.28876 4.99358H3.71196C3.62674 4.99367 3.54419 4.96385 3.4787 4.90932C3.41321 4.85479 3.36892 4.77901 3.35356 4.69518L3.34796 4.62958V3.99998L3.42796 3.91998H3.99516V3.91998ZM11.0576 3.91998L11.1376 3.99998V4.26558H11.924V3.99998L12.004 3.91998H12.572L12.652 3.99998V4.62958C12.6517 4.71484 12.6217 4.79732 12.567 4.86276C12.5124 4.92821 12.4366 4.9725 12.3528 4.98798L12.288 4.99358H10.7744C10.6893 4.99348 10.6069 4.96358 10.5416 4.90906C10.4763 4.85455 10.4321 4.77887 10.4168 4.69518L10.4104 4.62958V3.99998L10.4904 3.91998H11.0584H11.0576Z" fill="black"/>
</svg>
