<svg xmlns="http://www.w3.org/2000/svg" width="100" height="100" viewBox="0 0 20 20"><path fill-rule="evenodd" d="M8.232 14.446c.982 0 1.78.796 1.78 1.778a1.78 1.78 0 01-3.56 0 1.78 1.78 0 011.78-1.778zm6.231 0c.982 0 1.78.796 1.78 1.778a1.78 1.78 0 01-3.56 0 1.78 1.78 0 011.78-1.778zm-6.23.889c-.491 0-.89.4-.89.889a.891.891 0 001.78 0c0-.49-.4-.89-.89-.89zm6.23 0c-.49 0-.89.4-.89.889a.891.891 0 001.78 0c0-.49-.4-.89-.89-.89zM3.337 1.998c.71 0 1.36.548 1.476 1.248l.088.53h10.897c.364 0 .702.151.925.415.224.262.319.62.258.98l-.597 3.579c-.114.684-.744 1.264-1.434 1.325l-8.87.77.22 1.316c.044.27.325.507.597.507h8.901a.444.444 0 110 .889h-8.9a1.53 1.53 0 01-1.477-1.25L3.934 3.394a.643.643 0 00-.597-.506h-.89a.445.445 0 110-.89zm12.46 2.666H5.048l.885 5.301 8.94-.776c.284-.026.585-.303.632-.585l.598-3.58a.32.32 0 00-.059-.26.314.314 0 00-.247-.1z"></path></svg>