<svg xmlns="http://www.w3.org/2000/svg" width="40" height="40" viewBox="0 0 40 40"><g fill-rule="evenodd"><path d="M30.587 12.777a.91.91 0 00-1.136-.115l-.141.115L16.798 25.29h-.434l-4.851-4.856-.145-.122a.907.907 0 00-1.152.105.906.906 0 00-.116 1.137l.116.141 5.71 5.712.128.11a.96.96 0 00.334.153l.17.021.168-.013a.892.892 0 00.347-.135l.146-.12L30.57 14.075l.11-.126a.898.898 0 00.17-.531.895.895 0 00-.15-.502l-.113-.138z"></path><path d="M20.1 2.01c9.99 0 18.09 8.1 18.09 18.09s-8.1 18.09-18.09 18.09S2.01 30.09 2.01 20.1 10.11 2.01 20.1 2.01zm0 2.01c-8.88 0-16.08 7.2-16.08 16.08 0 8.88 7.2 16.08 16.08 16.08 8.88 0 16.08-7.2 16.08-16.08 0-8.88-7.2-16.08-16.08-16.08z"></path></g></svg>