<svg width="100" height="100" viewBox="0 0 24 24" xmlns="http://www.w3.org/2000/svg"><g id="Page-1" stroke="none" stroke-width="1" fill="none" fill-rule="evenodd"><g id="Overlay-Konto-löschen" transform="translate(-298 -283)" fill="#000"><g id="Group-2" transform="translate(298 280)"><g id="icon_nicht_löschen" transform="translate(0 3)"><path d="M18.104 16.58L12.95 12l5.154-4.58a.633.633 0 00-.84-.945L12 11.155l-5.265-4.68a.632.632 0 10-.839.945L11.05 12l-5.154 4.58a.633.633 0 00.84.945L12 12.845l5.265 4.68a.631.631 0 10.839-.945" id="Fill-1"></path><path d="M12 1.263C6.08 1.263 1.263 6.08 1.263 12c0 5.922 4.817 10.737 10.737 10.737S22.737 17.922 22.737 12C22.737 6.08 17.92 1.263 12 1.263M12 24a11.924 11.924 0 01-8.486-3.514A11.916 11.916 0 010 12c0-3.206 1.248-6.218 3.514-8.486A11.918 11.918 0 0112 0a11.92 11.92 0 018.486 3.515A11.92 11.92 0 0124 12.001a11.92 11.92 0 01-3.514 8.485A11.922 11.922 0 0112 24" id="Fill-3"></path></g></g></g></g></svg>