<svg xmlns="http://www.w3.org/2000/svg" width="115" height="115" viewBox="0 0 115 115"><path d="M69.842 23.025l.217.004.218.015c2.012.18 3.386 1.64 3.578 3.612l.016.213.007.199.149 15.363-1.388 1.375-.164-16.727-.008-.156-.019-.188c-.165-1.356-1-2.208-2.409-2.28l-.196-.004h-40.75l-.156.006-.186.017c-1.28.143-2.115.91-2.25 2.212l-.016.19-.005.198v55.969l.004.227.011.246c.234 3.752 3.218 6.766 6.944 7.013l.25.012.244.004h42.403l.053-.128-1.392-1.37-.205-.208-.204-.221c-.86-.964-1.399-1.995-1.527-2.913l-.022-.21-.007-.204-.013-2.78-.307-31.271 1.388-1.375.068 6.84.075.073 11.67.04.18.004.212.014c1.962.174 3.416 1.547 3.601 3.581l.015.22.005.233v22.152l-.003.27-.01.28c-.219 4.727-3.271 8.117-7.512 8.368l-.255.012-.255.003h-.818l-.021.019-47.117.001-.245-.003-.26-.011c-4.476-.254-8.08-3.88-8.34-8.394l-.012-.261-.004-.265V27.076l.004-.214.014-.215c.174-2.051 1.625-3.433 3.588-3.604l.212-.014.198-.004h40.752zm4.413 35.18l-.075.075.06 6.056.074.074h10.834l.093.006.1.021c.294.085.51.363.51.688 0 .323-.213.6-.507.687l-.101.022-.1.006H74.33l-.075.076.068 6.678.075.074h10.75l.093.006.1.02c.294.085.51.364.51.689 0 .323-.213.6-.507.687l-.101.021-.1.007h-10.73l-.074.076.085 8.632.01 2.489.005.136.016.156c.317 2.294 4.107 4.938 7.437 4.938 3.789 0 6.404-2.91 6.614-6.978l.01-.267.004-.257-.005-.8V60.867l-.005-.198-.018-.206c-.095-.808-.483-1.435-1.114-1.821a2.71 2.71 0 00-1.058-.37l-.231-.023-.183-.007-11.65-.039zm-8.62 15.027l.099.006c.354.045.625.325.625.656s-.27.612-.625.656l-.099.006H32.971l-.099-.006c-.355-.044-.625-.325-.625-.656 0-.33.27-.611.625-.656l.099-.006h32.664zm0-9.221l.099.006c.354.044.625.325.625.656 0 .33-.27.61-.625.655l-.099.007H32.971l-.099-.007c-.355-.044-.625-.325-.625-.655 0-.331.27-.612.625-.656l.099-.006h32.664zm-17.466-8.198l.105.007c.38.044.666.327.666.655s-.287.611-.666.656l-.105.006H32.973l-.105-.006c-.379-.045-.666-.328-.666-.656s.287-.61.666-.655l.105-.007H48.17zm18.1-16.306l-.001 6.695-1.27-1.262v-4.158l-.075-.075h-8.694l-.075.075v14.996l.075.075h8.694l.075-.075v-3.322l1.27 1.262.001 3.33H54.877V39.507h11.392zm19.355-5.764l.958.967-18.344 18.164-7.069-7.019.959-.966 6.059 6.017h.105l17.332-17.163zM48.169 47.616l.105.006c.38.045.666.328.666.656s-.287.611-.666.656l-.105.006H32.973l-.105-.006c-.379-.045-.666-.328-.666-.656s.287-.61.666-.656l.105-.006H48.17zm0-8.197l.105.006c.38.045.666.328.666.656s-.287.611-.666.656l-.105.006H32.973l-.105-.006c-.379-.045-.666-.328-.666-.656s.287-.61.666-.656l.105-.006H48.17z"></path></svg>