<svg width="20" height="20" viewBox="0 0 20 20" fill="none" xmlns="http://www.w3.org/2000/svg">
<path d="M10.4422 15.3366C10.3235 15.2229 10.1656 15.1592 10.0012 15.1585C9.83679 15.1579 9.67844 15.2205 9.55885 15.3333C9.50083 15.3913 9.45481 15.4601 9.42341 15.5359C9.392 15.6117 9.37584 15.6929 9.37584 15.7749C9.37584 15.857 9.392 15.9382 9.42341 16.014C9.45481 16.0898 9.50083 16.1586 9.55885 16.2166C9.66997 16.3299 9.84774 16.4033 9.99885 16.3944C10.1655 16.3944 10.3255 16.3299 10.4377 16.2188C10.5554 16.1008 10.6217 15.9411 10.6222 15.7744C10.6217 15.6441 10.5809 15.5173 10.5055 15.411L10.4422 15.3366ZM9.99997 3.60327C7.8433 3.60327 6.08997 5.1966 6.08997 7.15105C6.08997 7.4066 6.31663 7.61549 6.59552 7.61549C6.87552 7.61549 7.10108 7.4066 7.10108 7.15105C7.10108 5.7066 8.4033 4.53216 9.99997 4.53216C11.5966 4.53216 12.8989 5.70549 12.8989 7.15105C12.8989 8.5966 11.5966 9.77105 9.99997 9.77105C9.88583 9.76767 9.77401 9.80373 9.68335 9.87314C9.59268 9.94256 9.52871 10.0411 9.50219 10.1522L9.49441 10.2344V13.3122L9.50219 13.401C9.54552 13.6188 9.75441 13.781 9.99997 13.781C10.2489 13.781 10.4555 13.6166 10.4977 13.401L10.5055 13.3177L10.5511 10.671L10.7789 10.6288L10.9866 10.5844C12.6989 10.1777 13.9089 8.75883 13.9089 7.15105C13.9089 5.1966 12.1566 3.60438 9.99997 3.60438V3.60327Z" fill="black"/>
<path d="M10 0C12.6522 0 15.1957 1.05357 17.0711 2.92893C18.9464 4.8043 20 7.34784 20 10C20 12.6522 18.9464 15.1957 17.0711 17.0711C15.1957 18.9464 12.6522 20 10 20C7.34784 20 4.8043 18.9464 2.92893 17.0711C1.05357 15.1957 0 12.6522 0 10C0 7.34784 1.05357 4.8043 2.92893 2.92893C4.8043 1.05357 7.34784 0 10 0ZM10 1.11111C7.64252 1.11111 5.3816 2.04762 3.71461 3.71461C2.04762 5.3816 1.11111 7.64252 1.11111 10C1.11111 12.3575 2.04762 14.6184 3.71461 16.2854C5.3816 17.9524 7.64252 18.8889 10 18.8889C12.3575 18.8889 14.6184 17.9524 16.2854 16.2854C17.9524 14.6184 18.8889 12.3575 18.8889 10C18.8889 7.64252 17.9524 5.3816 16.2854 3.71461C14.6184 2.04762 12.3575 1.11111 10 1.11111Z" fill="black"/>
</svg>
