<svg xmlns="http://www.w3.org/2000/svg" width="20" height="20" viewBox="0 0 20 20"><path d="M10 1.724c2.21 0 4.289.861 5.852 2.424A8.222 8.222 0 0118.276 10c0 2.21-.861 4.289-2.424 5.852A8.222 8.222 0 0110 18.276a8.223 8.223 0 01-5.852-2.424A8.222 8.222 0 011.724 10c0-2.21.861-4.289 2.424-5.852A8.222 8.222 0 0110 1.724zm0 .992a7.296 7.296 0 00-7.2 6.168l-.022.161.256.05.158.033c.768.173 1.179.376 1.34.704.134.272.102.544-.08.871l-.074.126-.055.083-.177.255-.114.182.015.139c.065.504-.032 1.045-.27 1.621l-.097.218-.07.141v.026l.09.159a7.29 7.29 0 006.02 3.626l.278.005c4.017 0 7.285-3.267 7.285-7.284 0-.814-.162-1.695-.457-2.514-.467-1.204-1.55-2.555-2.766-3.482l-.245-.18-.089-.06-.045-.03-.17-.113-.139-.076-.264-.133a7.171 7.171 0 00-3.109-.696zm-.51.62c.356 0 .706.082 1.12.263l.214.099.26.133.15.067c.16.066.31.102.475.116l.17.007.147-.003.366-.02h.305a1.174 1.174 0 01.333.055l.079.031.093.05.142.088.058.039.002-.002.108.08.133.107c.262.227.455.496.608.835l.074.176.036.098.132.382.116.326c.245.658.412.896.737 1.031l.084.032.327.108c.36.122.556.236.713.443l.066.094.048.085.033.118.001.116a1.2 1.2 0 01-.284.657c-.046.05-.099.104-.163.165l-.214.2-.752.675-.054.054c-.066.075-.093.158-.091.318l.004.106.01.108.038.373.013.168c.046.85-.185 1.494-.822 2.21a.801.801 0 00-.111.198l-.036.085-.199.517c-.178.444-.34.726-.575.985-.435.48-1.038.722-1.783.722-.295 0-.556-.148-.736-.41-.117-.172-.206-.4-.275-.696a7.132 7.132 0 01-.13-.832l-.042-.454-.086-1.048-.048-.503-.027-.23-.057-.413a6.834 6.834 0 00-.14-.683c-.182-.693-.433-1.064-.755-1.172a1.812 1.812 0 00-.588-.092 2.76 2.76 0 00-.214.009l-.125.011-.3.034-.193.018-.173.006c-.694 0-1.16-.366-1.505-1.155-.292-.667-.317-1.462-.075-2.234a3.58 3.58 0 011.433-1.92c.772-.51 1.35-.732 1.925-.732zm.001.99c-.359 0-.769.166-1.379.569-.987.651-1.413 1.972-.996 2.929.18.413.3.537.518.558l.077.003.135-.006.557-.059a3.68 3.68 0 01.316-.014c.315 0 .611.047.903.144.677.227 1.132.844 1.399 1.86.045.171.083.34.117.52l.063.383c.01.068.02.138.029.211l.053.48.026.273.117 1.387.03.295.03.24.033.208.025.127.05.207c.018.06.035.108.052.146l.022.046.012.005.077-.002c.667-.035.962-.281 1.301-1.126l.207-.532c.079-.187.15-.32.233-.43l.066-.08.105-.123c.406-.49.514-.844.456-1.537l-.033-.328c-.058-.635.023-.987.346-1.324l.095-.092.92-.832.033-.034-.37-.13c-.732-.25-1.08-.679-1.481-1.786l-.183-.518c-.191-.521-.308-.711-.512-.85a.653.653 0 00-.34-.121l-.174-.004-.194.011-.284.012-.228-.004a2.586 2.586 0 01-.97-.238l-.352-.177c-.376-.187-.652-.266-.907-.266zM2.717 10.04l.005.27c.026.604.126 1.197.297 1.771l.02.062.006-.026c.03-.158.038-.3.023-.43l-.039-.232c-.02-.23.05-.452.222-.73l.094-.144.215-.314-.066-.027a3.692 3.692 0 00-.417-.123l-.18-.04-.18-.037z"></path></svg>