<?xml version="1.0" encoding="UTF-8" standalone="no"?>
<!-- Created with Inkscape (http://www.inkscape.org/) -->

<svg
   version="1.1"
   id="svg2"
   width="102.45333"
   height="37.279999"
   viewBox="0 0 102.45333 37.279999"
   sodipodi:docname="SH_shapes.eps"
   xmlns:inkscape="http://www.inkscape.org/namespaces/inkscape"
   xmlns:sodipodi="http://sodipodi.sourceforge.net/DTD/sodipodi-0.dtd"
   xmlns="http://www.w3.org/2000/svg"
   xmlns:svg="http://www.w3.org/2000/svg">
  <defs
     id="defs6" />
  <sodipodi:namedview
     id="namedview4"
     pagecolor="#ffffff"
     bordercolor="#000000"
     borderopacity="0.25"
     inkscape:showpageshadow="2"
     inkscape:pageopacity="0.0"
     inkscape:pagecheckerboard="0"
     inkscape:deskcolor="#d1d1d1" />
  <g
     id="g8"
     inkscape:groupmode="layer"
     inkscape:label="ink_ext_XXXXXX"
     transform="matrix(1.3333333,0,0,-1.3333333,0,37.28)">
    <g
       id="g10"
       transform="scale(0.1)">
      <path
         d="m 382.293,129.297 4.203,3.5 -2.465,5.238 -17.117,24.801 15.742,23.758 1.375,3.836 -4.176,3.476 -4.902,-4.511 -12.582,-19.582 -12.601,19.582 -5.243,4.511 -3.836,-3.476 1.399,-3.836 15.406,-23.758 -16.805,-24.801 -2.464,-5.238 4.199,-3.164 4.543,3.504 15.066,22.718 16.418,-23.421 z m 378.793,147.117 -119.859,0.336 c -19.918,2.438 -39.5,2.801 -63.961,2.801 -38.075,0 -104.137,2.441 -130.7,-27.258 -17.457,-19.895 -28.632,-54.832 -28.632,-76.879 0,-49.617 -6.641,-89.4335 19.89,-116.0195 24.461,-24.457 56.285,-22.7226 91.586,-22.7226 15.356,0 29,0.3633 43.317,1.7656 l 188.359,-0.3633 v 27.6485 h 7.34 l -7.68,13.957 V 234.836 l 7.68,13.98 h -7.34 z m -33.563,-73.715 c -2.101,39.114 -24.796,58.696 -57.996,68.114 h 86.684 v -21.997 h -8.379 l 8.379,-13.98 V 80.0391 l -8.379,-14.3164 h 8.379 V 43.6758 H 605.563 c 13.308,3.4765 26.25,8.3789 39.167,15.0195 52.758,27.2852 84.895,108.3397 82.793,144.0037 M 279.555,11.8789 v 8.375 l -13.981,-8.375 H 42.6172 l -14.3203,8.375 v -8.375 H 6.27734 V 80.7422 C 9.44141,72.3633 13.9805,65.7227 20.957,58.6953 45.418,34.2344 76.8516,35.9727 112.18,35.9727 c 42.617,0 78.59,2.8007 115.656,22.0195 34.937,18.2109 60.797,60.1248 73.715,96.8008 V 11.8789 Z M 28.2969,-0.00390625 41.9141,8.03906 H 265.574 l 13.981,-8.04296625 V 7.67578 h 27.597 V 175.051 l 0.336,0.363 c 2.442,10.477 3.504,19.945 3.141,27.285 -4.176,69.176 -72.652,76.852 -150.594,76.852 -37.738,0 -104.1405,2.441 -130.6991,-27.258 -17.457,-19.895 -28.29684,-54.832 -28.29684,-76.879 0,-25.496 -2.10156,-47.855 -0.339841,-67.777 V 7.67578 H 28.2969 v -7.67968625"
         style="fill:#171717;fill-opacity:1;fill-rule:nonzero;stroke:none"
         id="path12" />
    </g>
  </g>
</svg>
