<svg xmlns="http://www.w3.org/2000/svg" width="20" height="20" viewBox="0 0 20 20"><path fill-rule="evenodd" d="M15.852 6.578l-.035-.036-2.425-2.423 1.071-1.07a.432.432 0 01.628 0l1.831 1.83c.095.095.095.19.095.274 0 .162 0 .26-.095.355l-1.07 1.07zM6.218 16.21L3.76 13.752l.036-.036 8.952-8.952.035.036 2.424 2.424-8.988 8.986zm-3.164.706l.344-2.235.07.07 1.821 1.822-.097.015-2.138.328zM14.786 2l-.047.001c-.331.012-.63.154-.84.399l-1.435 1.436-9.581 9.469a.965.965 0 00-.273.536l-.562 3.66a.519.519 0 00.148.358c.113.13.244.141.281.141h.08l3.664-.627c.2-.035.38-.129.523-.274l9.39-9.593 1.434-1.433c.244-.243.384-.55.384-.84 0-.341-.117-.642-.389-1.005l-1.827-1.825a1.351 1.351 0 00-.95-.403z"></path></svg>