<svg xmlns = "http://www.w3.org/2000/svg" width="55" height="55" viewbox = "0 0 55 55"><path d="M23.524 32.3c3.78-1.113 5.695-1.12 8.721-.024l.51.187.674.254c6.06 2.315 9.195 4.5 9.271 6.407v8.343l-.008.13a.706.706 0 01-.685.611c-.382 0-.694-.333-.694-.744l.008-8.437-.249-.378-.098-.138c-.939-1.2-3.928-2.807-8.222-4.432l-.946-.35c-2.85-1.035-4.482-1.039-7.92-.029-4.586 1.35-8.656 3.347-9.867 4.827l-.33.386v8.554l-.01.13a.706.706 0 01-.685.611c-.382 0-.694-.333-.694-.744v-8.407c.018-.713.279-1.205 1.06-1.973 1.582-1.554 4.626-3.056 9.048-4.444l1.116-.34zm4.303-25.533c4.37 0 7.12 2.026 8.16 5.518.37 1.273.555 2.55.528 3.715v-.106l.067.05a2.683 2.683 0 01.993 2.465l-.032.188-.047.185c-.245 1.194-.868 2.277-1.743 3.025l.046-.042-.108.36c-.087.277-.183.55-.287.822l-.162.404c-1.445 3.27-4.452 5.66-7.51 5.809l-.302.007h-.108c-3.08 0-6.678-2.903-7.718-6.197a8.774 8.774 0 01-.317-1.327l.015.08-.128-.096a4.422 4.422 0 01-1.581-2.587l-.04-.233c-.427-1.282.067-2.705 1.159-3.334l-.095.059.017-.377c.051-.809.178-1.61.38-2.397l.13-.47c1.171-3.643 3.575-5.341 8.21-5.51l.468-.011h.005zm-.051 1.403l-.316.008c-4.194.127-6.014 1.428-6.896 4.472a11.586 11.586 0 00-.45 2.764l-.01.475v.229l-.03.104-.065.108-.081.074-.219.11c-.708.343-1.032 1.18-.734 1.994a3.003 3.003 0 001.162 2.05l.223.161.183.187.056.146-.008.077c.12.54.246 1.027.37 1.42.838 2.652 3.704 5.061 6.163 5.208l.306.007c2.584 0 5.299-2.152 6.544-4.983a13.2 13.2 0 00.425-1.148l.114-.377.055-.21.087-.118.081-.05a4.376 4.376 0 001.421-2.42 1.244 1.244 0 00-.463-1.44l-.113-.067-.204-.098-.082-.073-.07-.109-.031-.107v-.234a13.718 13.718 0 00-.557-3.647c-.814-2.77-2.954-4.403-6.436-4.508l-.425-.005z"></path></svg>