<svg xmlns="http://www.w3.org/2000/svg" width="20" height="20" viewBox="0 0 20 20"><defs><filter id="print-a"><feColorMatrix in="SourceGraphic" values="0 0 0 0 0.000000 0 0 0 0 0.000000 0 0 0 0 0.000000 0 0 0 1.000000 0"></feColorMatrix></filter></defs><g fill="none" fill-rule="evenodd" filter="url(#print-a)"><g fill="#000" fill-rule="nonzero"><path d="M17.1 4.5c1 0 1.819.772 1.894 1.752L19 6.4v7.2a1.9 1.9 0 01-1.752 1.894l-.148.006h-1.6v-1h1.6a.9.9 0 00.893-.787L18 13.6V6.4a.9.9 0 00-.787-.893L17.1 5.5H2.9a.9.9 0 00-.893.787L2 6.4v7.2a.9.9 0 00.787.893l.113.007h1.6v1H2.9a1.9 1.9 0 01-1.894-1.752L1 13.6V6.4a1.9 1.9 0 011.752-1.894L2.9 4.5h14.2z"></path><path d="M14.6 1A1.4 1.4 0 0116 2.4v3.1H4V2.4A1.4 1.4 0 015.4 1h9.2zm0 1H5.4a.4.4 0 00-.392.32L5 2.4v2.1h10V2.4a.4.4 0 00-.32-.392L14.6 2zm1.9 9v6.6a1.4 1.4 0 01-1.4 1.4H4.9a1.4 1.4 0 01-1.4-1.4V11h13zm-1 1h-11v5.6a.4.4 0 00.32.392L4.9 18h10.2a.4.4 0 00.392-.32l.008-.08V12zm0-5.5a1.5 1.5 0 110 3 1.5 1.5 0 010-3zm0 1a.5.5 0 100 1 .5.5 0 000-1z"></path><path d="M14 16.3a.5.5 0 01.09.992L14 17.3H6a.5.5 0 01-.09-.992L6 16.3h8zm0-3.5a.5.5 0 01.09.992L14 13.8H6a.5.5 0 01-.09-.992L6 12.8h8zm0 1.75a.5.5 0 01.09.992l-.09.008H6a.5.5 0 01-.09-.992L6 14.55h8zM17 11a.5.5 0 01.09.992L17 12H3a.5.5 0 01-.09-.992L3 11h14z"></path></g></g></svg>