<svg width="20" height="26" viewBox="0 0 20 26" fill="none" xmlns="http://www.w3.org/2000/svg">
<path d="M10 5.83709V9.33934L15 4.66967L10 0V3.50225C4.475 3.50225 0 7.68161 0 12.8416C0 14.6744 0.575 16.3789 1.55 17.8148L3.375 16.1104C2.8125 15.1414 2.5 14.0207 2.5 12.8416C2.5 8.97744 5.8625 5.83709 10 5.83709ZM18.45 7.86839L16.625 9.57282C17.175 10.5535 17.5 11.6625 17.5 12.8416C17.5 16.7057 14.1375 19.8461 10 19.8461V16.3438L5 21.0135L10 25.6832V22.1809C15.525 22.1809 20 18.0016 20 12.8416C20 11.0087 19.425 9.30432 18.45 7.86839Z" fill="black"/>
</svg>
