<svg width="92" height="65" viewBox="0 0 92 65" fill="none" xmlns="http://www.w3.org/2000/svg">
<path d="M2.59507 61.5765C1.80881 62.3523 1.80034 63.6186 2.57615 64.4048C3.35196 65.1911 4.61826 65.1995 5.40451 64.4237L2.59507 61.5765ZM88.5951 64.4237C89.3813 65.1995 90.6476 65.1911 91.4234 64.4048C92.1992 63.6186 92.1908 62.3523 91.4045 61.5765L88.5951 64.4237ZM5.40451 64.4237L48.4045 21.9952L45.5951 19.1479L2.59507 61.5765L5.40451 64.4237ZM48.4045 21.9952L49.9971 20.4237L47.1877 17.5765L45.5951 19.1479L48.4045 21.9952ZM91.4045 61.5765L48.4045 19.1479L45.5951 21.9952L88.5951 64.4237L91.4045 61.5765ZM48.4045 19.1479L46.8119 17.5765L44.0025 20.4237L45.5951 21.9952L48.4045 19.1479ZM0 4.00024H91.9787V0.000244141H0V4.00024Z" fill="black"/>
</svg>
