<svg width="159" height="43" viewBox="0 0 159 43" xmlns="http://www.w3.org/2000/svg"><g fill="none" fill-rule="evenodd"><g><g><g fill="#000"><path d="M69.825 5.66c-4.334 0-7.014 2.875-6.872 7.26.17 4.925 3.793 7.545 8.298 7.545 2.367 0 4.42-.712 5.704-1.367l-1.027-2.847c-1.084.54-2.795 1.082-4.478 1.082-2.737 0-4.192-1.452-4.42-3.332h10.323c.03-4.441-2.51-8.342-7.528-8.342zm.03 2.847c1.624 0 2.993 1.195 3.25 2.96h-6.103c.086-1.68 1.14-2.96 2.852-2.96zm7.384-2.563h4.592l4.933 11.019h.171l-.314-2.62 1.683-8.399h4.163L88.475 20.18h-3.792L77.239 5.944zM97.571.25h-3.165c-.513.4-.827 1.054-.827 1.794 0 1.31 1.056 2.363 2.338 2.363 1.398 0 2.453-1.053 2.453-2.363 0-.74-.314-1.394-.799-1.794zm-3.136 5.695l1.74 14.236h3.992l-1.74-14.236h-3.992zM101.022.25h3.993l2.452 19.93h-3.992L101.022.25zm19.733 5.41c-4.96 0-7.471 4.185-6.045 8.342h10.01c.17 2.278-1.199 3.332-3.708 3.332-2.024 0-3.82-.684-4.59-1.082l-.343 2.932c1.283.684 3.193 1.282 5.475 1.282 4.676 0 6.957-2.506 6.957-6.577 0-4.954-3.364-8.229-7.756-8.229zm-.056 2.848c1.71 0 3.136 1.337 3.535 2.96h-6.217c-.142-1.736 1.056-2.96 2.682-2.96zm22.556-2.563h-4.134l-1.71 7.915.312 2.534h-.17l-4.82-10.449h-4.591l7.27 13.524.8 6.406h3.992l-.855-6.805 3.906-13.125zm7.386-.285c-4.963 0-7.471 4.185-6.046 8.342h10.01c.171 2.278-1.197 3.332-3.707 3.332-2.026 0-3.822-.684-4.592-1.082l-.342 2.932c1.283.684 3.195 1.282 5.475 1.282 4.678 0 6.959-2.506 6.959-6.577 0-4.954-3.365-8.229-7.757-8.229zm-.058 2.848c1.712 0 3.138 1.337 3.537 2.96h-6.216c-.143-1.736 1.054-2.96 2.68-2.96z"></path></g><g><path d="M20.84 5.547c-4.79 0-8.224 3.03-8.224 7.813 0 .877.08 1.754.32 2.71h20.44C31.62 9.214 26.35 5.547 20.84 5.547zm-4.87 9.088c-.24-.637-.32-1.355-.32-1.993 0-2.87 1.837-5.5 5.19-5.5 4.95 0 8.065 4.464 8.863 7.493H15.97zM1.597 23.963H31.38c.08.638.16 1.196.16 1.834 0 4.145-2.795 7.254-8.544 7.254-6.069 0-10.62-2.71-14.053-4.465l-1.357 11.72H9.66l1.837-7.495c2.475.878 6.468 1.994 10.54 1.994 7.825 0 12.536-3.27 12.536-9.885 0-.798-.08-1.675-.24-2.552H4.951c-1.198-2.71-1.677-5.5-1.677-8.051 0-6.219 3.114-11.56 7.905-13.872H7.905C3.753 2.28 0 8.178 0 15.592c0 2.63.48 5.5 1.597 8.37zm46.072-.08c0-9.327-4.87-19.053-13.015-23.438H31.22c8.864 5.341 12.776 14.031 12.776 24.395 0 6.935-2.316 12.117-6.308 15.466h3.034c3.514-2.632 6.947-8.212 6.947-16.423z" fill="#EE2737" mask="url(#mask-2)" transform="translate(0 1.25)"></path></g></g></g></g></svg>