<svg height="106" width="90" version="1.1" id="Layer_1" xmlns="http://www.w3.org/2000/svg" x="0" y="0" viewBox="0 0 90 106" xml:space="preserve"><g id="Product-Detail"><g id="E_Silh_ecom_Product-Detail_Overlay" transform="translate(-580 -535)"><g id="rimless" transform="translate(337 517)"><g id="glass-width"><path d="M90 118.9c-.5-.3-.9-.5-1.4-.8-5.5-3.3-10.4-7.3-14.5-11.8-6.5-7.2-11.5-15.6-14.8-24.9-1-2.6-1.7-5.2-2.4-7.8-.9-3.9-1.5-7.1-1.9-10.1-.4-3-.6-6.3-.5-10.1.1-2.9.5-5.6 1.2-8.4.7-2.6 1.7-5.2 3.1-7.8 2.6-4.5 6-8.3 10.2-11.3 4.2-3.1 8.7-5.6 13.5-7.6 2.5-1 5-1.9 7.5-2.7v-1c-2.6.8-5.3 1.7-7.9 2.8-4.9 2-9.5 4.6-13.7 7.8-3.1 2.3-5.8 5-8.1 8.1 0-.1 0-.1.1-.2.1-.2.1-.3.2-.5l-4.1-2.8c-3.9-2.6-8.5-4.1-12.5-4.1s-8.7 1.6-12.7 4.2l-3.9 2.7c-2.2-2.8-4.7-5.3-7.6-7.4-4.2-3.1-8.8-5.7-13.7-7.8-2.1-.9-4.2-1.6-6.3-2.3v.9c2 .7 3.9 1.4 5.9 2.2 4.8 2 9.3 4.6 13.5 7.6 3.6 2.6 6.6 5.8 9 9.5v.1c.4.6.7 1.2 1.1 1.8 1.5 2.6 2.5 5.2 3.2 7.8.7 2.8 1.1 5.5 1.2 8.4.1 3.8-.1 7.1-.5 10.1s-1 6.2-1.9 10c-.7 2.7-1.4 5.3-2.4 7.9-3.3 9.4-8.3 17.7-14.8 24.9-4 4.5-8.8 8.4-14.3 11.7v1.2c.1-.1.2-.1.4-.2 5.6-3.3 10.6-7.4 14.7-12 6.6-7.3 11.6-15.8 15-25.3 1-2.6 1.7-5.3 2.4-8 .9-3.9 1.6-7.1 1.9-10.1.5-3.1.6-6.4.5-10.3-.1-2.9-.5-5.7-1.2-8.6-.7-2.7-1.7-5.3-3.3-8-.4-.6-.8-1.3-1.2-1.9l1.5-1.2c4-3.5 8.2-5.2 13.3-5.2 5.1.1 9.6 1.9 13.7 5.7l1.2 1c-.4.5-.7 1.1-1 1.7-1.5 2.7-2.6 5.3-3.2 8-.7 2.9-1.1 5.7-1.2 8.6-.1 3.8.1 7.2.5 10.3.4 3 1 6.2 1.9 10.2.7 2.7 1.4 5.3 2.4 7.9 3.4 9.5 8.4 18 15 25.3 4.1 4.6 9.1 8.7 14.7 12 .6.4 1.3.7 1.9 1.1v-1.3z" transform="translate(243 4)"></path></g></g></g></g></svg>