<svg width="512" height="512" viewBox="0 0 512 512" fill="none" xmlns="http://www.w3.org/2000/svg">
<path opacity="0.997" fill-rule="evenodd" clip-rule="evenodd" d="M255.5 55.5002C255.5 122.167 255.5 188.833 255.5 255.5C255.167 255.5 254.833 255.5 254.5 255.5C254.5 255.167 254.5 254.833 254.5 254.5C221.247 196.996 188.247 139.33 155.5 81.5002C186.412 63.7717 219.745 55.105 255.5 55.5002Z" fill="#A0CE49"/>
<path opacity="0.996" fill-rule="evenodd" clip-rule="evenodd" d="M255.5 55.5002C291.255 55.105 324.588 63.7717 355.5 81.5002C322.765 139.302 289.765 196.969 256.5 254.5C256.5 254.833 256.5 255.167 256.5 255.5C256.167 255.5 255.833 255.5 255.5 255.5C255.5 188.833 255.5 122.167 255.5 55.5002Z" fill="#FEE403"/>
<path opacity="0.997" fill-rule="evenodd" clip-rule="evenodd" d="M155.5 81.5C188.247 139.33 221.247 196.996 254.5 254.5C196.698 221.765 139.031 188.765 81.5 155.5C99.8333 124.5 124.5 99.8333 155.5 81.5Z" fill="#01AE5C"/>
<path opacity="0.997" fill-rule="evenodd" clip-rule="evenodd" d="M355.5 81.5C386.5 99.8333 411.167 124.5 429.5 155.5C371.969 188.765 314.302 221.765 256.5 254.5C289.765 196.969 322.765 139.302 355.5 81.5Z" fill="#FCA313"/>
<path opacity="0.997" fill-rule="evenodd" clip-rule="evenodd" d="M81.5012 155.5C139.032 188.765 196.699 221.765 254.501 254.5C254.501 254.833 254.501 255.167 254.501 255.5C188.168 255.5 121.834 255.5 55.5012 255.5C55.106 219.745 63.7727 186.412 81.5012 155.5Z" fill="#019A84"/>
<path opacity="0.997" fill-rule="evenodd" clip-rule="evenodd" d="M429.5 155.5C447.229 186.412 455.895 219.745 455.5 255.5C389.5 255.5 323.5 255.5 257.5 255.5C257.167 255.5 256.833 255.5 256.5 255.5C256.5 255.167 256.5 254.833 256.5 254.5C314.302 221.765 371.969 188.765 429.5 155.5Z" fill="#F97826"/>
<path opacity="0.997" fill-rule="evenodd" clip-rule="evenodd" d="M55.5012 255.5C121.834 255.5 188.168 255.5 254.501 255.5C254.501 255.833 254.501 256.167 254.501 256.5C196.671 289.247 139.005 322.247 81.5012 355.5C63.7727 324.588 55.106 291.255 55.5012 255.5Z" fill="#2655AA"/>
<path opacity="0.997" fill-rule="evenodd" clip-rule="evenodd" d="M257.5 255.5C323.5 255.5 389.5 255.5 455.5 255.5C455.895 291.255 447.229 324.588 429.5 355.5C371.804 322.657 314.47 289.323 257.5 255.5Z" fill="#F35442"/>
<path opacity="0.996" fill-rule="evenodd" clip-rule="evenodd" d="M254.5 255.5C254.833 255.5 255.167 255.5 255.5 255.5C255.5 255.833 255.5 256.167 255.5 256.5C255.5 322.833 255.5 389.167 255.5 455.5C219.745 455.895 186.412 447.229 155.5 429.5C188.235 371.698 221.235 314.031 254.5 256.5C254.5 256.167 254.5 255.833 254.5 255.5Z" fill="#A13CA1"/>
<path opacity="0.997" fill-rule="evenodd" clip-rule="evenodd" d="M255.5 256.5C289.588 313.668 322.921 371.335 355.5 429.5C324.588 447.229 291.255 455.895 255.5 455.5C255.5 389.167 255.5 322.833 255.5 256.5Z" fill="#AF2E78"/>
<path opacity="0.997" fill-rule="evenodd" clip-rule="evenodd" d="M254.5 256.5C221.235 314.031 188.235 371.698 155.5 429.5C124.5 411.167 99.8333 386.5 81.5 355.5C139.004 322.247 196.67 289.247 254.5 256.5Z" fill="#7843A3"/>
<path opacity="0.996" fill-rule="evenodd" clip-rule="evenodd" d="M255.5 256.5C255.5 256.167 255.5 255.833 255.5 255.5C255.833 255.5 256.167 255.5 256.5 255.5C256.833 255.5 257.167 255.5 257.5 255.5C314.47 289.323 371.804 322.657 429.5 355.5C411.167 386.5 386.5 411.167 355.5 429.5C322.921 371.335 289.588 313.668 255.5 256.5Z" fill="#DC3242"/>
<line x1="181.718" y1="257.282" x2="247.718" y2="323.282" stroke="black" stroke-width="19"/>
<line x1="235.031" y1="323.544" x2="361.031" y2="187.544" stroke="black" stroke-width="19"/>
</svg>
