<?xml version="1.0" encoding="UTF-8"?>
<!DOCTYPE svg PUBLIC "-//W3C//DTD SVG 1.1//EN" "http://www.w3.org/Graphics/SVG/1.1/DTD/svg11.dtd">
<svg xmlns="http://www.w3.org/2000/svg" version="1.1" width="512px" height="512px" style="shape-rendering:geometricPrecision; text-rendering:geometricPrecision; image-rendering:optimizeQuality; fill-rule:evenodd; clip-rule:evenodd" xmlns:xlink="http://www.w3.org/1999/xlink">
<g><path style="opacity:0.997" fill="#a0ce49" d="M 255.5,55.5 C 255.5,122.167 255.5,188.833 255.5,255.5C 255.167,255.5 254.833,255.5 254.5,255.5C 254.5,255.167 254.5,254.833 254.5,254.5C 221.247,196.996 188.247,139.33 155.5,81.5C 186.412,63.7715 219.745,55.1048 255.5,55.5 Z"/></g>
<g><path style="opacity:0.996" fill="#fee403" d="M 255.5,55.5 C 291.255,55.1048 324.588,63.7715 355.5,81.5C 322.765,139.302 289.765,196.969 256.5,254.5C 256.5,254.833 256.5,255.167 256.5,255.5C 256.167,255.5 255.833,255.5 255.5,255.5C 255.5,188.833 255.5,122.167 255.5,55.5 Z"/></g>
<g><path style="opacity:0.997" fill="#01ae5c" d="M 155.5,81.5 C 188.247,139.33 221.247,196.996 254.5,254.5C 196.698,221.765 139.031,188.765 81.5,155.5C 99.8333,124.5 124.5,99.8333 155.5,81.5 Z"/></g>
<g><path style="opacity:0.997" fill="#fca313" d="M 355.5,81.5 C 386.5,99.8333 411.167,124.5 429.5,155.5C 371.969,188.765 314.302,221.765 256.5,254.5C 289.765,196.969 322.765,139.302 355.5,81.5 Z"/></g>
<g><path style="opacity:0.997" fill="#019a84" d="M 81.5,155.5 C 139.031,188.765 196.698,221.765 254.5,254.5C 254.5,254.833 254.5,255.167 254.5,255.5C 188.167,255.5 121.833,255.5 55.5,255.5C 55.1048,219.745 63.7715,186.412 81.5,155.5 Z"/></g>
<g><path style="opacity:0.997" fill="#f97826" d="M 429.5,155.5 C 447.229,186.412 455.895,219.745 455.5,255.5C 389.5,255.5 323.5,255.5 257.5,255.5C 257.167,255.5 256.833,255.5 256.5,255.5C 256.5,255.167 256.5,254.833 256.5,254.5C 314.302,221.765 371.969,188.765 429.5,155.5 Z"/></g>
<g><path style="opacity:0.997" fill="#2655aa" d="M 55.5,255.5 C 121.833,255.5 188.167,255.5 254.5,255.5C 254.5,255.833 254.5,256.167 254.5,256.5C 196.67,289.247 139.004,322.247 81.5,355.5C 63.7715,324.588 55.1048,291.255 55.5,255.5 Z"/></g>
<g><path style="opacity:0.997" fill="#f35442" d="M 257.5,255.5 C 323.5,255.5 389.5,255.5 455.5,255.5C 455.895,291.255 447.229,324.588 429.5,355.5C 371.804,322.657 314.47,289.323 257.5,255.5 Z"/></g>
<g><path style="opacity:0.996" fill="#a13ca1" d="M 254.5,255.5 C 254.833,255.5 255.167,255.5 255.5,255.5C 255.5,255.833 255.5,256.167 255.5,256.5C 255.5,322.833 255.5,389.167 255.5,455.5C 219.745,455.895 186.412,447.229 155.5,429.5C 188.235,371.698 221.235,314.031 254.5,256.5C 254.5,256.167 254.5,255.833 254.5,255.5 Z"/></g>
<g><path style="opacity:0.997" fill="#af2e78" d="M 255.5,256.5 C 289.588,313.668 322.921,371.335 355.5,429.5C 324.588,447.229 291.255,455.895 255.5,455.5C 255.5,389.167 255.5,322.833 255.5,256.5 Z"/></g>
<g><path style="opacity:0.997" fill="#7843a3" d="M 254.5,256.5 C 221.235,314.031 188.235,371.698 155.5,429.5C 124.5,411.167 99.8333,386.5 81.5,355.5C 139.004,322.247 196.67,289.247 254.5,256.5 Z"/></g>
<g><path style="opacity:0.996" fill="#dc3242" d="M 255.5,256.5 C 255.5,256.167 255.5,255.833 255.5,255.5C 255.833,255.5 256.167,255.5 256.5,255.5C 256.833,255.5 257.167,255.5 257.5,255.5C 314.47,289.323 371.804,322.657 429.5,355.5C 411.167,386.5 386.5,411.167 355.5,429.5C 322.921,371.335 289.588,313.668 255.5,256.5 Z"/></g>
</svg>
