<svg width="895" height="99" viewBox="0 0 895 99" fill="none" xmlns="http://www.w3.org/2000/svg"><path d="M92.5 0v95.9H80L12.5 19v76.9H0V0h12.5L80 76.8V0h12.5zm68.7 0v95.9h86.4V83.1h-74V53.2h41.3V40.6h-41.3V12.7h74V.1h-86.4V0zm195.5 98.5c26.6 0 46.5-11.2 46.5-40V0h-12.5v58.5c0 21.4-14.7 27.3-33.6 27.3-19.3 0-34.4-5.4-34.4-27.3V0h-12.6v58.5c-.1 29.2 19.8 40 46.6 40zM534 95.9c19.3 0 34.2-7.4 34.2-28.6 0-10.8-4.1-16.5-12.3-23.2 5-5.6 7.8-10.6 7.8-18.2 0-18.2-13-25.8-29.7-25.8h-62.4V96H534v-.1zm.4-83.3c9.3 0 16.7 2.4 16.7 13 0 11-7.4 13.2-17.1 13.2h-49.8V12.6h50.2zm-.4 39.1c11.5 0 21.7 3.2 21.7 16.5 0 13.6-10.4 14.9-21.7 14.9h-49.8V51.7H534zM687.7 0l53.7 95.9h-13.2l-13.4-24h-66.4l-13.6 24h-13.2L676.2 0h11.5zm-32 59.3h52l-25.8-46.1-26.2 46.1zm192.8 39.2c26.6 0 46.5-11.2 46.5-40V0h-12.5v58.5c0 21.4-14.7 27.3-33.6 27.3-19.3 0-34.4-5.4-34.4-27.3V0h-12.6v58.5c0 29.2 19.9 40 46.6 40z" fill="#010202"></path></svg>