<svg xmlns="http://www.w3.org/2000/svg" width="513" height="146" viewBox="0 0 513 146"><path d="M235.946 1.792c1.114.732 4.882 3.3 6.59 5.678a6.368 6.368 0 011.359 3.332c.261 2.787.35 5.587.265 8.384-.382 15.473-5.518 35.892-8.543 46.695-1.677 5.975-3.47 11.536-5.306 16.524 4.998-5.402 9.678-8.692 14.274-10.03a15.76 15.76 0 016.24-.498c.616.03 1.182.349 1.528.86.594.997.138 2.663-.382 4.181-5.126 14.836-7.875 26.786-8.936 38.746-.584 6.697-.7 15.94 2.123 21.926 1.082 2.281 2.59 3.47 4.712 3.64.166.01.332.01.498 0 4.33 0 7.78-4.49 10.698-13.796a101.328 101.328 0 011.348-26.744c1.942-10.421 5.38-18.763 9.944-24.133a22.87 22.87 0 015.805-4.977c2.398-1.305 3.226-1.274 5.868.255a32.899 32.899 0 017.588 6.282 5.306 5.306 0 011.178 3.184c.043.276.074.552.128.86.158 1.03.316 2.485.484 4.4l.036.418 2.058 1.4c.467.319.478.531.298 1.125a54.251 54.251 0 00-2.643 14.264c-.138 5.115 1.008 8.532 3.3 9.88.887.58 1.979.758 3.004.488 1.507-.446 2.929-1.984 4.245-4.585 2.6-5.136 3.99-10.941 5.051-16.449.605-3.024 1.2-6.442 1.783-9.753.608-3.454 1.242-7.013 1.87-10.199l.19-.944v-.16c.19-.901.402-1.485.604-1.549.182-.057.423.032.787.321l.126.104 1.146.944c1.04.86 2.122 1.752 3.035 2.569 1.125 1.167 1.252 1.369.966 2.94-.34 1.846-.69 3.693-1.061 5.656-1.826 9.572-3.885 20.429-4.734 30.054-.583 6.527-1.305 14.71.096 21.225.518 2.403 2.57 6.592 4.829 6.795l.17.008h.275c3.99-.615 7.98-7.694 9.552-12.003a96.701 96.701 0 004.245-16.831c2.122-12.194 4.361-25.162 6.367-38.205.117-.796.223-1.146.52-1.242.267-.086.57.095.936.418l.125.113 1.062.966c1.135.976 2.228 1.931 3.067 2.844.791.862.797 1.137.617 2.059l-.034.17v.148c-.552 2.887-1.157 5.826-1.804 9.01-1.04 5.062-2.101 10.305-2.993 15.399-1.05 6.017-2.366 13.584-2.239 19.813.096 4.946 1.316 11.738 5.01 15.197 3.692 3.46 7.704 1.751 10.431-.371a22.902 22.902 0 004.935-5.572c-3.205-8.001-4.67-18.497-4.011-28.791.71-10.783 3.587-20.461 8.14-27.232a23.114 23.114 0 014.425-5.052c1.836-1.464 3.544-2.111 5.922-.52a51.545 51.545 0 014.998 3.62 6.601 6.601 0 012.537 4.86c.409 3.943.37 7.92-.117 11.854a76.05 76.05 0 01-6.283 21.83 142.823 142.823 0 01-10.856 19.994 10.421 10.421 0 006.813 7.015 7.683 7.683 0 007.216-1.91c7.217-6.4 11.44-15.346 15.92-27.7-.063-15.714 1.704-36.167 4.764-54.939l.202-1.222-150.815-2.058c-.286-.011-.477-.032-.551-.149-.075-.117 0-.287.138-.53a76.39 76.39 0 011.835-3.131c.304-.47.427-.56.928-.572l.134-.001h.743c48.743-.032 99.131-.064 148.723-.425 1.794-10.41 3.874-20.652 5.837-28.866.117-.467.276-.732.499-.828a.987.987 0 01.849.18 38.778 38.778 0 016.028 4.5c.647.605.615.86.435 1.667-.234 1.071-.467 2.07-.69 3.13-1.459 6.413-2.685 11.984-4.05 19.132l-.195 1.032 16.227-.085c1.783-10.294 3.725-19.463 6.112-28.845.085-.36.234-.583.436-.658a.898.898 0 01.717.134l.1.079.698.456a42.726 42.726 0 015.234 4.118c.517.375.702 1.06.446 1.645-2.017 8.691-3.332 14.454-4.903 23.007 23.88-.02 46.495-.187 70.181-.365l5.093-.038h3.057l.184.003c.65.021 1.03.16 1.185.432.159.266.074.69-.244 1.327a48.308 48.308 0 01-4.415 6.474 2.791 2.791 0 01-2.36 1.15l-.198-.015h-.085a9030.99 9030.99 0 01-31.01-.573c-14.082-.265-28.526-.541-42.736-.754-3.13 18.912-8.861 54.06-3.184 75.498.913 3.48 3.587 9.52 7.78 10.06.204.011.41.011.615 0 3.215 0 6.92-3.13 11.016-9.328a60.321 60.321 0 01-5.859-27.242 57.902 57.902 0 011.89-14.147 44.668 44.668 0 015.433-12.607 27.232 27.232 0 014.818-5.614c2.07-1.773 4.075-2.06 6.198-.711a47.448 47.448 0 015.126 3.46 6.368 6.368 0 012.526 4.754c.955 6.166-.287 15.08-1.635 20.832-2.122 9.35-6.696 19.654-13.796 31.487 3.398 6.235 7.345 9.418 11.743 9.547l.28.005h.075c4.309-.043 9.042-2.972 14.062-8.703a96.245 96.245 0 0012.289-18.73c.22-.421.37-.73.577-.787l.07-.01h.053c.18 0 .383.128.669.435a22.085 22.085 0 012.865 3.62c.414.774.531 1.103.096 1.835a79.19 79.19 0 01-14.168 18.042c-5.487 4.98-10.742 7.596-15.637 7.78l-.366.01h-.191c-5.625 0-10.56-3.29-14.688-9.796-1.995 2.844-4.956 6.569-8.14 8.31a11.462 11.462 0 01-5.142 1.455l-.387.009h-.17a10.39 10.39 0 01-5.996-2.038c-3.754-2.769-6.951-8.508-8.63-15.433l-.115-.485-.248.822a53.413 53.413 0 01-4.399 10.232l-.425.747c-2.654 4.17-5.689 6.197-9.265 6.197-4.68 0-8.235-3.024-10.613-8.988a53.211 53.211 0 01-3.077-14.975 71.295 71.295 0 01-8.49 15.282c-4.252 5.57-8.495 8.484-12.647 8.673l-.29.008h-.446c-5.094 0-8.49-2.27-11.673-7.79-3.101 3.475-7.277 7.426-12.467 7.604l-.364.006h-.117c-3.98-.043-7.365-2.133-10.04-6.208a32.198 32.198 0 01-4.297-11.483 58.719 58.719 0 01-6.187 12.279c-2.728 3.767-5.667 5.592-8.851 5.592a7.79 7.79 0 01-5.9-2.674c-2.76-3.046-4.564-8.617-5.307-16.545a95.152 95.152 0 01-.127-14.942c-1.73 3.757-4.245 6.314-7.11 7.206a7.747 7.747 0 01-6.453-.85 57.552 57.552 0 01-6.367 18.456c-2.464 4.19-6.384 9.143-11.362 9.343l-.312.006h-.18a10.889 10.889 0 01-8.056-3.947 22.827 22.827 0 01-4.446-8.49 30.957 30.957 0 01-4.128 8.065 10.38 10.38 0 01-8.165 4.358l-.325.004-.317-.005c-3.784-.115-6.913-2.307-9.298-6.437a31.593 31.593 0 01-3.556-11.536c-1.369-12.215.828-30.468 5.731-47.629.128-.541.117-.87-.053-1.008-.127-.141-.36-.141-.7 0-3.418 1.305-7.885 5.094-11.133 9.34-3.99 5.278-6.988 11.634-9.842 17.75l-.388.832-1.54 3.3c-5.875 12.47-8.796 23.758-8.67 33.573l.011.6v.265c.01.35.021.53-.085.647-.094.104-.264.115-.606.117h-1.378c-.892 0-.977-.117-1.062-1.062a87.914 87.914 0 01-.615-12.172c-2.25 4.468-4.404 7.535-6.77 9.657a13.69 13.69 0 01-9.102 3.66l-.376.002h-.35a8.946 8.946 0 01-6.07-2.611 16.492 16.492 0 01-4.33-8.586 33.313 33.313 0 01-5.455 7.61 10.475 10.475 0 01-7.737 3.512c-4.17 0-6.834-1.793-8.66-5.815-3.13-6.845-3.395-15.41-3.608-22.287-.456-15.186 1.56-35.509 2.95-44.753.128-.838.213-1.167.542-1.326.329-.16.838.127 1.634.626 1.433.892 2.653 1.687 3.863 2.579 1.21.891 1.677 1.39 1.443 2.802-2.451 14.687-4.966 34.681-4.574 46.748.149 4.828.563 10.315 2.452 14.56a4.871 4.871 0 003.438 3.184c1.783.35 3.895-.51 5.774-2.356a33.896 33.896 0 006.972-10.507c-.027-.477-.062-1.02-.104-1.616l-.053-.743c-.047-.64-.098-1.332-.15-2.066-.945-12.767-3.163-42.673.976-71.454 2.886-20.026 8.373-36.518 16.322-49.02 1.156-1.729 2.292-2.631 4.245-1.421a23.687 23.687 0 016.367 5.306 7.27 7.27 0 011.475 3.746c1.932 19.973-2.621 44.615-6.781 61.776-4.638 19.155-11.324 39.5-17.882 54.357.594 6.25 2.897 13.69 7.428 14.05.184.011.369.011.552 0 7.217 0 13.128-11.577 15.378-16.66.233-3.885.435-7.727.626-11.441.446-8.883.934-18.073 1.995-27.985 1.114-10.199 2.42-21.077 4.542-31.838 3.672-18.296 10.507-37.037 18.275-50.133.68-1.178 1.274-1.751 1.985-1.921a3.184 3.184 0 012.398.68zM140.395 47.95c10.493.007 20.668.052 28.873.135.594 0 .87.021 1.06.371.192.35 0 .902-.615 1.857-1.06 1.645-2.812 4.15-4.16 5.975a2.367 2.367 0 01-2.356 1.051c-14.592-.36-37.738-.817-52.17-.934-13.879-.112-26.393-.166-38.279.283l-1.423.057H70.9c-11.313.467-25.374 1.05-35.902 5.147-3.65 1.422-9.838 4.733-10.251 11.1-.34 4.617 2.557 8.766 7.63 11.112 8.787 4.022 25.035 5.083 39.776 5.624 3.852.128 7.832.202 11.673.266 5.094.095 10.348.18 15.463.403 11.578.499 30.946 1.337 41.558 8.15a18.774 18.774 0 018.575 18.233 22.36 22.36 0 01-4.797 11.663 25.767 25.767 0 01-10.113 7.492c-9.403 3.959-20.843 5.773-28.781 6.601-13.415 1.401-26.733 1.613-40.328 1.73-7.8.088-16.816.103-25.962.106h-7.79a3660.92 3660.92 0 01-30.517-.127c-.605-.01-.87-.032-1.062-.382-.19-.35-.01-.902.616-1.857a140.096 140.096 0 014.16-5.975 2.335 2.335 0 012.345-.998c14.635.36 37.739.807 52.182.923 14.444.117 27.402.18 39.702-.34 15.504-.647 26.573-2.334 33.843-5.157 3.099-1.2 10.496-4.829 12.427-12.48 1.709-6.76-1.56-12.056-9.212-14.858-9.327-3.417-23.91-3.693-32.933-3.823l-.58-.008h-5.084c-2.77-.01-5.911-.021-12.449-.159-4.606-.095-15.399-.329-26.584-1.666-13.425-1.581-22.987-4.277-28.41-7.949a21.47 21.47 0 01-6.92-7.301 18.041 18.041 0 01-2.207-9.456c.255-7.217 5.561-13.16 14.922-16.715 7.397-2.801 17.107-4.84 28.78-6.049 14.561-1.517 29.206-1.825 40.328-1.91a3639.15 3639.15 0 0130.131-.135h5.266zm135.953 35.22c-5.38 8.182-8.448 24.738-8.915 33.886-.032.7-.817 17.404 4.426 22.509a4.69 4.69 0 003.757 1.422c3.959-.292 7.274-4.318 10.135-12.288l.159-.447h-.053a70.658 70.658 0 003.321-14.603c-1.974-2.101-3.247-6.803-3.385-12.576a42.312 42.312 0 012.993-16.916c-.022-2.335-.573-6.378-3.948-7.217-3.004-.721-6.856 3.757-8.49 6.23zm130.427-28.187a376.627 376.627 0 00-6.367 51.672 129.398 129.398 0 00.382 19.273c.796 6.908 2.207 11.514 4.245 13.637a3.97 3.97 0 002.695 1.348l.223.01h.255c3.953 0 8.89-11.042 11.659-21.828l.097-.387-.065-.89c-1.198-17.006-.146-37.61 3.024-61.296l.175-1.295-16.323-.244zm-33.217 20.864h-.19c-1.773 0-3.216 1.89-3.768 2.728-7.97 12.108-9.997 37.345-7.938 50.186 7.556-11.345 12.99-25.152 14.55-36.953.587-3.992.676-8.041.265-12.055-.308-2.356-1.274-3.63-2.919-3.906zm87.214.021h-.085c-1.786 0-3.09 2.022-3.585 2.828l-.055.09v.043c-5.02 8.236-7.81 19.145-7.875 30.755-.02 6.145.149 13.054 1.656 17.819 5.954-9.626 10.082-19.357 11.96-28.134 1.062-4.988 2.165-14.37 1.274-19.612-.361-2.175-1.57-3.566-3.29-3.789zm-260.06-64.903l-.137.008c-.549.028-1.055.3-1.38.743a28.102 28.102 0 00-3.093 5.275l-.271.625-.324.693c-5.686 12.263-9.116 25.738-11.095 43.445-2.176 19.474-2.24 39.5-2.06 58.326 7.037-19.92 12.184-36.072 15.92-54.792 3.045-15.272 5.985-32.995 4.69-48.584a24.526 24.526 0 00-.583-3.672c-.266-1.146-.818-1.89-1.529-2.06l-.138-.007zm36.9.019h-.212a2.494 2.494 0 00-1.836 1.252 40.72 40.72 0 00-4.245 7.651c-8.713 20.132-14.804 48.234-16.98 67.156-1.252 10.815-1.656 19.602-1.9 24.908-.07 1.592-.134 2.78-.19 3.566 7.12-15.93 14.507-32.941 19.356-50.495 4.946-18.306 7.557-32.293 7.981-42.715a46.398 46.398 0 00-.637-9.721c-.276-.923-.732-1.496-1.337-1.602zm-73.024 7.205a2.558 2.558 0 012.27.775 8.023 8.023 0 012.028 2.802c.494 1.2.763 2.48.796 3.778.02 2.398-.616 7.779-1.412 9.636l-.091.209c-.487 1.108-.959 2.11-1.798 2.36-.13.015-.262.015-.393 0a2.834 2.834 0 01-1.496-.563 7.429 7.429 0 01-2.345-2.473 10.262 10.262 0 01-.85-3.3 32.485 32.485 0 01.913-8.851c.626-2.176 1.231-4.001 2.378-4.373z" fill="currentColor"></path></svg>