<svg xmlns="http://www.w3.org/2000/svg" width="20" height="20" viewBox="0 0 20 20"><path d="M4.401 10.75a.45.45 0 01.443.369l.007.08v6.4a.45.45 0 01-.892.08l-.008-.08v-6.4a.45.45 0 01.45-.45zM10 13.95a.45.45 0 01.443.368l.007.081v3.2a.45.45 0 01-.893.08l-.007-.08v-3.2a.45.45 0 01.45-.45zm5.599-4.8c.22 0 .404.16.442.37l.008.08v7.998a.45.45 0 01-.893.081l-.007-.08V9.6a.45.45 0 01.45-.45zm-4.8 1.6a1.25 1.25 0 01.128 2.493l-.127.006H9.2c-.689 0-1.25-.56-1.25-1.25 0-.645.493-1.179 1.123-1.243l.127-.006h1.6zm0 .9H9.2a.35.35 0 00-.07.692l.07.007h1.6a.35.35 0 000-.7zm-5.598-4.1a1.251 1.251 0 01.128 2.494l-.128.006h-1.6c-.689 0-1.25-.56-1.25-1.25 0-.646.494-1.179 1.123-1.243l.128-.006h1.6zM10 1.953c.22 0 .405.16.443.369l.007.08v7.2a.45.45 0 01-.893.08l-.007-.08V2.4a.45.45 0 01.45-.45zM5.201 8.45h-1.6a.35.35 0 00-.07.693l.07.007h1.6a.35.35 0 100-.7zm11.197-2.5c.69 0 1.25.562 1.25 1.25 0 .647-.493 1.18-1.122 1.244l-.128.006h-1.6a1.25 1.25 0 01-.127-2.493l.128-.006h1.6zm0 .9h-1.6a.35.35 0 00-.07.693l.07.008h1.6a.35.35 0 100-.7zM4.401 1.953c.221 0 .405.16.443.369l.007.08v4a.45.45 0 01-.892.08l-.008-.08v-4a.45.45 0 01.45-.45zm11.198 0c.22 0 .404.16.442.369l.008.08v2.4a.45.45 0 01-.893.081l-.007-.08v-2.4a.45.45 0 01.45-.45z"></path></svg>