<svg xmlns="http://www.w3.org/2000/svg" width="30" height="30" viewBox="0 0 30 30"><path d="M8.114 10.827h.556l.83.005.467.008.399.011c.84.031 1.251.113 1.64.313l.165.092.329.197c.367.213.687.48.888.727l.041.056 1.546.043h1.479l.365-.322c.155-.131.278-.223.468-.349.69-.458 1.496-.715 2.43-.758l.283-.007h1.026l1.847-.008h.338l.988.015.686.024c1.245.056 2.187.177 2.931.384l.064.018.178.04.23.04.27.036.387.04.24.018.26.009.11.007c.335.044.442.19.472.511l.007.114v.067l-.053.271-.03.12-.068.152-.14.088-.622-.013-.237.002-.012.187-.005.1c-.033 1.459-.222 3.176-.498 4.14-.32.823-1.071 1.52-2.213 1.71l-.235.03-.885.084-.742.06c-.57.04-1.106.06-1.627.06-1.412 0-2.573-.134-3.514-.417-1.013-.406-1.823-1.395-2.299-2.929l-.08-.276-.066-.212-.05-.204-.044-.228-.087-.574-.03-.178-.03-.138-.074-.228c-.043-.141-.188-.232-.47-.253l-.128-.005H14.06l-.114.006c-.255.026-.415.146-.453.311l-.009.074-.07.344-.052.235-.186.948c-.461 1.768-1.3 2.875-2.395 3.313-.652.217-1.47.35-2.434.402-.842.046-1.757.029-2.735-.045l-.494-.041-.451-.046-.797-.095c-1.127-.189-1.908-.91-2.235-1.723-.299-1.074-.517-2.775-.551-4.1l-.004-.301H.15l-.146-.115-.053-.242.004-.234c.026-.414.194-.65.584-.742l.211-.006.261-.018.382-.04.161-.021.289-.046a3.19 3.19 0 00.224-.048l.29-.078c.622-.151 1.385-.25 2.342-.307l.368-.018.688-.024 1.645-.019.715-.004zm-.113.814c-.956 0-1.858.039-2.768.117l-1.181.115-.347.04-.195.033-.066.014-.112.02c-.117.02-.194.035-.27.056l-.392.132a.536.536 0 00-.188.097l-.068.074-.042.065-.076.148a.655.655 0 00-.036.141l-.017.182-.016.209c-.004.87.053 1.622.183 2.53l.018.173.034.231.048.289.028.185c.164.923.652 1.364 1.667 1.544l.197.031.512.058h.123l.861.065.162.01.774.036.701.016c.235.001.459 0 .67-.006l.309-.012.43-.027c.567-.046 1.029-.126 1.392-.239l.173-.059.168-.066.053-.024.13-.074.18-.117.154-.151c.906-.956 1.474-2.77 1.474-4.532 0-.344-.242-.58-.852-.836l-.16-.065-.154-.055-.406-.126a3.31 3.31 0 00-.447-.121l-.151-.023-.214-.02-.326-.02-.724-.027-.44-.007-.793-.004zm15.462.086H21.93l-.546.005-.691.015-.41.019-.399.027-.426.038c-.977-.001-1.973.545-1.973 1.216 0 1.916.563 3.7 1.505 4.565l.107.071.156.1c.041.023.077.041.125.062l.159.062.118.042c.357.117.812.202 1.37.251l.288.022.452.021.238.006.65.001.715-.02.626-.03.33-.022.71-.053.079.001.23-.023.302-.035c1.216-.167 1.757-.644 1.893-1.727a1.65 1.65 0 01.03-.301l.057-.272.013-.079.009-.105.026-.097c.026-.1.048-.201.067-.311l.027-.171.037-.302.033-.363.112-1.489c0-.317-.318-.663-.751-.775l-.121-.025-.282-.073-.623-.077-1.034-.11-.298-.023-.45-.025-.333-.01-.595-.006z"></path></svg>