<svg xmlns="http://www.w3.org/2000/svg" width="30" height="30" viewBox="0 0 30 30"><g><g><path d="M16.871 12.915l-.057.004a.25.25 0 00-.199.293l.125.642.118.583.112.527.11.477.107.43.053.198.107.366c.287.925.594 1.453 1.059 1.92l.182.172.097.085.207.172c1.07.857 6.681.776 8.449.146.946-.338 1.501-1.88 1.743-4.647l.049-.635.02-.333a.25.25 0 10-.499-.028l-.042.634-.025.302-.057.573c-.246 2.21-.718 3.435-1.357 3.663-.393.14-1.011.25-1.734.328l-.56.051-.59.038c-2.097.112-4.511-.023-5.085-.483l-.098-.08-.184-.158c-.087-.08-.17-.16-.246-.244l-.148-.172c-.26-.326-.463-.717-.654-1.29l-.103-.333a12.229 12.229 0 01-.051-.181l-.103-.395-.105-.442-.109-.493-.113-.55-.184-.937a.25.25 0 00-.235-.203z"></path><path d="M13.37 12.92a.25.25 0 01.198.292l-.064.328-.123.613-.12.555-.12.504c-.413 1.675-.827 2.467-1.567 3.173l-.22.2-.24.199c-1.07.857-6.682.776-8.45.146-.91-.325-1.46-1.768-1.715-4.345l-.054-.615c-.016-.211-.03-.43-.044-.655a.25.25 0 01.5-.028l.042.634.052.594c.237 2.386.722 3.706 1.387 3.944.393.14 1.011.25 1.734.328l.56.051.59.038c2.097.112 4.511-.023 5.085-.483l.112-.091.211-.182.194-.185c.433-.437.739-.926 1.011-1.706l.115-.352.056-.19.112-.414.112-.46.114-.51.177-.866.062-.319a.25.25 0 01.235-.203l.057.004z"></path></g><path d="M23.227 10.463l-2.093.054h-1.037c-1.325 0-2.442.432-3.275 1.212l-.225.23-.111.132-.026.034-2.55.04-.126-.112-.108-.123c-.796-.846-1.916-1.347-3.296-1.408l-3.531-.06-.828.01-.765.02-.359.014-.666.033c-1.141.068-1.923.182-2.6.394l-.195.062-.097.017-.27.077c-.25.076-.384.101-.547.101-.403.066-.607.29-.658.67l-.014.16.012.32a.63.63 0 00.052.177l.043.061c.067.077.176.14.341.217l.267.122.002.011a.586.586 0 010 .196c-.006.308.07.483.274.528l.053.004.482-.297c.112-.173.116-.429.055-.615l-.032-.08.015-.122c.056-.343.28-.555.809-.74a4.22 4.22 0 01.365-.092l.1-.016.387-.046.837-.08.531-.047.738-.055.817-.042c.362-.015.728-.025 1.099-.028l.977-.001.504.004 1.144.077.365.022.54.046.524.142c1.002.289 1.52.671 1.603 1.213l.011.146v.222l.11.145.612.168.017-.064.085.073.079-.086.077-.06a1 1 0 01.208-.107l.125-.041c.506-.1 1.227-.101 1.85.001l.144.043c.176.058.318.136.426.233l.127.036.589-.108.107-.082.038-.077a.238.238 0 00.022-.118l-.039-.143-.006-.049c.001-.574.484-.996 1.49-1.308l.355-.1.304-.08.453-.034.9-.048.967-.04.606-.02h.625l.704.02.648.03.303.018.564.04.51.045 1.051.11.335.038.304.102c.401.05.658.233.84.563l.15.311.023.24c.016.167.06.292.147.373l.076.052.62.118.03-.012.105.006.092-.028c.08-.062.1-.118.12-.224l.026-.166.017-.216v-.07l.013-.011.115-.002c.213-.024.349-.143.385-.35l.01-.113v-.21c0-.474-.22-.786-.665-.874-.305-.001-.504-.037-.87-.152l-.17-.054c-.902-.282-2.064-.434-3.702-.493l-.764-.02-.826-.01z"></path></g></svg>