<svg xmlns="http://www.w3.org/2000/svg" width="30" height="30" viewBox="0 0 30 30"><path d="M25.5 10.748c.115 0 .23.002.341.003l.65.014.595.026c.565.032 1.03.082 1.344.153l.143.037c.652.192 1.062.712 1.244 1.546a.65.65 0 01.095.68c.03.456.014.98-.05 1.57l-.03.266c-.167 1.598-.627 2.65-1.407 3.13-1.447.89-7.587 1.362-9.152.332-.886-.582-1.709-2.166-2.044-3.795a7.243 7.243 0 01-.137-.983l.15.03c-1.536-.322-2.875-.347-4.019-.083l-.282.072-.028.003c-.02.303-.066.625-.135.961-.335 1.63-1.158 3.213-2.044 3.795-1.565 1.03-7.705.558-9.152-.332-.78-.48-1.24-1.532-1.407-3.13l-.031-.266a9.713 9.713 0 01-.06-1.312.647.647 0 01.06-.694c.152-.976.575-1.58 1.29-1.79l.143-.037c.314-.07.779-.12 1.343-.153l.596-.026.65-.014.341-.003.71.002.364.005.742.018.374.013.748.032.738.041.361.024.7.054.66.063c.743.076 1.38.168 1.827.272.56.13.916.55 1.083 1.164l.084-.021c1.245-.294 2.651-.294 4.215-.008l.084.015c.168-.607.523-1.02 1.079-1.15.447-.104 1.084-.196 1.826-.272l.66-.063.7-.054.362-.024.738-.041.748-.032c.125-.005.25-.01.374-.013l.742-.018.365-.005.709-.002zm-20.948.498l-.657.007-.608.018c-.774.031-1.386.093-1.712.19-.422.124-.715.472-.869 1.055h.845a.65.65 0 01.096 1.293l-.096.007H.66l-.08-.006c.007.351.037.743.092 1.175l.031.269c.173 1.309.56 2.135 1.141 2.493 1.294.796 7.229 1.252 8.615.34.754-.495 1.518-1.966 1.829-3.477.061-.298.101-.579.122-.84h-1.035a.65.65 0 01-.096-1.293l.096-.007.922-.001c-.131-.385-.36-.635-.68-.71a13.78 13.78 0 00-1.473-.23l-.622-.065-.329-.029-.685-.053a51.85 51.85 0 00-.354-.023l-.724-.04-.733-.033-.732-.023a55.03 55.03 0 00-.719-.013l-.694-.004zm20.903 0l-.694.004a55.03 55.03 0 00-.719.013l-.732.023-.734.032-.723.041a51.85 51.85 0 00-.354.023l-.686.053-.328.03-.622.063a13.78 13.78 0 00-1.474.231c-.32.075-.548.325-.679.71l1.055.001a.65.65 0 01.643.554l.007.096a.65.65 0 01-.554.643l-.096.007h-1.168c.02.261.06.542.122.84.31 1.511 1.075 2.982 1.829 3.478 1.386.911 7.32.455 8.615-.341.58-.358.968-1.184 1.14-2.493l.032-.269c.067-.527.097-.994.092-1.402l-.013.003-.096.007h-.892a.65.65 0 01-.096-1.293l.096-.007h.805c-.166-.45-.434-.725-.8-.833-.325-.096-.938-.158-1.711-.189l-.608-.018-.657-.007z"></path></svg>