<svg xmlns="http://www.w3.org/2000/svg" width="20" height="20" viewBox="0 0 20 20"><path d="M10.47.9c3.758.056 5.725 2.046 6.338 4.447l.048.2c.195.79.308 1.597.337 2.409l.005.347.08.047c.422.268.709.701.794 1.187l.02.164.007.152c.006.203-.01.407-.047.609-.203.963-.737 1.825-1.476 2.382-.137.492-.307.974-.508 1.444-1.123 2.54-3.443 4.812-5.564 4.812-2.09 0-4.326-2.133-5.44-4.562a11.414 11.414 0 01-.578-1.752 3.153 3.153 0 01-1.511-2.332 2.938 2.938 0 01-.074-.686c-.018-.708.343-1.372.898-1.658a9.776 9.776 0 01.266-2.25l.094-.36.004-.12c.277-.89.474-1.379.886-1.992.985-1.47 2.608-2.37 5.101-2.479L10.47.9zm-.004.775l-.294.01c-2.244.097-3.66.877-4.5 2.152-.296.45-.462.831-.648 1.405l-.081.258-.004.127a8.976 8.976 0 00-.354 2.285l-.002.558-.055.09-.161.08c-.43.217-.69.667-.664 1.153 0 .174.02.348.062.53.078.722.48 1.367 1.087 1.756l.155.092.1.054.051.088-.003.09c.173.62.385 1.23.633 1.824.894 2.081 2.972 4.097 4.725 4.097 1.686 0 3.847-2.043 4.832-4.34.147-.353.277-.713.39-1.067l.106-.352.038-.169.083-.065a3.425 3.425 0 001.317-2.01 2.06 2.06 0 000-.451.998.998 0 00-.507-.91l-.112-.055-.189-.072-.064-.093v-.2a11 11 0 00-.231-2.417l-.09-.396c-.412-2.06-2.088-3.885-5.321-4.041l-.299-.011z"></path></svg>