<svg xmlns="http://www.w3.org/2000/svg" width="20" height="20" viewBox="0 0 20 20"><path d="M10.13.9c3.566.055 5.702 1.795 5.907 4.845.048.649.071 1.3.07 1.95l-.008.59.084.045c.592.355.941 1.016.917 1.706l-.013.16-.026.16c-.127.965-.573 1.856-1.235 2.462l-.073.709-.083.715-.047.357-.045.295-.043.231c-.376 1.659-3.287 3.975-5.372 3.975-2.088 0-5.129-2.478-5.504-4.189a18.88 18.88 0 01-.13-1.051l-.044-.53.02-.445a3.212 3.212 0 01-1.544-2.52 2.131 2.131 0 01.92-2.305l.089-.051-.021-.398a16.408 16.408 0 01-.013-.925l.013-.461.026-.462C4.205 2.478 6.444 1.034 9.86.907L10.13.9zm-.004.784l-.284.009C6.618 1.819 4.9 3.206 4.717 5.82a17.12 17.12 0 00.002 1.902l.034.478v.225l-.067.094-.198.07c-.625.25-.956.956-.752 1.64.032.75.394 1.44.98 1.88l.317.22.149.155v.213c.021.695.085 1.389.19 2.07.294 1.321 3.01 3.566 4.756 3.566 1.788 0 4.316-1.999 4.625-3.369l.038-.194.062-.414.091-.753.096-.948.028-.178.083-.085a3.527 3.527 0 001.107-2.105c.08-.763-.184-1.156-.604-1.32l-.092-.031-.21-.054-.076-.097v-.62a53.017 53.017 0 00-.052-2.327c-.125-2.6-1.783-4.023-4.817-4.145l-.281-.009z"></path></svg>