<svg xmlns="http://www.w3.org/2000/svg" width="20" height="20" viewBox="0 0 20 20"><path d="M10.267.9c3.779 0 5.768 1.89 6.52 4.446.29 1.009.448 2.053.426 3.023a2.064 2.064 0 01.846 2.112l-.04.16c-.193.953-.685 1.816-1.372 2.41-.127.454-.281.9-.462 1.336-1.12 2.562-3.491 4.583-6 4.707l-.243.006h-.088c-2.454 0-5.332-2.36-6.16-5.012a7.158 7.158 0 01-.253-1.073 3.524 3.524 0 01-1.425-2.372c-.327-.992.053-2.085.874-2.563.024-.923.167-1.84.427-2.727.887-2.788 2.663-4.3 6.567-4.444L10.267.9zm-.042.83c-3.947.064-5.36 1.389-6.058 3.825a9.853 9.853 0 00-.375 2.33l-.008.396v.189l-.054.089-.177.09c-.653.32-.957 1.1-.692 1.817a2.66 2.66 0 001.02 1.814l.159.112.149.155-.003.105c.098.447.203.856.306 1.188.708 2.264 3.114 4.299 5.196 4.424l.254.006c2.304 0 4.525-1.968 5.506-4.223.134-.32.253-.645.354-.966l.095-.318.045-.174.086-.055a3.767 3.767 0 001.21-2.072 1.204 1.204 0 00-.45-1.389l-.105-.063-.167-.081-.057-.09v-.196a11.63 11.63 0 00-.462-3.061c-.624-2.148-2.276-3.752-5.422-3.848l-.35-.004z"></path></svg>