<svg xmlns="http://www.w3.org/2000/svg" width="20" height="20" viewBox="0 0 20 20"><path d="M10.312.904c3.803.069 6.025 1.374 6.477 3.834l.035.214c.173.953.27 1.918.29 2.885l.002.522.088.052c.631.41.97 1.137.884 1.866l-.025.156-.039.155c-.211.988-.76 1.873-1.519 2.445l-.27 1.47-.109.525-.032.135c-.426 1.705-3.743 3.937-6.058 3.937-2.27 0-5.523-2.23-5.95-3.94l-.064-.323-.132-.784-.154-.985-.115-.062a3.329 3.329 0 01-1.54-2.023l-.044-.195-.032-.199a2.203 2.203 0 01.914-2.526l.09-.055-.008-.338c-.003-.64.05-1.279.158-1.91l.091-.473.092-.391a2.03 2.03 0 00.053-.22c.175-.737.336-1.176.722-1.708.931-1.283 2.68-2.043 5.54-2.067l.655.003zm-.33.8h-.219c-3.772 0-5.06 1.05-5.534 2.979l-.038.162c-.02.099-.044.196-.073.283a11.14 11.14 0 00-.302 2.675l.013.452v.216l-.062.092-.202.082c-.338.13-.609.389-.753.717a1.37 1.37 0 00-.012 1.06 2.51 2.51 0 001.212 1.88l.161.088.145.09.166.157v.13l.112.728.161.973.077.41.021.104c.296 1.29 3.214 3.315 5.154 3.315 1.949 0 4.941-2.036 5.236-3.317l.056-.25.407-2.126.093-.074a3.497 3.497 0 001.346-2.102c.18-.768-.068-1.208-.5-1.404l-.296-.119-.063-.092v-.219a16.893 16.893 0 00-.28-3.52c-.114-.81-.343-1.392-.978-1.98-.945-.874-2.569-1.382-5.049-1.39z"></path></svg>