<svg xmlns="http://www.w3.org/2000/svg" width="20" height="20" viewBox="0 0 20 20"><path d="M9.449.903l.59-.001c1.125-.015 2.25.054 3.363.208.2.026.398.066.582.117.285.046.558.149.794.297 2.105 1.033 2.756 3.491 2.51 6.308.684.5.975 1.385.723 2.194-.254 1-.847 1.88-1.639 2.429l-.376 1.544-.015.064c-.412 1.895-3.793 5.037-5.94 5.037-2.116 0-5.276-2.939-5.855-4.879l-.188-.748-.182-.681-.057-.309a3.297 3.297 0 01-1.742-2.45c-.318-.942.026-1.983.797-2.454-.243-3.112.581-5.157 2.439-6.05l.386-.17a3.86 3.86 0 01.52-.175C6.594 1.07 7.188.988 8.017.943L8.544.92 8.83.912l.619-.009zm1.249.812H9.43l-.57.008-.512.017-.46.024c-.144.01-.28.02-.409.032l-.36.039a6.028 6.028 0 00-.712.127 2.77 2.77 0 00-.35.11l-.126.05-.173.061c-1.604.667-2.35 2.428-2.194 5.22l.02.303v.198l-.053.089-.163.086a1.442 1.442 0 00-.569 1.748 2.54 2.54 0 001.226 1.881l.16.087.233.17.16.61.123.44.152.569.074.3c.364 1.6 3.342 4.422 5.104 4.422 1.766 0 4.823-2.85 5.176-4.422l.312-1.266.113-.44.04-.188.1-.073a3.666 3.666 0 001.435-2.07 1.17 1.17 0 00-.393-1.377l-.112-.075-.18-.194.001-.206c.213-2.559-.265-4.75-1.924-5.682l-.182-.095-.253-.115A2.594 2.594 0 0013.83 2a4.854 4.854 0 00-.516-.088 22.353 22.353 0 00-2.616-.196z"></path></svg>