<svg height="144" width="164" version="1.1" id="Layer_1" xmlns="http://www.w3.org/2000/svg" x="0" y="0" viewBox="0 0 164 144" xml:space="preserve"><g id="Product-Detail"><path d="M161.4 27.6c.9 0 1.8.1 2.6.2v-1.4c-.9-.1-1.7-.2-2.6-.2-3.8 0-8.4 1.5-12.2 4l-3.2 2.2c-2.2-2.8-4.7-5.4-7.7-7.5-4.2-3.1-8.8-5.7-13.7-7.8-6.5-2.7-13.2-4.6-19.7-5.5-6.9-1-13.7-1.4-20.4-1.1-6.5.2-12.9 1-19.1 2.4-6.2 1.3-12.3 3.5-18 6.4-4.9 2.5-9.6 5.8-13.8 9.8-4 3.9-7.2 8.8-9.1 14.1-.4.9-.7 1.9-1 2.8h-4.1c-1.1 0-2.2.6-2.5 1.4l-1.5 3.8c.2 0 0 .2 7 .2-.1 1.1-.3 2.1-.3 3.2-.3 3.9-.2 7.6-.1 11.6v.1c.5 5.3 1.5 10.6 3 15.7 1.4 4.9 3.5 9.9 6.1 14.7 3.9 7 8.9 13.1 14.9 17.9 6.3 5.2 13.9 9.1 21.9 11.2 5.5 1.5 11.3 2.2 17.3 2.2 5.9-.1 11.7-.9 17.3-2.4 5.5-1.5 10.9-3.8 16.1-6.8 5.6-3.3 10.6-7.4 14.7-12 6.6-7.3 11.6-15.8 15-25.3 1-2.6 1.7-5.3 2.4-8 .9-3.9 1.6-7.1 1.9-10.1.5-3.1.6-6.4.5-10.3-.1-2.9-.5-5.7-1.2-8.6-.7-2.7-1.7-5.3-3.3-8-.6-1-1.3-2-1.9-3l.8-.7c4.2-3.4 8.7-5.1 13.9-5.2zm-13.5 9.5c1.5 2.6 2.5 5.2 3.2 7.8.7 2.8 1.1 5.5 1.2 8.4.1 3.8-.1 7.1-.5 10.1s-1 6.2-1.9 10c-.7 2.7-1.4 5.3-2.4 7.9-3.3 9.4-8.3 17.7-14.8 24.9-4.1 4.5-8.9 8.5-14.5 11.8-5.1 3-10.4 5.2-15.9 6.6-5.5 1.5-11.3 2.3-17.1 2.4-5.9 0-11.7-.7-17.1-2.2-7.8-2.1-15.3-5.9-21.5-11-5.9-4.8-10.8-10.7-14.7-17.7-2.6-4.8-4.6-9.7-6.1-14.5-1.5-5-2.5-10.3-3-15.6-.1-3.9-.2-7.6.1-11.5l.3-3.3h2.7l.6-1.5.9-2.4c.3-.7-.4-1.4-1.5-1.4h-1.6c.3-.8.5-1.7.9-2.5 1.9-5.1 4.9-9.9 8.9-13.7 4.2-4 8.7-7.2 13.6-9.6 5.7-2.9 11.6-5.1 17.8-6.4 6.1-1.4 12.5-2.2 18.9-2.4 1.5-.1 2.9-.1 4.4-.1 5.2 0 10.5.4 15.8 1.2 6.5 1 13 2.8 19.5 5.5 4.8 2 9.3 4.6 13.5 7.6 4.3 3.4 7.7 7.2 10.3 11.6z"></path></g></svg>