<svg xmlns="http://www.w3.org/2000/svg" width="20" height="20" viewBox="0 0 20 20"><path d="M9.613 2.486c.844-.037 1.702.01 2.562.139.837.124 1.675.361 2.493.7a8.375 8.375 0 011.747.988 5.013 5.013 0 011.368 1.53c.196.348.338.697.43 1.06.092.371.144.741.158 1.123.01.384.001.733-.034 1.063l-.03.243c-.047.397-.126.81-.243 1.29l-.093.35-.083.283-.083.247-.045.12a9.49 9.49 0 01-1.901 3.203 7.973 7.973 0 01-1.883 1.534 8.485 8.485 0 01-2.053.86 9.138 9.138 0 01-2.207.307 8.527 8.527 0 01-2.205-.282 7.328 7.328 0 01-2.804-1.434 7.985 7.985 0 01-1.908-2.295 9.57 9.57 0 01-.778-1.864 10.432 10.432 0 01-.337-1.594l-.047-.416-.011-.554-.001-.167c0-.268.008-.507.025-.73.027-.51.135-1.016.317-1.484a4.977 4.977 0 011.197-1.848 7.331 7.331 0 011.767-1.25 9.101 9.101 0 011.954-.742l.331-.077.472-.097c.474-.087.956-.148 1.44-.182l.485-.024zM7.376 3.522a8.323 8.323 0 00-2.105.754 6.584 6.584 0 00-1.586 1.122c-.45.439-.8.98-1.017 1.573-.155.4-.246.827-.27 1.267a7.94 7.94 0 00-.02.441l-.001.485.01.447.041.36c.05.373.12.741.213 1.106l.099.363c.17.58.413 1.156.716 1.713a7.232 7.232 0 001.727 2.078 6.582 6.582 0 002.52 1.288 7.769 7.769 0 002.006.257 8.378 8.378 0 002.02-.281 7.73 7.73 0 001.868-.783 7.222 7.222 0 001.704-1.388 8.708 8.708 0 001.617-2.596l.139-.366c.028-.073.054-.145.079-.22l.075-.24.08-.29.046-.173c.087-.358.151-.675.196-.98l.03-.225c.054-.364.07-.748.058-1.184a4.594 4.594 0 00-.136-.965 3.53 3.53 0 00-.354-.872 4.258 4.258 0 00-1.161-1.297 7.623 7.623 0 00-1.589-.9 9.938 9.938 0 00-2.316-.65 12.63 12.63 0 00-2.423-.13c-.613.019-1.222.084-1.817.194l-.443.09-.078-.341.072.343z"></path></svg>