<svg xmlns="http://www.w3.org/2000/svg" width="20" height="20" viewBox="0 0 20 20"><path d="M1.736 6.13a3.108 3.108 0 00-.266.892 7.66 7.66 0 00-.068.716c-.036.96-.036 1.933 0 2.891.025.591.076 1.11.162 1.607.056.332.14.645.256.945l.094.223c.025.063.056.13.094.204l.157.302.162.297.138.241.176.302c.104.171.217.344.347.532l.287.402c.182.234.337.419.496.588.183.182.362.326.565.448.176.107.379.19.586.242l.33.074.384.076a12.58 12.58 0 001.745.163c.588.012 1.177 0 1.78-.035a18.906 18.906 0 001.984-.223 9.63 9.63 0 001.881-.509 8.087 8.087 0 001.755-.922 7.365 7.365 0 001.435-1.354c.362-.456.67-.927.931-1.425a15.9 15.9 0 00.723-1.574c.154-.413.295-.826.425-1.239.077-.246.14-.503.2-.824l.075-.418.014-.092.03-.32.006-.093.005-.303a4.076 4.076 0 00-.095-.72 3.031 3.031 0 00-.262-.666 4.518 4.518 0 00-.774-1.007 7.909 7.909 0 00-1.02-.837 8.568 8.568 0 00-2.113-1.091 14.444 14.444 0 00-2.347-.619 19.246 19.246 0 00-2.837-.282 29.15 29.15 0 00-2.868.106c-.364.037-.726.084-1.065.14a4.163 4.163 0 00-.957.287 2.55 2.55 0 00-.913.652c-.294.318-.516.57-.715.822l-.117.15c-.195.246-.372.5-.537.768l-.16.273-.109.21zm-.37-.876c.12-.195.246-.383.38-.565l.327-.428.266-.323c.141-.165.298-.339.48-.535a3.29 3.29 0 011.173-.837c.374-.16.75-.274 1.128-.337.357-.06.735-.109 1.12-.147a29.929 29.929 0 012.95-.11c.991.025 1.98.123 2.953.293.831.145 1.653.363 2.466.65.81.283 1.573.678 2.292 1.183.394.27.757.57 1.114.913.347.335.647.728.906 1.179.142.257.25.533.337.852.049.216.083.43.102.656l.015.23-.002.228-.004.129-.027.344a9.622 9.622 0 01-.331 1.59c-.134.425-.28.85-.44 1.282-.212.542-.465 1.09-.76 1.653a9.68 9.68 0 01-1.009 1.545 8.13 8.13 0 01-1.589 1.5 8.845 8.845 0 01-1.924 1.012 10.37 10.37 0 01-2.025.546c-.74.12-1.42.197-2.06.232-.622.036-1.23.048-1.838.036-.597-.012-1.21-.07-1.86-.174l-.482-.097-.28-.063a2.875 2.875 0 01-.797-.33 3.645 3.645 0 01-.715-.567 8.845 8.845 0 01-.556-.659l-.306-.428c-.139-.201-.26-.386-.373-.573l-.326-.563-.167-.306-.098-.192a3.799 3.799 0 01-.131-.258l-.05-.117a5.34 5.34 0 01-.4-1.336 13.174 13.174 0 01-.173-1.703 40.385 40.385 0 010-2.953 8.4 8.4 0 01.075-.788c.055-.396.174-.785.351-1.15l.113-.216.175-.298z"></path></svg>