<svg xmlns="http://www.w3.org/2000/svg" width="20" height="20" viewBox="0 0 20 20"><path d="M5.629 4.838c.433-.09.867-.159 1.304-.204.582-.06 1.164-.09 1.746-.09a21.7 21.7 0 012.903.19c.938.123 1.848.317 2.713.582.555.175 1.08.379 1.591.62.374.18.712.378 1.032.606.247.185.436.342.6.505.201.202.363.43.492.686.086.173.137.368.147.553v.135c0 .07-.001.132-.005.2l-.02.23-.016.15a7.99 7.99 0 01-.278 1.38 6.24 6.24 0 01-.542 1.303 6.982 6.982 0 01-1.563 1.915 8.354 8.354 0 01-2.088 1.326 7.47 7.47 0 01-1.26.424 4.21 4.21 0 01-1.373.086 7.472 7.472 0 01-1.149-.217 11.962 11.962 0 01-2.631-1.073 11.893 11.893 0 01-1.436-.92c-.6-.448-1.15-.956-1.64-1.519a12.558 12.558 0 01-1.294-1.81l-.136-.239-.236-.445a6.188 6.188 0 01-.222-.471l-.096-.245a3.58 3.58 0 01-.092-.247l-.076-.238-.077-.3-.02-.092-.037-.205-.02-.132a2.75 2.75 0 010-.443.845.845 0 01.203-.454c.1-.111.219-.213.358-.314a2.69 2.69 0 01.282-.186l.143-.078c.38-.21.773-.385 1.161-.514.263-.097.533-.183.802-.257l.403-.1.427-.098zm-.262.83A8.95 8.95 0 004.245 6c-.265.089-.53.199-.794.331l-.265.14a2.14 2.14 0 00-.33.203 1.597 1.597 0 00-.24.206.12.12 0 00-.019.032 2.08 2.08 0 00-.003.285l.032.19.03.148.045.178.048.166.079.236.041.106c.087.232.18.441.286.644l.226.427.127.224c.35.596.759 1.167 1.215 1.7.454.52.964.992 1.523 1.409.403.304.85.588 1.348.863a11.208 11.208 0 002.468 1.006c.344.093.688.158 1.026.195.39.037.768.015 1.124-.07.381-.09.763-.22 1.13-.38a7.606 7.606 0 001.901-1.208 6.24 6.24 0 001.398-1.714 5.53 5.53 0 00.478-1.148 7.24 7.24 0 00.251-1.25l.025-.246.011-.182.002-.09a.682.682 0 00-.07-.332 1.86 1.86 0 00-.35-.491 4.764 4.764 0 00-.512-.43 6.41 6.41 0 00-.914-.536 11.814 11.814 0 00-1.49-.58 15.951 15.951 0 00-2.589-.555 21.08 21.08 0 00-2.804-.183c-.556 0-1.113.029-1.669.086-.411.043-.82.107-1.228.192l-.408.094-.083-.334.076.335z"></path></svg>