<svg xmlns="http://www.w3.org/2000/svg" width="20" height="20" viewBox="0 0 20 20"><path d="M7.21 2.759a29.835 29.835 0 015.381-.28 35.39 35.39 0 011.872.123c.74.065 1.489.174 2.26.326.283.059.558.128.822.209.523.17.94.567 1.12 1.078.107.299.2.61.28.938l.091.415.047.27.02.128.016.152.006.088.002.078c.023.817-.042 1.636-.193 2.472a13.731 13.731 0 01-1.872 4.784 9.945 9.945 0 01-1.86 2.18c-.35.3-.671.53-1.007.714a4.47 4.47 0 01-.924.396c-.8.241-1.64.424-2.518.553-.863.115-1.718.169-2.557.158a14.361 14.361 0 01-2.778-.307 11.406 11.406 0 01-1.226-.344 3.47 3.47 0 01-1.744-1.398 5.817 5.817 0 01-.553-1.12 15.51 15.51 0 01-.442-1.413 19.786 19.786 0 01-.446-2.334l-.094-.82-.018-.233-.014-.28-.013-.363.002-.139.006-.102a13.933 13.933 0 01.14-1.207l.045-.277.372.061-.37-.07c.039-.206.1-.406.178-.59l.084-.177A8.07 8.07 0 012.967 4.15c.243-.255.54-.453.862-.581a6.935 6.935 0 011.082-.362c.72-.182 1.486-.33 2.299-.448zm5.354.47a29.087 29.087 0 00-5.247.272c-.788.114-1.528.257-2.223.434a6.24 6.24 0 00-.977.326c-.233.093-.44.23-.617.417a7.372 7.372 0 00-1.506 2.089 2 2 0 00-.16.418l-.036.149-.04.258c-.052.342-.089.631-.114.917l-.025.334v.075l.017.476.015.236.02.206.012.103c.1.978.265 1.927.497 2.832.12.46.26.911.42 1.345.12.332.283.661.482.974a2.71 2.71 0 001.36 1.092c.366.126.749.233 1.134.319a13.64 13.64 0 002.63.29c.802.01 1.62-.041 2.443-.15a16.788 16.788 0 002.407-.53c.261-.077.51-.185.775-.333.29-.158.57-.36.882-.626a9.187 9.187 0 001.715-2.012 12.976 12.976 0 001.768-4.52 11.38 11.38 0 00.184-1.862l-.004-.516-.016-.177-.046-.281-.028-.14a8.75 8.75 0 00-.328-1.177 1.001 1.001 0 00-.638-.615 8.632 8.632 0 00-.746-.189 20.634 20.634 0 00-2.177-.314l-.773-.062c-.37-.027-.72-.046-1.06-.058z"></path></svg>