<svg xmlns="http://www.w3.org/2000/svg" width="20" height="20" viewBox="0 0 20 20"><path d="M8.746 4.45l.486-.013.91-.015c.727-.005 1.384.007 2.017.04l.268.005.547.017.577.029.626.04.692.052c.656.06 1.276.135 1.87.226l.442.072.33.06c.115.021.212.04.301.059l.248.056.121.03c.16.04.319.093.485.162.163.073.295.154.385.246a.901.901 0 01.29.512c.02.115.033.224.034.324l-.005.142c0 .193-.012.386-.037.568a17.43 17.43 0 01-.348 2.078 24.175 24.175 0 01-.549 2.027c-.145.461-.288.87-.444 1.261a13.99 13.99 0 01-.558 1.236c-.112.21-.233.393-.374.56-.163.193-.353.35-.57.465-.224.12-.463.212-.724.28a15.84 15.84 0 01-1.107.217c-.361.059-.744.107-1.131.145l-1.07.092-.516.038a67.54 67.54 0 01-4.105.118 48.185 48.185 0 01-3.467-.154 20.61 20.61 0 01-1.49-.168 6.32 6.32 0 01-.707-.152 1.88 1.88 0 01-.403-.16 1.07 1.07 0 01-.395-.386 2.43 2.43 0 01-.186-.42l-.032-.125a4.153 4.153 0 01-.086-.358l-.029-.172c-.078-.436-.14-.89-.192-1.402-.06-.57-.107-1.115-.142-1.66l-.025-.402-.037-.744C.636 9.04.63 8.811.627 8.588v-.804l.005-.328.005-.153c.01-.245.038-.496.085-.756l.053-.263.365.08-.358-.107c.031-.104.07-.207.126-.327l.062-.126a1.1 1.1 0 01.426-.374l.266-.116a6.59 6.59 0 01.818-.21c.414-.08.853-.153 1.302-.215L4.47 4.8l.86-.1a41.339 41.339 0 013.416-.25zm3.39.762c-1.005-.053-2.06-.053-3.367-.012a40.591 40.591 0 00-3.354.245l-1.2.143-.33.044c-.436.06-.862.13-1.266.209-.223.04-.46.102-.676.166l-.211.094a.515.515 0 00-.076.047l-.038.032-.067.147-.047.133-.044.218a4.892 4.892 0 00-.06.441l-.014.212-.007.298-.003.237-.001.391c0 .638.027 1.304.082 2.116.034.535.08 1.07.14 1.631.037.372.08.71.131 1.037l.055.323c.02.148.052.296.1.469.024.106.07.217.14.35.028.044.065.08.111.106a.8.8 0 00.104.048l.144.047c.192.054.4.098.612.132.509.074.985.129 1.434.162a47.37 47.37 0 003.413.151c1.41 0 2.758-.038 4.054-.117l.503-.037 1.06-.091c.37-.036.736-.082 1.082-.138.364-.059.72-.128 1.045-.204a2.61 2.61 0 00.554-.215c.128-.068.245-.165.349-.288.104-.123.196-.262.282-.423.182-.354.353-.735.525-1.166.15-.373.286-.763.427-1.21.196-.612.37-1.26.532-1.967.115-.507.207-1.008.275-1.504l.06-.495c.014-.107.023-.213.028-.33l.005-.18a1.104 1.104 0 00-.018-.296.176.176 0 00-.062-.102.59.59 0 00-.173-.107 2.615 2.615 0 00-.373-.124l-.283-.067-.346-.07-.316-.056a29.002 29.002 0 00-2.246-.29l-.76-.056a43.28 43.28 0 00-.68-.042l-.629-.028a28.546 28.546 0 00-.6-.014z"></path></svg>